<?xml version="1.0" encoding="UTF-8"?>
<svg width="30px"
     height="30px"
     viewBox="0 0 30 30"
     version="1.1"
     xmlns="http://www.w3.org/2000/svg"
     xmlns:xlink="http://www.w3.org/1999/xlink">
    <title>ic_public_recording_置灰</title>
    <defs>
        <path
            d="M15,3.75 C15.6903559,3.75 16.25,4.36424348 16.25,5.12195122 L16.25,5.12195122 L16.25,24.8780488 C16.25,25.6357565 15.6903559,26.25 15,26.25 C14.3096441,26.25 13.75,25.6357565 13.75,24.8780488 L13.75,24.8780488 L13.75,5.12195122 C13.75,4.36424348 14.3096441,3.75 15,3.75 Z M8.75,8.14024396 C9.44035592,8.14024396 10,8.75448741 10,9.51219512 L10,9.51219512 L10,22.1341463 C10,22.8918541 9.44035594,23.5060976 8.75,23.5060976 C8.05964406,23.5060976 7.5,22.8918541 7.5,22.1341463 L7.5,22.1341463 L7.5,9.51219512 C7.5,8.75448741 8.05964408,8.14024396 8.75,8.14024396 Z M21.25,9.78658537 C21.9403559,9.78658537 22.5,10.4008288 22.5,11.1585366 L22.5,11.1585366 L22.5,19.3902439 C22.5,20.1479516 21.9403559,20.7621951 21.25,20.7621951 C20.5596441,20.7621951 20,20.1479516 20,19.3902439 L20,19.3902439 L20,11.1585366 C20,10.4008288 20.5596441,9.78658537 21.25,9.78658537 L21.25,9.78658537 Z M2.5,13.0792683 C3.19035594,13.0792683 3.75,13.6935118 3.75,14.4512195 L3.75,14.4512195 L3.75,17.195122 C3.75,17.9528297 3.19035594,18.5670732 2.5,18.5670732 C1.80964406,18.5670732 1.25,17.9528297 1.25,17.195122 L1.25,17.195122 L1.25,14.4512195 C1.25,13.6935118 1.80964406,13.0792683 2.5,13.0792683 Z M27.5,12.5304878 C28.1903559,12.5304878 28.75,13.1447313 28.75,13.902439 L28.75,13.902439 L28.75,17.195122 C28.75,17.9528297 28.1903559,18.5670732 27.5,18.5670732 C26.8096441,18.5670732 26.25,17.9528297 26.25,17.195122 L26.25,17.195122 L26.25,13.902439 C26.25,13.1447313 26.8096441,12.5304878 27.5,12.5304878 Z"
            id="path-1"></path>
    </defs>
    <g
        id="ic_public_recording_置灰"
        stroke="none"
        stroke-width="1"
        fill="none"
        fill-rule="evenodd">
        <mask
            id="mask-2"
            fill="#8c8c8c">
            <use xlink:href="#path-1"></use>
        </mask>
        <use
            id="形状结合"
            fill="#FFFFFF"
            fill-rule="nonzero"
            opacity="0.4"
            xlink:href="#path-1"></use>
    </g>
</svg>