<?xml version="1.0" encoding="UTF-8"?>
<svg width="30px" height="30px" viewBox="0 0 30 30" version="1.1" xmlns="http://www.w3.org/2000/svg" xmlns:xlink="http://www.w3.org/1999/xlink">
    <title>ic_public_add_filled</title>
    <defs>
        <path d="M15.9375,26.5625 C15.9375,27.080267 15.517767,27.5 15,27.5 C14.482233,27.5 14.0625,27.080267 14.0625,26.5625 L14.062,15.937 L3.4375,15.9375 C2.91973305,15.9375 2.5,15.517767 2.5,15 C2.5,14.482233 2.91973305,14.0625 3.4375,14.0625 L14.062,14.062 L14.0625,3.4375 C14.0625,2.91973305 14.482233,2.5 15,2.5 C15.517767,2.5 15.9375,2.91973305 15.9375,3.4375 L15.9375,26.5625 Z M26.5625,14.0625 C27.080267,14.0625 27.5,14.482233 27.5,15 C27.5,15.517767 27.080267,15.9375 26.5625,15.9375 L17.187,15.9375 L17.187,14.0625 L26.5625,14.0625 Z" id="path-1"></path>
    </defs>
    <g id="ic_public_add_filled" stroke="none" stroke-width="1" fill="none" fill-rule="evenodd">
        <mask id="mask-2" fill="white">
            <use xlink:href="#path-1"></use>
        </mask>
        <use id="形状结合" fill="#FFFFFF" xlink:href="#path-1"></use>
    </g>
</svg>