<?xml version="1.0" encoding="UTF-8"?>
<svg width="30px"
     height="30px"
     viewBox="0 0 30 30"
     version="1.1"
     xmlns="http://www.w3.org/2000/svg"
     xmlns:xlink="http://www.w3.org/1999/xlink">
    <title>ic_public_voice_置灰</title>
    <defs>
        <path
            d="M23.4375,13.125 C23.955267,13.125 24.375,13.544733 24.375,14.0625 C24.375,18.9236084 20.6752266,22.9205885 15.9379544,23.3911656 L15.9375,26.5625 C15.9375,27.080267 15.517767,27.5 15,27.5 C14.5007247,27.5 14.092606,27.1097125 14.0640915,26.6175852 L14.0625,26.5625 L14.0620456,23.3911656 C9.32477337,22.9205885 5.625,18.9236084 5.625,14.0625 C5.625,13.544733 6.04473305,13.125 6.5625,13.125 C7.08026695,13.125 7.5,13.544733 7.5,14.0625 C7.5,18.2046356 10.8578644,21.5625 15,21.5625 C19.1421356,21.5625 22.5,18.2046356 22.5,14.0625 C22.5,13.544733 22.919733,13.125 23.4375,13.125 Z M15,2.5 C17.7614237,2.5 20,4.73857625 20,7.5 L20,7.5 L20,14.0625 C20,16.8239237 17.7614237,19.0625 15,19.0625 C12.2385763,19.0625 10,16.8239237 10,14.0625 L10,14.0625 L10,7.5 C10,4.73857625 12.2385763,2.5 15,2.5 Z M15,4.375 C13.2741102,4.375 11.875,5.77411016 11.875,7.5 L11.875,7.5 L11.875,14.0625 C11.875,15.7883898 13.2741102,17.1875 15,17.1875 C16.7258898,17.1875 18.125,15.7883898 18.125,14.0625 L18.125,14.0625 L18.125,7.5 C18.125,5.77411016 16.7258898,4.375 15,4.375 Z"
            id="path-1"></path>
    </defs>
    <g
        id="ic_public_voice_置灰"
        stroke="none"
        stroke-width="1"
        fill="none"
        fill-rule="evenodd">
        <mask
            id="mask-2"
            fill="#8c8c8c">
            <use xlink:href="#path-1"></use>
        </mask>
        <use
            id="形状结合"
            fill="#FFFFFF"
            fill-rule="nonzero"
            opacity="0.4"
            xlink:href="#path-1"></use>
    </g>
</svg>