<?xml version="1.0" encoding="UTF-8"?>
<svg width="30px"
     height="30px"
     viewBox="0 0 30 30"
     version="1.1"
     xmlns="http://www.w3.org/2000/svg"
     xmlns:xlink="http://www.w3.org/1999/xlink">
    <title>ic_public_video_置灰</title>
    <defs>
        <path
            d="M23.125,20.3125 C23.125,22.7287458 21.1662458,24.6875 18.75,24.6875 L4.375,24.6875 C1.95875422,24.6875 0,22.7287458 0,20.3125 L0,9.6875 C0,7.27125422 1.95875422,5.3125 4.375,5.3125 L18.75,5.3125 C21.1638993,5.3125 23.1211951,7.26745161 23.1249945,9.68046173 L23.125,20.3125 Z M18.75,7.1875 L4.375,7.1875 C3.02033929,7.1875 1.91733035,8.2649493 1.87618963,9.60963146 L1.875,9.6875 L1.875,20.3125 C1.875,21.6671607 2.9524493,22.7701696 4.29713146,22.8113104 L4.375,22.8125 L18.75,22.8125 C20.1046607,22.8125 21.2076696,21.7350507 21.2488104,20.3903685 L21.25,20.3125 L21.25,9.6875 C21.25,8.33283929 20.1725507,7.22983035 18.8278685,7.18868963 L18.75,7.1875 Z M26.7956758,8.56873671 C27.8653453,8.00716024 29.1877314,8.419051 29.7493079,9.48872047 C29.9139707,9.80236381 30,10.1513046 30,10.5055446 L30,10.5055446 L30,19.4944554 C30,20.7025783 29.0206229,21.6819554 27.8125,21.6819554 C27.45826,21.6819554 27.1093192,21.595926 26.7956758,21.4312633 L26.7956758,21.4312633 L24.375,20.1595 L24.375,18.0415 L27.6672394,19.7711422 C27.6840417,19.7799634 27.7015532,19.787205 27.7195477,19.7928111 L27.7747546,19.8046675 L27.8125,19.8069554 C27.985089,19.8069554 28.125,19.6670444 28.125,19.4944554 L28.125,19.4944554 L28.125,10.5055446 C28.125,10.4549389 28.1127101,10.4050902 28.0891868,10.360284 L28.0891868,10.360284 L28.0703849,10.3289938 C27.9821584,10.1997777 27.8091343,10.1543629 27.6672394,10.2288578 L27.6672394,10.2288578 L24.375,11.9565 L24.375,9.8395 Z"
            id="path-1"></path>
    </defs>
    <g
        id="ic_public_video_置灰"
        stroke="none"
        stroke-width="1"
        fill="none"
        fill-rule="evenodd">
        <mask
            id="mask-2"
            fill="#8c8c8c">
            <use xlink:href="#path-1"></use>
        </mask>
        <use
            id="形状结合"
            fill="#FFFFFF"
            fill-rule="nonzero"
            opacity="0.4"
            xlink:href="#path-1"></use>
    </g>
</svg>