<?xml version="1.0" encoding="UTF-8"?>
<svg width="30px" height="30px" viewBox="0 0 30 30" version="1.1" xmlns="http://www.w3.org/2000/svg" xmlns:xlink="http://www.w3.org/1999/xlink">
    <title>ic_public_message</title>
    <defs>
        <path d="M19.6875,3.75 C24.6425297,3.75 28.6687568,7.72667681 28.7487859,12.662635 L28.75,12.8125 L28.75,13.125 C28.75,18.0800297 24.7733232,22.1062568 19.837365,22.1862859 L19.6875,22.1875 L17.263125,22.1875 L12.2254126,27.2254126 C11.8739407,27.5768845 11.3128273,27.5909433 10.9445841,27.2675892 L10.8995874,27.2254126 C10.5481155,26.8739407 10.5340567,26.3128273 10.8574108,25.9445841 L10.8995874,25.8995874 L16.2120874,20.5870874 C16.3732515,20.4259233 16.5870518,20.329497 16.8130824,20.3145452 L16.875,20.3125 L19.6875,20.3125 C23.6173512,20.3125 26.8105658,17.1585839 26.8740371,13.2438585 L26.875,13.125 L26.875,12.8125 C26.875,8.88264883 23.7210839,5.68943423 19.8063585,5.62596292 L19.6875,5.625 L10.3125,5.625 C6.38264883,5.625 3.18943423,8.77891609 3.12596292,12.6936415 L3.125,12.8125 L3.125,13.125 C3.125,17.0548512 6.27891609,20.2480658 10.1936415,20.3115371 L10.3125,20.3125 L11.5625,20.3125 C12.080267,20.3125 12.5,20.732233 12.5,21.25 C12.5,21.7492753 12.1097125,22.157394 11.6175852,22.1859085 L11.5625,22.1875 L10.3125,22.1875 C5.35747026,22.1875 1.33124316,18.2108232 1.25121412,13.274865 L1.25,13.125 L1.25,12.8125 C1.25,7.85747026 5.22667681,3.83124316 10.162635,3.75121412 L10.3125,3.75 L19.6875,3.75 Z" id="path-1"></path>
    </defs>
    <g id="ic_public_message" stroke="none" stroke-width="1" fill="none" fill-rule="evenodd">
        <mask id="mask-2" fill="white">
            <use xlink:href="#path-1"></use>
        </mask>
        <use id="路径" fill="#FFFFFF" fill-rule="nonzero" xlink:href="#path-1"></use>
    </g>
</svg>