<?xml version="1.0" encoding="UTF-8"?>
<svg
     viewBox="0 0 96 96"
     version="1.1"
     xmlns="http://www.w3.org/2000/svg">
    <!-- Generator: Sketch 64 (93537) - https://sketch.com -->
    <title>Checkbox/Light/on</title>
    <desc>Created with Sketch.</desc>
    <g
        id="Checkbox/Light/on"
        stroke="none"
        stroke-width="1"
        fill="none"
        fill-rule="evenodd">
        <path
            d="M8,23.9969199 C8,15.162065 15.1698706,8 23.9969199,8 L72.0030801,8 C80.837935,8 88,15.1698706 88,23.9969199 L88,72.0030801 C88,80.837935 80.8301294,88 72.0030801,88 L23.9969199,88 C15.162065,88 8,80.8301294 8,72.0030801 L8,23.9969199 Z"
            id="Rectangle-2375-Copy"
            fill="#007DFF"></path>
        <path
            d="M57.5839149,15.5034353 L57.2865776,15.5095253 L57.0321289,15.5258015 C52.810904,15.8597795 49.5839149,19.3132166 49.5839149,23.4968851 L49.582,52.502 L37.5805038,52.5034353 C33.1672969,52.5034353 29.5839149,56.0867566 29.5839149,60.5034353 C29.5839149,64.9173692 33.1643678,68.5034353 37.5807538,68.5034353 L57.5870761,68.5034353 C58.6029813,68.5034353 59.5990622,68.3114555 60.5299473,67.9421081 L60.6085203,67.9106031 C61.0316848,67.7347915 61.3945149,67.5499548 61.741528,67.3386348 C63.9872252,65.9719364 65.4423742,63.5764682 65.5741452,60.9064686 L65.5828584,60.5953651 L65.5839149,23.4969933 C65.5839149,19.083909 61.9999825,15.5034353 57.5839149,15.5034353 Z M57.5839149,19.5034353 C59.7930539,19.5034353 61.5839149,21.295258 61.5839149,23.4968851 L61.5839149,60.5034353 L61.5790076,60.7092989 C61.5117972,62.0711455 60.7596828,63.2536489 59.6610602,63.9222546 C59.4881842,64.0275306 59.3069458,64.1200314 59.1184666,64.1984959 L59.0547428,64.2240748 C58.6000523,64.4044824 58.1048526,64.5034353 57.5870761,64.5034353 L37.5807538,64.5034353 C35.3733606,64.5034353 33.5839149,62.7080792 33.5839149,60.5034353 C33.5839149,58.2942963 35.3780352,56.5034353 37.5807538,56.5034353 L53.5829149,56.5024353 L53.5839149,23.4968851 C53.5839149,21.3581977 55.2721102,19.6121781 57.3846588,19.5083226 L57.5839149,19.5034353 Z"
            id="Rectangle-62"
            fill-opacity="0.05"
            fill="#000000"
            fill-rule="nonzero"
            transform="translate(47.583915, 42.003435) rotate(43.000000) translate(-47.583915, -42.003435) "></path>
        <path
            d="M37.5807538,64.5034353 C35.3733606,64.5034353 33.5839149,62.7080792 33.5839149,60.5034353 C33.5839149,58.2942963 35.3780352,56.5034353 37.5807538,56.5034353 L53.5829149,56.5024353 L53.5839149,23.4968851 C53.5839149,21.3581977 55.2721102,19.6121781 57.3846588,19.5083226 L57.5839149,19.5034353 C59.7930539,19.5034353 61.5839149,21.295258 61.5839149,23.4968851 L61.5829149,60.4624353 L61.5839149,60.5034353 L61.5799149,60.6774353 L61.5790076,60.7092989 C61.5117972,62.0711455 60.7596828,63.2536489 59.6610602,63.9222546 C59.4881842,64.0275306 59.3069458,64.1200314 59.1184666,64.1984959 C59.0974121,64.2069739 59.0761224,64.2156138 59.0547428,64.2240748 C58.6000523,64.4044824 58.1048526,64.5034353 57.5870761,64.5034353 L37.5807538,64.5034353 Z"
            id="Rectangle-62"
            fill="#FFFFFF"
            transform="translate(47.583915, 42.003435) rotate(43.000000) translate(-47.583915, -42.003435) "></path>
    </g>
</svg>