<?xml version="1.0" encoding="UTF-8"?>
<svg
     viewBox="0 0 96 96"
     version="1.1"
     xmlns="http://www.w3.org/2000/svg">
    <!-- Generator: Sketch 64 (93537) - https://sketch.com -->
    <title>Checkbox_off</title>
    <desc>Created with Sketch.</desc>
    <g
        id="Checkbox_off"
        stroke="none"
        stroke-width="1"
        fill="none"
        fill-rule="evenodd"
        opacity="0.38">
        <g
            id="Group"
            transform="translate(8.000000, 8.000000)">
            <path
                d="M0,15.9969199 C0,7.16206498 7.16987059,0 15.9969199,0 L64.0030801,0 C72.837935,0 80,7.16987059 80,15.9969199 L80,64.0030801 C80,72.837935 72.8301294,80 64.0030801,80 L15.9969199,80 C7.16206498,80 0,72.8301294 0,64.0030801 L0,15.9969199 Z"
                id="Rectangle-2375-Copy"
                fill="#FFFFFF"></path>
            <path
                d="M64.0030801,0 C72.837935,0 80,7.16987059 80,15.9969199 L80,64.0030801 C80,72.837935 72.8301294,80 64.0030801,80 L15.9969199,80 C7.16206498,80 0,72.8301294 0,64.0030801 L0,15.9969199 C0,7.16206498 7.16987059,0 15.9969199,0 L64.0030801,0 Z M63.003039,4 L16.996961,4 C9.81586843,4 4,9.81893766 4,16.996961 L4,16.996961 L4,63.003039 C4,70.1841316 9.81893766,76 16.996961,76 L16.996961,76 L63.003039,76 C70.1841316,76 76,70.1810623 76,63.003039 L76,63.003039 L76,16.996961 C76,9.81586843 70.1810623,4 63.003039,4 L63.003039,4 Z"
                id="Rectangle-2375-Copy-2"
                fill="#000000"></path>
        </g>
    </g>
</svg>