<?xml version="1.0" encoding="UTF-8"?>
<svg width="40px" height="40px" viewBox="0 0 40 40" version="1.1" xmlns="http://www.w3.org/2000/svg" xmlns:xlink="http://www.w3.org/1999/xlink">
    <title>画板</title>
    <g id="画板" stroke="none" stroke-width="1" fill="none" fill-rule="evenodd">
        <g id="编组">
            <path d="M0,20 C0,31.05 8.95,40 20,40 C31.05,40 40,31.05 40,20 C40,8.95 31.05,0 20,0 C8.95,0 0,8.95 0,20 Z" id="Fill-1" fill="#B6C5D1"></path>
            <g id="编组-3" transform="translate(10.300000, 10.000000)" fill="#FFFFFF">
                <path d="M0.975609756,16.5853659 C0.436795366,16.5853659 -1.4144869e-14,16.1485705 -1.42108547e-14,15.6097561 C-1.42768404e-14,15.0709417 0.436795366,14.6341463 0.975609756,14.6341463 L2.198,14.634 L3.19121186,6.79071826 C3.5105586,4.26821168 5.27683626,2.24584073 7.59284773,1.51437951 C7.75762587,0.653606125 8.55430287,-2.22044605e-15 9.51219512,-2.22044605e-15 C10.4700874,-2.22044605e-15 11.2667644,0.653606125 11.4319779,1.51553105 C13.7472014,2.24543704 15.5137998,4.26795992 15.8331784,6.79071826 L15.8331784,6.79071826 L16.826,14.634 L18.0487805,14.6341463 C18.5875949,14.6341463 19.0243902,15.0709417 19.0243902,15.6097561 C19.0243902,16.1485705 18.5875949,16.5853659 18.0487805,16.5853659 L0.975609756,16.5853659 Z" id="形状结合"></path>
                <path d="M12.3983733,17.5620682 C12.1656901,18.945781 10.9620556,20 9.51219512,20 C8.06233463,20 6.85870017,18.945781 6.62601691,17.5620682 Z" id="形状结合" fill-opacity="0.6"></path>
            </g>
        </g>
    </g>
</svg>