<?xml version="1.0" encoding="UTF-8"?>
<svg width="24px" height="24px" viewBox="0 0 24 24" version="1.1" xmlns="http://www.w3.org/2000/svg" xmlns:xlink="http://www.w3.org/1999/xlink">
    <title>全部已读</title>
    <g id="全部已读" stroke="none" stroke-width="1" fill="none" fill-rule="evenodd">
        <g id="ic_allread">
            <rect id="juxing" x="0" y="0" width="24" height="24"></rect>
            <path d="M5.18181818,7.55555556 L8.45454545,7.55555556 C8.91818182,7.55555556 9.27272727,7.91666667 9.27272727,8.38888889 C9.27272727,8.86111111 8.91818182,9.22222222 8.45454545,9.22222222 L5.18181818,9.22222222 C4.71818182,9.22222222 4.36363636,8.86111111 4.36363636,8.38888889 C4.36363636,7.91666667 4.71818182,7.55555556 5.18181818,7.55555556 Z M5.18181818,11.4444444 L8.45454545,11.4444444 C8.91818182,11.4444444 9.27272727,11.8055556 9.27272727,12.2777778 C9.27272727,12.75 8.91818182,13.1111111 8.45454545,13.1111111 L5.18181818,13.1111111 C4.71818182,13.1111111 4.36363636,12.75 4.36363636,12.2777778 C4.36363636,11.8055556 4.71818182,11.4444444 5.18181818,11.4444444 Z M5.18181818,15.3333333 L18.8181818,15.3333333 C19.2818182,15.3333333 19.6363636,15.6944444 19.6363636,16.1666667 C19.6363636,16.6388889 19.2818182,17 18.8181818,17 L5.18181818,17 C4.71818182,17 4.36363636,16.6388889 4.36363636,16.1666667 C4.36363636,15.6944444 4.71818182,15.3333333 5.18181818,15.3333333 Z M18.2454545,6.97222222 C18.5727273,6.63888889 19.0909091,6.63888889 19.3909091,6.97222222 C19.7181818,7.30555556 19.7181818,7.83333333 19.3909091,8.13888889 L14.6727273,12.9444444 C14.3454545,13.2777778 13.8272727,13.2777778 13.5272727,12.9444444 L10.8818182,10.25 C10.5545455,9.91666667 10.5545455,9.38888889 10.8818182,9.08333333 C11.2090909,8.75 11.7272727,8.75 12.0272727,9.08333333 L14.1,11.1944444 L18.2454545,6.97222222 Z M20.7272727,2 C22.5272727,2 24,3.5 24,5.33333333 L24,18.6666667 C24,20.5 22.5272727,22 20.7272727,22 L3.27272727,22 C1.47272727,22 0,20.5 0,18.6666667 L0,5.33333333 C0,3.5 1.47272727,2 3.27272727,2 L20.7272727,2 Z M20.7272727,3.66666667 L3.27272727,3.66666667 C2.37272727,3.66666667 1.63636364,4.41666667 1.63636364,5.33333333 L1.63636364,18.6666667 C1.63636364,19.5833333 2.37272727,20.3333333 3.27272727,20.3333333 L20.7272727,20.3333333 C21.6272727,20.3333333 22.3636364,19.5833333 22.3636364,18.6666667 L22.3636364,5.33333333 C22.3636364,4.41666667 21.6272727,3.66666667 20.7272727,3.66666667 Z" id="allread" fill="#000000" fill-rule="nonzero"></path>
        </g>
    </g>
</svg>