<?xml version="1.0" encoding="utf-8"?>
<!-- Generator: Adobe Illustrator 19.0.0, SVG Export Plug-In . SVG Version: 6.00 Build 0)  -->
<svg version="1.1" id="图层_1" xmlns="http://www.w3.org/2000/svg" xmlns:xlink="http://www.w3.org/1999/xlink" x="0px" y="0px"
	 viewBox="0 0 96 96" style="enable-background:new 0 0 96 96;" xml:space="preserve">
<path id="path-1_1_" d="M82,16L82,16h7c1.7,0,3,1.3,3,3s-1.3,3-3,3h-4.3l-5.2,59c-0.5,6.2-5.7,11-12,11H28.3c-6.2,0-11.4-4.8-12-11
	l-5.2-59H7c-1.7,0-3-1.3-3-3s1.3-3,3-3h7c0,0,0,0,0.1,0h17.3v-5c0-3.9,3.1-7,7-7h20.3c3.9,0,7,3.1,7,7v5H82z M78.7,22H62.6
	c-1.7,0-3-1.3-3-3v-8c0-0.6-0.4-1-1-1H38.3c-0.6,0-1,0.4-1,1v8c0,1.7-1.3,3-3,3h-17l5.1,58.5c0.3,3.1,2.9,5.5,6,5.5h39.2
	c3.1,0,5.7-2.4,6-5.5L78.7,22z M54,33c0-1.7,1.3-3,3-3s3,1.3,3,3v39c0,1.7-1.3,3-3,3s-3-1.3-3-3V33z M36,33c0-1.7,1.3-3,3-3
	s3,1.3,3,3v39c0,1.7-1.3,3-3,3s-3-1.3-3-3V33z"/>
</svg>
