<?xml version="1.0" encoding="UTF-8"?>
<svg width="24px" height="24px" viewBox="0 0 24 24" version="1.1" xmlns="http://www.w3.org/2000/svg" xmlns:xlink="http://www.w3.org/1999/xlink">
    <path stroke="none" stroke-width="1" fill="#000000" fill-rule="nonzero" d="M16.0922352,15.3892248 L18.6099466,17.9082014 C18.8296165,18.1278713 18.8296165,18.4840266 18.6099466,18.7036966 C18.3902766,18.9233665 18.0341213,18.9233665 17.8144514,18.7036966 L15.2883277,16.1782063 C15.5768468,15.9370007 15.8457315,15.6730913 16.0922352,15.3892248 Z M10.78125,4.5 C14.2502886,4.5 17.0625,7.31221142 17.0625,10.78125 C17.0625,12.4261586 16.4302145,13.923389 15.3954289,15.0431557 L15.5603896,14.857454 C15.4966244,14.9321437 15.431139,15.0053206 15.3639949,15.0769231 C15.3151387,15.1290186 15.2656084,15.1800772 15.2152304,15.2302858 C15.1969913,15.2484645 15.1785311,15.2666387 15.1599595,15.2846991 C15.1001428,15.3428597 15.03955,15.399499 14.9778535,15.4549343 C14.9677901,15.463977 14.9575311,15.4731352 14.9472419,15.4822602 C14.8912151,15.5319433 14.8344854,15.5804823 14.776894,15.6280146 C14.769889,15.6337964 14.7627585,15.6396555 14.7556149,15.6454992 C13.6724626,16.5313437 12.2888854,17.0625 10.78125,17.0625 C7.31221142,17.0625 4.5,14.2502886 4.5,10.78125 C4.5,7.31221142 7.31221142,4.5 10.78125,4.5 Z M10.78125,5.625 C7.93353176,5.625 5.625,7.93353176 5.625,10.78125 C5.625,13.6289682 7.93353176,15.9375 10.78125,15.9375 C13.6289682,15.9375 15.9375,13.6289682 15.9375,10.78125 C15.9375,7.93353176 13.6289682,5.625 10.78125,5.625 Z" id="path-1"></path>
</svg>