<?xml version="1.0" encoding="utf-8"?>
<!-- Generator: Adobe Illustrator 19.0.0, SVG Export Plug-In . SVG Version: 6.00 Build 0)  -->
<svg version="1.0" id="图层_1" xmlns="http://www.w3.org/2000/svg" xmlns:xlink="http://www.w3.org/1999/xlink" x="0px" y="0px"
	 viewBox="0 0 96 96" style="enable-background:new 0 0 96 96;" xml:space="preserve">
<g id="ic_contacts_favorite">
	<g id="ic_x2F_favourites_x2F_ic_x5F_favourites">
		<g id="symbol_x2F_frame_x2F_symbol_x5F_grid24">
		</g>
	</g>
</g>
<path id="path-1_1_" d="M47.9,17.6l-8.8,24H15.8l19.5,14.3L28.5,79l19.3-14.4l20.4,14.2L61,56l19.1-14.4H56.7L47.9,17.6z M51.7,10.4
	L61,35.6h25.2c2.2,0,4,1.8,4,4c0,1.3-0.6,2.4-1.6,3.2L68.1,58.2l7.7,24.4c0.7,2.1-0.5,4.4-2.6,5c-1.2,0.4-2.5,0.2-3.5-0.5L48.1,72
	L27.4,87.4c-1.8,1.3-4.3,1-5.6-0.8c-0.8-1-1-2.3-0.6-3.5l7.3-24.8l-21-15.5c-1.8-1.3-2.2-3.8-0.8-5.6c0.8-1,1.9-1.6,3.2-1.6h25
	l9.3-25.2C45,8.3,47.3,7.3,49.3,8C50.4,8.4,51.2,9.3,51.7,10.4z"/>
<g id="XMLID_1_">
</g>
<g id="XMLID_2_">
</g>
<g id="XMLID_3_">
</g>
<g id="XMLID_4_">
</g>
<g id="XMLID_5_">
</g>
<g id="XMLID_6_">
</g>
</svg>
