<?xml version="1.0" encoding="UTF-8"?>
<svg width="24px" height="24px" viewBox="0 0 24 24" version="1.1" xmlns="http://www.w3.org/2000/svg" xmlns:xlink="http://www.w3.org/1999/xlink">
    <title>ic_message_card2</title>
    <g id="ic_message_card2" stroke="none" stroke-width="1" fill="none" fill-rule="evenodd">
        <rect id="矩形" x="0" y="0" width="24" height="24"></rect>
        <path d="M12.5,6.5 L18.0983496,6.5 C18.5956305,6.5 19.0725441,6.69754408 19.4241748,7.04917479 L22.4508252,10.0758252 C22.8024559,10.4274559 23,10.9043695 23,11.4016504 L23,20 C23,21.6568542 21.6568542,23 20,23 L12.5,23 C10.8431458,23 9.5,21.6568542 9.5,20 L9.5,9.5 C9.5,7.84314575 10.8431458,6.5 12.5,6.5 Z" id="Rectangle" fill-opacity="0.4" fill="#000000" fill-rule="nonzero"></path>
        <polygon id="1" fill="#FFFFFF" fill-rule="nonzero" points="17.45 18.056 17.45 11.459 16.433 11.459 14.417 12.602 14.417 13.853 16.127 12.899 16.127 18.056"></polygon>
        <path d="M4,1 L9.59834957,1 C10.0956305,1 10.5725441,1.19754408 10.9241748,1.54917479 L13.9508252,4.57582521 C14.3024559,4.92745592 14.5,5.40436951 14.5,5.90165043 L14.5,14.5 C14.5,16.1568542 13.1568542,17.5 11.5,17.5 L4,17.5 C2.34314575,17.5 1,16.1568542 1,14.5 L1,4 C1,2.34314575 2.34314575,1 4,1 Z" id="Rectangle" fill="#64BB5C" fill-rule="nonzero"></path>
        <path d="M9.736,12.556 L9.736,11.413 L7.099,11.413 L8.224,10.162 C8.692,9.64 9.0175,9.2155 9.2005,8.8885 C9.3835,8.5615 9.475,8.209 9.475,7.831 C9.475,7.447 9.3925,7.105 9.2275,6.805 C9.0625,6.505 8.8255,6.2695 8.5165,6.0985 C8.2075,5.9275 7.843,5.842 7.423,5.842 C6.889,5.842 6.418,5.9845 6.01,6.2695 C5.602,6.5545 5.32,6.964 5.164,7.498 L5.164,7.498 L6.19,8.092 C6.292,7.756 6.439,7.4965 6.631,7.3135 C6.823,7.1305 7.045,7.039 7.297,7.039 C7.543,7.039 7.738,7.117 7.882,7.273 C8.026,7.429 8.098,7.636 8.098,7.894 C8.098,8.128 8.0305,8.3545 7.8955,8.5735 C7.7605,8.7925 7.522,9.094 7.18,9.478 L7.18,9.478 L5.191,11.71 L5.191,12.556 L9.736,12.556 Z" id="2" fill="#FFFFFF" fill-rule="nonzero"></path>
    </g>
</svg>