<?xml version="1.0" encoding="UTF-8"?>
<svg width="24px" height="24px" viewBox="0 0 24 24" version="1.1" xmlns="http://www.w3.org/2000/svg" xmlns:xlink="http://www.w3.org/1999/xlink">
    <title>ic_message_card1</title>
    <g id="ic_message_card1" stroke="none" stroke-width="1" fill="none" fill-rule="evenodd">
        <rect id="矩形" x="0" y="0" width="24" height="24"></rect>
        <path d="M12.5,6.5 L18.0983496,6.5 C18.5956305,6.5 19.0725441,6.69754408 19.4241748,7.04917479 L22.4508252,10.0758252 C22.8024559,10.4274559 23,10.9043695 23,11.4016504 L23,20 C23,21.6568542 21.6568542,23 20,23 L12.5,23 C10.8431458,23 9.5,21.6568542 9.5,20 L9.5,9.5 C9.5,7.84314575 10.8431458,6.5 12.5,6.5 Z" id="Rectangle" fill-opacity="0.4" fill="#000000" fill-rule="nonzero"></path>
        <path d="M18.236,18.056 L18.236,16.913 L15.599,16.913 L16.724,15.662 C17.192,15.14 17.5175,14.7155 17.7005,14.3885 C17.8835,14.0615 17.975,13.709 17.975,13.331 C17.975,12.947 17.8925,12.605 17.7275,12.305 C17.5625,12.005 17.3255,11.7695 17.0165,11.5985 C16.7075,11.4275 16.343,11.342 15.923,11.342 C15.389,11.342 14.918,11.4845 14.51,11.7695 C14.102,12.0545 13.82,12.464 13.664,12.998 L13.664,12.998 L14.69,13.592 C14.792,13.256 14.939,12.9965 15.131,12.8135 C15.323,12.6305 15.545,12.539 15.797,12.539 C16.043,12.539 16.238,12.617 16.382,12.773 C16.526,12.929 16.598,13.136 16.598,13.394 C16.598,13.628 16.5305,13.8545 16.3955,14.0735 C16.2605,14.2925 16.022,14.594 15.68,14.978 L15.68,14.978 L13.691,17.21 L13.691,18.056 L18.236,18.056 Z" id="2" fill="#FFFFFF" fill-rule="nonzero"></path>
        <path d="M4,1 L9.59834957,1 C10.0956305,1 10.5725441,1.19754408 10.9241748,1.54917479 L13.9508252,4.57582521 C14.3024559,4.92745592 14.5,5.40436951 14.5,5.90165043 L14.5,14.5 C14.5,16.1568542 13.1568542,17.5 11.5,17.5 L4,17.5 C2.34314575,17.5 1,16.1568542 1,14.5 L1,4 C1,2.34314575 2.34314575,1 4,1 Z" id="Rectangle" fill="#64BB5C" fill-rule="nonzero"></path>
        <polygon id="1" fill="#FFFFFF" fill-rule="nonzero" points="8.95 12.556 8.95 5.959 7.933 5.959 5.917 7.102 5.917 8.353 7.627 7.399 7.627 12.556"></polygon>
    </g>
</svg>