<?xml version="1.0" encoding="utf-8"?>
<!-- Generator: Adobe Illustrator 19.0.0, SVG Export Plug-In . SVG Version: 6.00 Build 0)  -->
<svg version="1.1" id="图层_1" xmlns="http://www.w3.org/2000/svg" xmlns:xlink="http://www.w3.org/1999/xlink" x="0px" y="0px"
	 viewBox="0 0 96 96" style="enable-background:new 0 0 96 96;" xml:space="preserve">
<path id="path-1_1_" d="M48,20c-3.3,0-6-2.7-6-6s2.7-6,6-6s6,2.7,6,6S51.3,20,48,20z M48,54c-3.3,0-6-2.7-6-6s2.7-6,6-6s6,2.7,6,6
	S51.3,54,48,54z M48,88c-3.3,0-6-2.7-6-6s2.7-6,6-6s6,2.7,6,6S51.3,88,48,88z"/>
</svg>
