<?xml version="1.0" encoding="UTF-8"?>
<svg width="160px" height="160px" viewBox="0 0 160 160" version="1.1" xmlns="http://www.w3.org/2000/svg" xmlns:xlink="http://www.w3.org/1999/xlink">
    <title>插画</title>
    <defs>
        <path d="M113.415704,51.1767667 C113.415704,54.3172275 110.869857,56.8630741 107.729396,56.8630741 L63.635937,56.8630741 C60.4954762,56.8630741 57.9496296,54.3172275 57.9496296,51.1767667 L57.9496296,20.7753898 C57.9496296,16.6783682 61.5247762,0 79.4737778,0 C97.4227793,0 100.997926,15.678227 100.997926,20.7753898 L100.99763,41.011 L86.5392067,47.9148456 L94.5685838,50.3481295 L99.9753087,56.0859647 L102.022411,52.8857215 L109.150057,54.8169251 L109.93563,51.176 L113.415704,51.1767667 Z" id="path-1"></path>
    </defs>
    <g id="插画" stroke="none" stroke-width="1" fill="none" fill-rule="evenodd">
        <g id="编组" transform="translate(0.000000, 1.000000)">
            <g id="编组" transform="translate(22.666667, 20.933333)">
                <path d="M50.7833987,90.1408958 C71.816279,90.1408958 88.8667974,95.9062464 88.8667974,103.018167 C88.8667974,110.130087 71.816279,115.895438 50.7833987,115.895438 C29.7505184,115.895438 12.7,110.130087 12.7,103.018167 C12.7,97.1865161 24.1642806,92.2602606 39.8879384,90.6756188 L39.8873568,99.8397667 L42.8658718,92.9563565 L43.7011436,102.417249 L47.4123568,99.3497667 L47.4123666,90.1906531 C48.5230546,90.1577137 49.6474183,90.1408958 50.7833987,90.1408958 Z M47.4123568,100.544767 L46.9304057,101.708223 C47.1196119,101.5436 47.2588207,101.363304 47.3379227,101.172296 L47.3379227,101.172296 L47.4133333,101.171963 L47.4123568,100.544767 Z" id="形状结合" fill="#A1A7B3" opacity="0.100000001"></path>
                <path d="M9.51043339,55.2499105 C10.8146265,55.8858806 11.8660154,56.5478 12.6657777,57.2341515 C12.8586563,57.3996789 13.1991799,57.4199387 13.4263585,57.2794031 C13.653537,57.1388675 13.6813426,56.8907544 13.4884641,56.7252271 C12.6200122,55.9799266 11.49369,55.2708317 10.1106748,54.5964252 C9.86300873,54.4756545 9.52786708,54.5240382 9.36211498,54.7044932 C9.19636289,54.8849482 9.2627673,55.1291398 9.51043339,55.2499105 Z M14.011222,60.7257144 C14.2172455,61.7291281 14.0972825,62.7852617 13.6458502,63.9007854 C13.5552882,64.124571 13.6830399,64.3721914 13.9311915,64.4538611 C14.1793432,64.5355308 14.4539248,64.4203231 14.5444868,64.1965375 C15.0525766,62.9410087 15.1901894,61.7294891 14.9518427,60.5686488 C14.9037478,60.334408 14.654194,60.1796786 14.3944488,60.2230511 C14.1347036,60.2664236 13.9631271,60.4914736 14.011222,60.7257144 Z M11.0947804,67.5950452 L10.3173352,69.0334377 L9.87118833,69.8737398 L9.52628296,70.538037 L9.31285715,70.9581387 C9.19553898,71.1913008 9.33265137,71.4577276 9.61910624,71.5532196 C9.90556112,71.6487116 10.2328838,71.5371079 10.350202,71.3039458 L10.5611102,70.888808 L10.9024463,70.2314083 L11.4730331,69.1594732 L12.1202082,67.9636493 C12.2452604,67.7331658 12.1170854,67.4638072 11.8339214,67.36202 C11.5507573,67.2602328 11.2198326,67.3645617 11.0947804,67.5950452 Z M8.38336714,74.7406623 C7.96267621,76.1182161 7.77101067,77.2890585 7.83402621,78.2901395 C7.84895408,78.5272875 8.06336285,78.7080343 8.31292159,78.6938488 C8.56248034,78.6796633 8.75268624,78.4759172 8.73775837,78.2387692 C8.68186678,77.3508612 8.85854777,76.2715562 9.25284215,74.9804379 C9.32251947,74.7522793 9.18436549,74.5136446 8.9442666,74.4474324 C8.7041677,74.3812202 8.45304446,74.5125037 8.38336714,74.7406623 Z M9.435334,81.0600609 C10.3886414,81.9913576 11.5972426,82.6198437 13.0532627,82.9486184 C13.3087403,83.0063062 13.5569374,82.8173699 13.6076264,82.5266174 C13.6583153,82.2358649 13.4923013,81.9533983 13.2368237,81.8957105 C11.9331492,81.6013359 10.8733914,81.0502501 10.0496751,80.2455524 C9.85204276,80.0524831 9.55430511,80.0783035 9.38465949,80.3032238 C9.21501387,80.5281441 9.23770162,80.8669916 9.435334,81.0600609 Z M18.4292508,82.9579938 C19.5119926,82.8843323 20.6884037,82.7110048 21.9588985,82.4383526 C22.1958186,82.3875088 22.3482058,82.1467628 22.2992648,81.9006315 C22.2503237,81.6545001 22.0185875,81.4961883 21.7816674,81.5470321 C20.5491116,81.8115425 19.4124185,81.979018 18.3720023,82.0498001 C18.1305971,82.0662234 17.9477151,82.2828433 17.9635238,82.5336341 C17.9793326,82.7844249 18.1878457,82.9744172 18.4292508,82.9579938 Z M25.7877208,82.9326779 C26.8881487,82.4773966 28.0429624,81.9461067 29.2522458,81.338832 C29.4875003,81.2206925 29.609368,80.8596162 29.5244449,80.5323454 C29.4395218,80.2050746 29.1799667,80.0355402 28.9447122,80.1536797 C27.751279,80.7529948 26.6128555,81.2767442 25.5295256,81.7249514 C25.2897902,81.8241374 25.1532451,82.1749023 25.2245437,82.5084068 C25.2958424,82.8419113 25.5479853,83.0318639 25.7877208,82.9326779 Z M33.0407165,78.6751428 C34.1830708,78.362371 35.3111795,78.1289504 36.4251446,77.9747095 C36.6678612,77.9411026 36.8302263,77.7580107 36.7877972,77.5657621 C36.745368,77.3735135 36.5142117,77.244909 36.2714951,77.2785158 C35.1099169,77.4393493 33.9357861,77.6822924 32.7492047,78.0071735 C32.5163281,78.0709342 32.3928014,78.2721524 32.4733001,78.456607 C32.5537989,78.6410617 32.8078399,78.7389035 33.0407165,78.6751428 Z M40.1220251,78.2469765 C41.2654199,78.2662016 42.3936839,78.4116183 43.507255,78.6832683 C43.7429435,78.7407632 43.9758226,78.5744087 44.0274051,78.3117049 C44.0789875,78.0490011 43.9297401,77.7894288 43.6940516,77.7319338 C42.5233815,77.4463548 41.3369529,77.2934415 40.1352034,77.2732353 C39.8939637,77.2691791 39.6954503,77.4838703 39.6918112,77.7527615 C39.6881721,78.0216527 39.8807855,78.2429203 40.1220251,78.2469765 Z M47.2252589,79.6397436 C48.3439652,80.1334535 49.4493622,80.7399257 50.541525,81.4594351 C50.7645575,81.6063674 51.0614132,81.5399086 51.2045707,81.3109951 C51.3477282,81.0820816 51.2829767,80.7773984 51.0599442,80.6304661 C49.9241202,79.882193 48.772237,79.2502162 47.6043695,78.7348104 C47.3608989,78.6273615 47.0786603,78.7428331 46.9739718,78.9927235 C46.8692833,79.2426139 46.9817884,79.5322947 47.2252589,79.6397436 Z M54.3744205,83.9602699 C55.4491045,84.8908479 56.5121345,85.9196745 57.5634237,87.046837 C57.7754308,87.2741451 58.1279159,87.2830756 58.3507211,87.0667838 C58.5735263,86.8504921 58.5822799,86.4908835 58.3702728,86.2635754 C57.292239,85.1077382 56.2005522,84.0511767 55.0951253,83.0939781 C54.8606442,82.890939 54.5092244,82.9202692 54.3102073,83.1594891 C54.1111902,83.398709 54.1399394,83.7572307 54.3744205,83.9602699 Z M58.6774777,89.5896022 C59.7281594,90.696015 60.8106952,91.7537715 61.9250742,92.7628435 C62.155357,92.971365 62.5122608,92.9550209 62.7222411,92.726338 C62.9322214,92.4976552 62.915763,92.143231 62.6854802,91.9347096 C61.5921434,90.9446913 60.5298324,89.9066967 59.4985363,88.8206976 C59.2847237,88.5955438 58.9275941,88.5851457 58.700865,88.7974728 C58.4741359,89.0097999 58.4636651,89.3644483 58.6774777,89.5896022 Z M64.5155235,95.0951974 C65.6047317,95.8033272 66.7238999,96.4727403 67.8730033,97.1034187 C68.1088525,97.2328631 68.4254929,97.1778665 68.5802394,96.9805802 C68.7349859,96.7832939 68.6692392,96.5184264 68.43339,96.3889819 C67.3070931,95.7708207 66.2101011,95.1146719 65.1423894,94.4205177 C64.9196648,94.2757172 64.5987821,94.3093654 64.4256778,94.495673 C64.2525736,94.6819807 64.2927988,94.9503969 64.5155235,95.0951974 Z M71.8079908,98.133878 C72.9241744,98.7923222 74.0677651,99.4048549 75.2387346,99.9714687 C75.4776705,100.087086 75.7582504,99.9718628 75.8654275,99.7141105 C75.9726045,99.4563581 75.8657928,99.1536822 75.6268569,99.0380649 C74.4785561,98.4824201 73.3572757,97.8818373 72.2629878,97.2363095 C72.0332251,97.1007709 71.7451112,97.1918228 71.6194672,97.4396795 C71.4938233,97.6875362 71.5782282,97.9983394 71.8079908,98.133878 Z M79.1030256,102.059869 C80.2362591,102.349491 81.3940311,102.611968 82.5763208,102.847303 C82.8165052,102.895112 83.0658421,102.795733 83.1332304,102.625333 C83.2006187,102.454933 83.0605398,102.27804 82.8203554,102.230231 C81.6589077,101.999044 80.5218603,101.741266 79.4091924,101.4569 C79.1744974,101.396919 78.9157016,101.483274 78.831156,101.649779 C78.7466104,101.816285 78.8683306,101.999888 79.1030256,102.059869 Z M86.3975504,103.69082 C87.5402464,103.918374 88.7046244,104.113571 89.8906741,104.276421 C90.1311408,104.309438 90.3541008,104.150014 90.3886691,103.920338 C90.4232374,103.690662 90.2563238,103.477707 90.0158571,103.44469 C88.8479105,103.284326 87.701666,103.092168 86.577113,102.868228 C86.3392884,102.820868 86.106297,102.966619 86.0567121,103.193771 C86.0071273,103.420924 86.1597258,103.64346 86.3975504,103.69082 Z" id="路径-24" fill="#A1A7B3" opacity="0.200000003" transform="translate(49.107742, 79.405355) scale(-1, 1) rotate(-5.000000) translate(-49.107742, -79.405355) "></path>
                <polygon id="路径-26" fill="#A1A7B3" opacity="0.200000003" points="52.6847485 96.187213 66.7925926 96.187213 63.8775548 90.4603729 62.4118092 93.702349 60.8822866 89.7255 60.1869565 94.135589 57.7247817 90.9518773 58.2388099 95.0790762 50.8 90.9518773 53.9048798 94.135589"></polygon>
                <g id="mailbox">
                    <path d="M6.3362262,5.86084236 C9.29009898,2.67407445 13.255676,0.720460335 18.2329573,8.69015082e-12 L78.9903206,8.69015082e-12 C84.9435145,0.107364678 89.4972762,1.4348194 92.6516056,3.98236416 C92.7014906,4.02265295 97.0143368,7.38133853 98.835931,11.8289947 C100.050327,14.7940988 100.770992,17.5604044 100.997926,20.1279114 L100.997926,51.1767667 L5.07638265,51.1767667 L5.07638265,51.1767667 C2.74975464,51.1767667 0,49.9305082 0,46.5247897 L0,20.1279114 L0,20.1279114 C-1.2678214e-10,14.4976797 1.90541704,10.6409942 6.3362262,5.86084236 Z" id="形状结合" fill="#A1A7B3" opacity="0.2"></path>
                    <path d="M47.4133333,51.1767667 L47.4123568,99.3497667 L43.7011436,102.417249 L42.8658718,92.9563565 L39.8873568,99.8397667 L39.8874074,51.1767667 L47.4133333,51.1767667 Z M47.4123568,100.544767 L47.4133333,101.171963 L47.3379227,101.172296 C47.2588207,101.363304 47.1196119,101.5436 46.9304057,101.708223 L47.4123568,100.544767 Z" id="形状结合" fill="#A1A7B3" opacity="0.200000003"></path>
                    <mask id="mask-2" fill="white">
                        <use xlink:href="#path-1"></use>
                    </mask>
                    <use id="形状结合" fill="#A1A7B3" opacity="0.400000006" xlink:href="#path-1"></use>
                    <path d="M57.9496296,51.1767667 L113.415704,51.1767667 C113.415704,54.3172275 110.869857,56.8630741 107.729396,56.8630741 L63.635937,56.8630741 C60.4954762,56.8630741 57.9496296,54.3172275 57.9496296,51.1767667 L57.9496296,51.1767667 L57.9496296,51.1767667 Z" id="矩形" fill="#A1A7B3" opacity="0.400000006"></path>
                    <path d="M61.9224442,36.3379339 C66.1816301,38.796976 72.5075114,39.683174 80.9000882,38.9965279 L76.0568705,47.3857084 C74.688282,49.7561733 71.6571803,50.5683545 69.2867154,49.199766 L57.9492223,42.6533 L57.9490107,33.1952237 C59.2358963,34.5039723 60.5603742,35.5515424 61.9224442,36.3379339 Z" id="形状结合" fill="#FFFFFF" opacity="0.400000006"></path>
                    <path d="M58.6841288,16.1747775 L80.9925585,29.0541387 C83.3630234,30.4227273 84.1752047,33.453829 82.8066161,35.8242939 L80.974848,38.9965279 C72.5822712,39.683174 66.2563899,38.796976 61.997204,36.3379339 C60.6086486,35.5362511 59.2591616,34.4631337 57.9487429,33.1185819 L57.9496296,20.7753898 L57.9496296,20.7753898 C57.9496296,19.8113655 58.1475695,18.1507683 58.6841288,16.1747775 Z" id="形状结合" fill="#FFFFFF" opacity="0.200000003"></path>
                </g>
                <path d="M18.8741788,78.4768624 C17.4847031,80.4963806 16.4631396,81.7100148 15.8094884,82.117765 C13.9528819,83.2759233 12.278454,83.5359865 11.1433359,83.5359865 C8.5414721,83.5359865 13.9039124,82.9371764 15.8094884,80.9088696 C17.0798723,79.5566651 18.5833762,77.5107919 20.32,74.77125 L18.8741788,74.77125 L17.2768126,76.684599 C16.7776896,76.081622 16.1322289,75.7801335 15.3404305,75.7801335 C14.1527329,75.7801335 11.0849706,76.2772218 9.90998488,79.4793729 C9.12666107,81.6141403 7.51666611,83.4933369 5.08,85.1169628 C8.60057397,86.8307902 12.0207175,86.8307902 15.3404305,85.1169628 C18.6601435,83.4031355 19.8380596,81.1897687 18.8741788,78.4768624 Z" id="路径-14" fill="#A1A7B3" opacity="0.200000003"></path>
                <path d="M33.0125264,66.9261601 C32.2610197,68.0913619 31.7072734,68.7907871 31.3512875,69.0244358 C30.3401586,69.6880826 29.4246957,69.8316739 28.8032926,69.8267726 C27.3789419,69.815538 30.3118178,69.491418 31.3458159,68.3233478 C32.035148,67.5446343 32.8489584,66.3646406 33.787247,64.7833665 L32.9957543,64.7771236 L32.1299606,65.8798558 C31.8539941,65.5280096 31.4992819,65.350377 31.065824,65.3469581 C30.415637,65.3418297 28.7384872,65.6168653 28.1097525,67.4688505 C27.6905961,68.7035074 26.8177344,69.7863787 25.4911674,70.7174647 C27.426209,71.7265849 29.2985144,71.7413527 31.1080837,70.7617682 C32.917653,69.7821837 33.5524672,68.5036476 33.0125264,66.9261601 Z" id="路径-14备份" fill="#A1A7B3" opacity="0.200000003" transform="translate(29.639207, 68.131334) rotate(-62.000000) translate(-29.639207, -68.131334) "></path>
                <path d="M19.2904177,34.1818833 C18.3762316,35.6540993 17.704741,36.5392297 17.2759461,36.8372746 C16.058013,37.68383 14.9614199,37.8766113 14.2184356,37.8790377 C12.5154024,37.8845995 16.0267509,37.4374886 17.2787677,35.9577755 C18.1134455,34.9713001 19.1023296,33.4796665 20.2454199,31.4828747 L19.2990669,31.4859653 L18.2490551,32.8813851 C17.9237648,32.4437725 17.5019863,32.2258124 16.9837197,32.227505 C16.2063199,32.2300439 14.1971755,32.5982448 13.4206221,34.9303948 C12.9029198,36.4851614 11.8447217,37.8557616 10.2460279,39.0421954 C12.5463968,40.2815184 14.7850298,40.2742074 16.9619269,39.0202624 C19.1388239,37.7663174 19.9149875,36.1535244 19.2904177,34.1818833 Z" id="路径-14备份-2" fill="#A1A7B3" opacity="0.200000003" transform="translate(15.245724, 35.724556) rotate(80.000000) translate(-15.245724, -35.724556) "></path>
                <polygon id="路径-23" fill="#A1A7B3" opacity="0.400000006" points="26.3004102 104.717341 45.6793665 104.717341 48.1690928 98.7248416 43.7011436 102.417249 42.8658718 92.9563565 38.9748751 101.948036 35.6500045 95.969058 34.7616292 102.417249 32.5489592 100.101832 30.4759304 102.417249 27.9669822 95.969058"></polygon>
                <g id="fly" transform="translate(99.975309, 45.585343) scale(-1, 1) translate(-99.975309, -45.585343) translate(86.539207, 35.084722)">
                    <polygon id="路径-5" fill="#BCC1C9" points="0 1.1434409e-13 13.4361021 21.0012432 14.2884187 17.0165353"></polygon>
                    <polygon id="路径-3" fill="#ECEDF0" points="0 0 4.26135344 19.7322035 14.2884187 17.0165353"></polygon>
                    <polygon id="路径-4" fill="#ECEDF0" points="0 0 18.842827 15.263408 26.8722041 12.8301241"></polygon>
                    <polygon id="路径-7" fill="#DFE1E7" points="-6.68871334e-15 0 14.2884187 17.0165353 13.4361021 21.0012432 18.842827 15.263408"></polygon>
                    <path d="M15.1582522,19.1685165 L13.4361021,21.0012432 L14.2884187,17.0165353 L0.0420387777,0.0479185867 C0.727406074,0.788197367 1.09798638,1.18914156 1.1537797,1.25075117 C1.20957303,1.31236079 6.10825333,6.370231 15.8498206,16.4243618 L15.1582522,19.1685165 Z" id="路径-2" fill-opacity="0.5" fill="#C3C8CF"></path>
                </g>
            </g>
        </g>
    </g>
</svg>