<?xml version="1.0" encoding="utf-8"?>
<!-- Generator: Adobe Illustrator 19.0.0, SVG Export Plug-In . SVG Version: 6.00 Build 0)  -->
<svg version="1.1" id="图层_1" xmlns="http://www.w3.org/2000/svg" xmlns:xlink="http://www.w3.org/1999/xlink" x="0px" y="0px"
	 viewBox="0 0 96 96" style="enable-background:new 0 0 96 96;" xml:space="preserve">
<path id="path-1_1_" d="M36.5,61.5l23-22.7c1.2-1.2,3.1-1.2,4.2,0c1.2,1.2,1.2,3.1,0,4.2L38.6,67.7c-1.2,1.2-3,1.2-4.2,0L21.9,55.3
	c-1.2-1.2-1.2-3.1,0-4.2c1.2-1.2,3.1-1.2,4.2,0L36.5,61.5z M20,24c-3.3,0-6,2.7-6,6v46c0,3.3,2.7,6,6,6h46c3.3,0,6-2.7,6-6V30
	c0-3.3-2.7-6-6-6H20z M20,18h46c6.6,0,12,5.4,12,12v46c0,6.6-5.4,12-12,12H20c-6.6,0-12-5.4-12-12V30C8,23.4,13.4,18,20,18z
	 M21.6,14c2.1-3.6,6-6,10.4-6h44c6.6,0,12,5.4,12,12v44c0,4.4-2.4,8.3-6,10.4V26v-6c0-3.3-2.7-6-6-6h-6H21.6z"/>
</svg>
