<?xml version="1.0" standalone="no"?><!DOCTYPE svg PUBLIC "-//W3C//DTD SVG 1.1//EN" "http://www.w3.org/Graphics/SVG/1.1/DTD/svg11.dtd">
<svg t="1614136371366"
     class="icon"
     viewBox="0 0 1024 1024"
     version="1.1"
     xmlns="http://www.w3.org/2000/svg"
     p-id="29774"
     xmlns:xlink="http://www.w3.org/1999/xlink">
    <defs>
        <style type="text/css"></style>
    </defs>
    <path
        d="M512 924.038095c-226.742857 0-412.038095-185.295238-412.038095-412.038095S285.257143 99.961905 512 99.961905 924.038095 285.257143 924.038095 512 738.742857 924.038095 512 924.038095zM551.009524 292.571429c0-21.942857-17.066667-39.009524-39.009524-39.009524s-39.009524 17.066667-39.009524 39.009524v282.819047c0 21.942857 17.066667 39.009524 39.009524 39.009524s39.009524-17.066667 39.009524-39.009524V292.571429zM512 692.419048c-21.942857 0-39.009524 17.066667-39.009524 39.009523s17.066667 39.009524 39.009524 39.009524 39.009524-17.066667 39.009524-39.009524-17.066667-39.009524-39.009524-39.009523z"
        fill="#FA2A2D"
        p-id="29775"></path>
</svg>