<?xml version="1.0" standalone="no"?><!DOCTYPE svg PUBLIC "-//W3C//DTD SVG 1.1//EN" "http://www.w3.org/Graphics/SVG/1.1/DTD/svg11.dtd">
<svg t="1614067930418"
     class="icon"
     viewBox="0 0 1024 1024"
     version="1.1"
     xmlns="http://www.w3.org/2000/svg"
     p-id="5522"
     width="48"
     height="48">
    <defs>
        <style type="text/css"></style>
    </defs>
    <path
        d="M512 243.2c49.664 0 89.6-39.936 89.6-89.6s-39.936-89.6-89.6-89.6S422.4 103.936 422.4 153.6s39.936 89.6 89.6 89.6z m0 179.2c-49.664 0-89.6 39.936-89.6 89.6s39.936 89.6 89.6 89.6 89.6-39.936 89.6-89.6-39.936-89.6-89.6-89.6z m0 358.4c-49.664 0-89.6 39.936-89.6 89.6s39.936 89.6 89.6 89.6 89.6-39.936 89.6-89.6c0-49.152-39.936-89.6-89.6-89.6z"
        p-id="5523"></path>
</svg>