<?xml version="1.0" encoding="UTF-8"?>
<svg viewBox="0 0 88 88"
     version="1.1"
     xmlns="http://www.w3.org/2000/svg"
     xmlns:xlink="http://www.w3.org/1999/xlink">
    <!-- Generator: Sketch 64 (93537) - https://sketch.com -->
    <title>Card</title>
    <desc>Created with Sketch.</desc>
    <defs>
        <path
            d="M9,0 L36,0 L36,0 L54,18 L54,57 C54,61.9705627 49.9705627,66 45,66 L9,66 C4.02943725,66 -2.9439953e-15,61.9705627 0,57 L0,9 C-6.08718376e-16,4.02943725 4.02943725,9.13077564e-16 9,0 Z"
            id="path-1"></path>
        <path
            d="M9,0 L36,0 L36,0 L54,18 L54,57 C54,61.9705627 49.9705627,66 45,66 L9,66 C4.02943725,66 -2.9439953e-15,61.9705627 0,57 L0,9 C-6.08718376e-16,4.02943725 4.02943725,9.13077564e-16 9,0 Z"
            id="path-3"></path>
    </defs>
    <g
        id="port"
        stroke="none"
        stroke-width="1"
        fill="none"
        fill-rule="evenodd">
        <g
            id="message_new_no_receiver"
            transform="translate(-304.000000, -2900.000000)">
            <g
                id="Bars/Light/Textfield/With-bg/filled/Basic+icon_normal备份"
                transform="translate(0.000000, 2832.000000)">
                <g
                    id="Bars/Light/Textfield/items/box/gray/normal"
                    transform="translate(256.000000, 40.000000)">
                    <g
                        id="Card"
                        transform="translate(48.000000, 28.000000)">
                        <g
                            id="ic/sd/ic_sd-copy"
                            transform="translate(34.000000, 22.000000)">
                            <g id="sd">
                                <g id="color/light/#000000">
                                    <mask
                                        id="mask-2"
                                        fill="white">
                                        <use xlink:href="#path-1"></use>
                                    </mask>
                                    <use
                                        id="Mask"
                                        fill="#FFFFFF"
                                        xlink:href="#path-1"></use>
                                    <g
                                        opacity="0.38"
                                        mask="url(#mask-2)"
                                        fill="#000000"
                                        id="color/#000000">
                                        <g transform="translate(-9.000000, -3.000000)">
                                            <rect
                                                x="0"
                                                y="0"
                                                width="120"
                                                height="120"></rect>
                                        </g>
                                    </g>
                                </g>
                                <path
                                    d="M38.6305549,49.573245 L38.6305549,52.6023455 C38.6305549,53.4307726 37.9589821,54.1023455 37.1305549,54.1023455 L16.9042266,54.1023455 C16.0757994,54.1023455 15.4042266,53.4307726 15.4042266,52.6023455 L15.4042266,49.3461947 L15.4042266,49.3461947 C15.4042266,48.9065877 15.5212136,48.5298651 15.7615978,48.2208113 C18.8103069,44.3141854 23.3833707,38.4542467 29.4807891,30.640995 C31.0328203,28.690695 32.0089922,26.801445 32.0089922,24.494745 C32.0089922,21.481845 30.1124297,19.176795 26.8377422,19.176795 C23.8193764,19.176795 22.0511178,21.0212831 21.587357,23.9520354 C21.5856909,23.9625645 21.5826526,23.981228 21.5782421,24.0080259 L21.5782313,24.0080242 C21.5109644,24.4167332 21.1251097,24.6935267 20.7164007,24.6262598 C20.709228,24.6250793 20.7020729,24.6237946 20.6949375,24.622406 C20.6176986,24.6073753 20.564937,24.5968824 20.5366528,24.5909274 C19.5592475,24.3851407 18.1218702,24.0825097 16.2245209,23.6830344 C16.1907643,23.6759271 16.1182222,23.6605704 16.0068947,23.6369643 L16.0068932,23.6369715 C15.6319842,23.557475 15.3773183,23.2081187 15.4163623,22.8268682 C15.42886,22.7048318 15.4371502,22.628964 15.4412328,22.5992648 C16.0780394,17.9667774 19.7526876,13.266495 27.0083672,13.266495 C34.3058672,13.266495 38.5009453,18.231345 38.5009453,24.494745 C38.5009453,28.098345 37.1211797,31.053495 34.8226641,33.891495 L23.3514141,47.954445 L23.3514141,48.073245 L37.1305549,48.073245 C37.9589821,48.073245 38.6305549,48.7448179 38.6305549,49.573245 Z"
                                    id="路径"
                                    fill="#FFFFFF"></path>
                            </g>
                        </g>
                        <g id="ic/sd/ic_sd-copy-1">
                            <g id="sd">
                                <g id="color/light/#000000">
                                    <mask
                                        id="mask-4"
                                        fill="white">
                                        <use xlink:href="#path-3"></use>
                                    </mask>
                                    <use
                                        id="Mask"
                                        fill="#47CC47"
                                        xlink:href="#path-3"></use>
                                </g>
                                <path
                                    d="M29.5694497,54.8859318 L25.8304749,54.8859318 C25.0020478,54.8859318 24.3304749,54.214359 24.3304749,53.3859318 L24.3304749,21.8090674 C24.3304749,21.6019606 24.1625817,21.4340674 23.9554749,21.4340674 C23.9000059,21.4340674 23.8452277,21.4463728 23.7950881,21.4700968 L17.0067895,24.6820379 C16.6323729,24.8591962 16.185233,24.6992869 16.0080746,24.3248703 C15.9606267,24.2245911 15.9360158,24.1150346 15.9360158,24.0040967 L15.9360158,18.5409631 C15.9360158,18.0165579 16.2098787,17.5302265 16.6582912,17.2583313 L23.3216748,13.2179843 C23.7906693,12.9336092 24.328649,12.7832479 24.8771241,12.7832479 L29.5423106,12.7832479 C30.3703601,12.7842151 31.0417765,13.4551988 31.0432775,14.2832476 L31.0684828,53.3859322 C31.0699834,54.2143585 30.3988435,54.8863641 29.5704166,54.8868981 C29.5700943,54.8868983 29.569772,54.8868984 29.5694497,54.8859318 Z"
                                    id="Fill-1"
                                    fill="#FFFFFF"></path>
                            </g>
                        </g>
                    </g>
                </g>
            </g>
        </g>
    </g>
</svg>