<?xml version="1.0" encoding="UTF-8"?>
<svg width="24px" height="24px" viewBox="0 0 24 24" version="1.1" xmlns="http://www.w3.org/2000/svg" xmlns:xlink="http://www.w3.org/1999/xlink">
    <title>icon_mms_sim_2</title>
    <g id="icon_mms_sim_2" stroke="none" stroke-width="1" fill="none" fill-rule="evenodd">
        <rect id="矩形" x="0" y="0" width="24" height="24"></rect>
        <path d="M14.4644661,1 C15.1275073,1 15.7633921,1.2633921 16.232233,1.73223305 L20.267767,5.76776695 C20.7366079,6.2366079 21,6.87249268 21,7.53553391 L21,19 C21,21.209139 19.209139,23 17,23 L7,23 C4.790861,23 3,21.209139 3,19 L3,5 C3,2.790861 4.790861,1 7,1 L14.4644661,1 Z M11.564,7.456 C10.852,7.456 10.224,7.646 9.68,8.026 C9.19644444,8.36377778 8.84562963,8.83271605 8.62755556,9.43281481 L8.552,9.664 L9.92,10.456 C10.056,10.008 10.252,9.662 10.508,9.418 C10.764,9.174 11.06,9.052 11.396,9.052 C11.724,9.052 11.984,9.156 12.176,9.364 C12.368,9.572 12.464,9.848 12.464,10.192 C12.464,10.504 12.374,10.806 12.194,11.098 C12.0365,11.3535 11.7733438,11.6932187 11.4045313,12.1171562 L11.24,12.304 L8.588,15.28 L8.588,16.408 L14.648,16.408 L14.648,14.884 L11.132,14.884 L12.632,13.216 C13.256,12.52 13.69,11.954 13.934,11.518 C14.178,11.082 14.3,10.612 14.3,10.108 C14.3,9.596 14.19,9.14 13.97,8.74 C13.75,8.34 13.434,8.026 13.022,7.798 C12.61,7.57 12.124,7.456 11.564,7.456 Z" id="形状结合" fill="#000000" fill-rule="nonzero"></path>
    </g>
</svg>