<?xml version="1.0" standalone="no"?><!DOCTYPE svg PUBLIC "-//W3C//DTD SVG 1.1//EN" "http://www.w3.org/Graphics/SVG/1.1/DTD/svg11.dtd"><svg t="1614068335060" class="icon" viewBox="0 0 1024 1024" version="1.1" xmlns="http://www.w3.org/2000/svg" p-id="1884" xmlns:xlink="http://www.w3.org/1999/xlink" width="48" height="48"><defs><style type="text/css"></style></defs><path d="M512 0a512 512 0 1 0 0 1024A512 512 0 0 0 512 0m0 76.8c240 0 435.2 195.2 435.2 435.2s-195.2 435.2-435.2 435.2S76.8 752 76.8 512 272 76.8 512 76.8m0 712.96a302.656 302.656 0 0 1-284.16-196.16 38.336 38.336 0 1 1 71.68-27.52A226.56 226.56 0 0 0 512 712.96a226.56 226.56 0 0 0 212.544-146.944 38.4 38.4 0 1 1 71.68 27.52 302.592 302.592 0 0 1-284.16 196.16m240.192-384a53.312 53.312 0 1 1-106.688 0 53.312 53.312 0 0 1 106.688 0m-373.824-0.832a53.312 53.312 0 1 1-106.624 0 53.312 53.312 0 0 1 106.624 0" p-id="1885" fill="#2c2c2c"></path></svg>