<?xml version="1.0" encoding="UTF-8"?>
<svg width="80px" height="80px" viewBox="0 0 160 160" version="1.1" xmlns="http://www.w3.org/2000/svg" xmlns:xlink="http://www.w3.org/1999/xlink">
    <title>mark as read</title>
    <defs>
        <circle id="path-1" cx="80" cy="80" r="80"></circle>
        <path d="M36.6666667,0 C56.9171075,0 73.3333333,14.7746033 73.3333333,33 C73.3333333,51.2253967 56.9171075,66 36.6666667,66 C34.9673604,66 33.2950534,65.8959624 31.6571802,65.6945785 C30.5704366,65.5743643 29.5118621,65.58398 28.4812728,65.7207899 C27.3727716,65.8679424 26.4162141,66.1476268 25.6116001,66.559843 L25.6116001,66.559843 L25.3968953,66.6727225 C24.0366523,67.3834211 22.5975765,68.1133257 21.0796676,68.8624362 C18.1416966,70.3123686 15.0744572,71.4995388 11.8779496,72.4239469 C10.3952576,72.8527314 8.71077007,73.5334697 8.03414648,73.1538893 C7.35752288,72.774309 8.41432929,71.7025751 8.8969314,70.8249737 C10.1208218,68.5993557 11.1245659,66.5514998 11.9081636,64.6814059 C12.3359466,63.6604813 12.7352487,62.6302122 13.1060699,61.5905988 C13.3521417,60.6126218 13.3770245,59.8229996 13.1799097,59.2219308 C12.9824524,58.6198174 12.5635674,57.9967148 11.9232546,57.352623 C4.59826565,51.3249761 0,42.6457802 0,33 C0,14.7746033 16.4162258,0 36.6666667,0 Z M52.7788111,21.4237103 L32.78,41.422 L23.7086309,32.350377 C22.6794367,31.3211828 21.0374273,31.2782997 19.9571652,32.2217277 L19.8195436,32.350377 C18.7903494,33.3795712 18.7474663,35.0215806 19.6908944,36.1018428 L19.8195436,36.2394643 L30.8386243,47.258545 C31.9125661,48.3324868 33.6537698,48.3324868 34.7277116,47.258545 C34.7575433,47.2287132 34.7865464,47.1983667 34.8147208,47.1675338 L56.6678984,25.3127976 C57.7418402,24.2388558 57.7418402,22.4976521 56.6678984,21.4237103 C55.5939566,20.3497685 53.8527529,20.3497685 52.7788111,21.4237103 Z" id="path-3"></path>
    </defs>
    <g id="port" stroke="none" stroke-width="1" fill="none" fill-rule="evenodd">
        <g id="message_list_-notifications" transform="translate(-992.000000, -1472.000000)">
            <g id="mark-as-read" transform="translate(992.000000, 1472.000000)">
                <g id="color/backplane/#636363">
                    <mask id="mask-2" fill="white">
                        <use xlink:href="#path-1"></use>
                    </mask>
                    <use id="Mask" fill="#00AAEE" xlink:href="#path-1"></use>
                </g>
                <g id="color/light/#000000" transform="translate(43.333333, 43.333333)">
                    <mask id="mask-4" fill="white">
                        <use xlink:href="#path-3"></use>
                    </mask>
                    <use id="Mask" fill="#FFFFFF" xlink:href="#path-3"></use>
                </g>
            </g>
        </g>
    </g>
</svg>