<?xml version="1.0" standalone="no"?><!DOCTYPE svg PUBLIC "-//W3C//DTD SVG 1.1//EN" "http://www.w3.org/Graphics/SVG/1.1/DTD/svg11.dtd">
<svg t="1636944053381"
     class="icon"
     viewBox="0 0 1024 1024"
     version="1.1"
     xmlns="http://www.w3.org/2000/svg"
     p-id="16582"
     xmlns:xlink="http://www.w3.org/1999/xlink"
     >
    <defs>
        <style type="text/css"></style>
    </defs>
    <path
        d="M136.534213 460.564739v486.847724a25.599986 25.599986 0 0 0 25.641985 25.385986H853.289807c14.335992 0 25.642985-11.305994 25.642985-25.364986V460.585739a25.599986 25.599986 0 0 0-25.642985-25.364986H162.176198c-14.335992 0-25.641985 11.306994-25.641985 25.364986z m-51.199971 0A76.543957 76.543957 0 0 1 162.176198 383.999783H853.289807a76.799957 76.799957 0 0 1 76.842956 76.564956v486.847724a76.543957 76.543957 0 0 1-76.842956 76.585957H162.176198a76.799957 76.799957 0 0 1-76.841956-76.564957V460.585739z"
        p-id="16583"></path>
    <path
        d="M290.133126 217.599877c0-91.732948 74.602958-166.399906 166.421905-166.399906h89.57795a166.442906 166.442906 0 0 1 166.421905 166.399906v91.519948s7.081996 17.55699 27.219985 17.55699c20.159989 0 23.979986-17.53599 23.979986-17.53599V217.599877C763.732857 97.429945 666.239913 0 546.111981 0h-89.57895c-120.169932 0-217.599877 97.663945-217.599876 217.599877v191.999891l51.199971-9.813994V217.599877z m0 0c0-91.732948 74.602958-166.399906 166.421905-166.399906h89.57795a166.442906 166.442906 0 0 1 166.421905 166.399906v91.519948h51.199971V217.599877C763.732857 97.429945 666.239913 0 546.111981 0h-89.57895c-120.169932 0-217.599877 97.663945-217.599876 217.599877v191.999891l51.199971-9.813994V217.599877zM495.830009 576.831673v241.129864a25.599986 25.599986 0 1 0 51.199971 0v-241.129864a25.599986 25.599986 0 1 0-51.199971 0z"
        p-id="16584"></path>
</svg>