<?xml version="1.0" encoding="UTF-8"?>
<svg viewBox="0 0 160 160"
     version="1.1"
     xmlns="http://www.w3.org/2000/svg"
     xmlns:xlink="http://www.w3.org/1999/xlink">
    <title>mark as read copy</title>
    <defs>
        <circle
            id="path-1"
            cx="80"
            cy="80"
            r="80"></circle>
        <path
            d="M65.7945672,16.3089519 L61.6613061,67.5361569 C61.3819152,70.9988988 58.4902292,73.6666667 55.0162343,73.6666667 L18.9951565,73.6666667 C15.5164358,73.6666667 12.6224819,70.9918619 12.349107,67.5238995 L8.31189916,16.3089519 L65.7945672,16.3089519 Z M44.5,27 C43.1192881,27 42,28.1192881 42,29.5 L42,29.5 L42,59.5 C42,60.8807119 43.1192881,62 44.5,62 C45.8807119,62 47,60.8807119 47,59.5 L47,59.5 L47,29.5 C47,28.1192881 45.8807119,27 44.5,27 Z M29.5,27 C28.1192881,27 27,28.1192881 27,29.5 L27,29.5 L27,59.5 C27,60.8807119 28.1192881,62 29.5,62 C30.8807119,62 32,60.8807119 32,59.5 L32,59.5 L32,29.5 C32,28.1192881 30.8807119,27 29.5,27 Z M46.625305,0.333333333 C48.1548638,0.333333333 49.4881408,1.37432458 49.8591133,2.85821458 L50.8945597,7 L70.75,7 C72.3608305,7 73.6666667,8.30583615 73.6666667,9.91666667 C73.6666667,11.5274972 72.3608305,12.8333333 70.75,12.8333333 L3.25,12.8333333 C1.63916948,12.8333333 0.333333333,11.5274972 0.333333333,9.91666667 C0.333333333,8.30583615 1.63916948,7 3.25,7 L24.1225259,7 L25.1579722,2.85821458 C25.5289447,1.37432458 26.8622218,0.333333333 28.3917806,0.333333333 L46.625305,0.333333333 Z"
            id="path-3"></path>
    </defs>
    <g
        id="port"
        stroke="none"
        stroke-width="1"
        fill="none"
        fill-rule="evenodd">
        <g
            id="message_list_-notifications"
            transform="translate(-1184.000000, -1472.000000)">
            <g
                id="mark-as-read-copy"
                transform="translate(1184.000000, 1472.000000)">
                <g id="color/backplane/#636363">
                    <mask
                        id="mask-2"
                        fill="white">
                        <use xlink:href="#path-1"></use>
                    </mask>
                    <use
                        id="Mask"
                        fill="#FA2A2D"
                        xlink:href="#path-1"></use>
                </g>
                <g
                    id="分组"
                    transform="translate(43.000000, 43.000000)">
                    <mask
                        id="mask-4"
                        fill="white">
                        <use xlink:href="#path-3"></use>
                    </mask>
                    <use
                        id="Combined-Shape"
                        fill="#FFFFFF"
                        fill-rule="nonzero"
                        xlink:href="#path-3"></use>
                </g>
            </g>
        </g>
    </g>
</svg>