<?xml version="1.0" encoding="UTF-8"?>
<svg width="24px" height="24px" viewBox="0 0 24 24" version="1.1" xmlns="http://www.w3.org/2000/svg" xmlns:xlink="http://www.w3.org/1999/xlink">
    <title>Public/ic_add_filled</title>
    <g id="Public/ic_add_filled" stroke="none" stroke-width="1" fill="none" fill-rule="evenodd">
        <g id="symbol/frame/symbol_grid24"></g>
        <g id="Group" transform="translate(2.000000, 2.000000)" fill="#000000" fill-rule="nonzero">
            <path d="M10,2.22044605e-13 C10.5522847,2.22044605e-13 11,0.44771525 11,1 L11,19 C11,19.5522847 10.5522847,20 10,20 C9.44771525,20 9,19.5522847 9,19 L9,11 L1,11 C0.44771525,11 2.23820962e-13,10.5522847 2.23820962e-13,10 C2.23820962e-13,9.44771525 0.44771525,9 1,9 L9,9 L9,1 C9,0.44771525 9.44771525,2.22044605e-13 10,2.22044605e-13 Z M19,9 C19.5522847,9 20,9.44771525 20,10 C20,10.5522847 19.5522847,11 19,11 L11.999,11 L11.999,9 L19,9 Z" id="Combined-Shape"></path>
        </g>
    </g>
</svg>