<?xml version="1.0" encoding="UTF-8"?>
<svg width="30px" height="30px" viewBox="0 0 30 30" version="1.1" xmlns="http://www.w3.org/2000/svg" xmlns:xlink="http://www.w3.org/1999/xlink">
    <title>ic_hangup_list</title>
    <defs>
        <rect id="path-1" x="0" y="0" width="30" height="30"></rect>
        <path d="M27.4299071,11.0275823 C28.8221439,11.8994724 29.6635772,13.4295392 29.6568661,15.0757549 C29.7133057,16.0500283 29.5758198,16.7813356 29.2444084,17.2696768 C28.7472914,18.0021887 27.8751429,18.3890934 26.9980904,18.2941097 L23.6898357,17.9475723 L23.6898357,17.9475723 L23.6266778,17.9425666 C22.5543955,17.8787494 21.714079,17.0120506 21.675955,15.946424 L21.6746039,15.8717628 L21.7254516,14.1261753 C21.7264841,13.4132797 21.2365944,12.7958844 20.5425408,12.6355992 C19.1923485,12.3205457 17.0998986,12.1677545 15.0000575,12.1860668 C12.9001014,12.1677545 10.8076515,12.3205457 9.45745922,12.6355992 C8.76340562,12.7958844 8.27351588,13.4132797 8.27454844,14.1261753 L8.32539611,15.8717628 L8.32404502,15.946424 C8.28695142,16.9832499 7.49044101,17.8317555 6.45974445,17.9356447 L5.89793067,17.9879298 L5.89793067,17.9879298 L3.00190965,18.2941097 L3.00190965,18.2941097 C2.12485713,18.3890934 1.25270859,18.0021887 0.75559158,17.2696768 C0.424180238,16.7813356 0.286694339,16.0500283 0.343133884,15.0757549 C0.336422775,13.4295392 1.17785607,11.8994724 2.57009292,11.0275823 C5.54093449,9.1768754 10.2811351,8.2155067 14.9999425,8.19149999 C19.7188649,8.2155067 24.4590655,9.1768754 27.4299071,11.0275823 Z" id="path-3"></path>
    </defs>
    <g id="ic_hangup_list" stroke="none" stroke-width="1" fill="none" fill-rule="evenodd">
        <mask id="mask-2" fill="none">
            <use xlink:href="#path-1"></use>
        </mask>
        <g id="矩形"></g>
        <mask id="mask-4" fill="none">
            <use xlink:href="#path-3"></use>
        </mask>
        <use id="路径" fill="#E84026" xlink:href="#path-3"></use>
    </g>
</svg>