<?xml version="1.0" encoding="UTF-8"?>
<svg width="24px" height="24px" viewBox="0 0 24 24" version="1.1" xmlns="http://www.w3.org/2000/svg" xmlns:xlink="http://www.w3.org/1999/xlink">
    <title>Public/ic_message</title>
    <g id="Public/ic_message" stroke="none" stroke-width="1" fill="none" fill-rule="evenodd">
        <g id="symbol/frame/symbol_grid24"></g>
        <g id="编组-2" transform="translate(1.000000, 3.000000)" fill="#000000" fill-rule="nonzero">
            <path d="M14.75,0 C18.7140238,0 21.9350055,3.18134145 21.9990287,7.13010799 L22,7.25 L22,7.5 C22,11.4640238 18.8186586,14.6850055 14.869892,14.7490287 L14.75,14.75 L12.8105,14.75 L8.78033009,18.7803301 C8.4991526,19.0615076 8.05026186,19.0727547 7.75566731,18.8140714 L7.71966991,18.7803301 C7.43849242,18.4991526 7.42724532,18.0502619 7.68592862,17.7556673 L7.71966991,17.7196699 L11.9696699,13.4696699 C12.0986012,13.3407387 12.2696414,13.2635976 12.4504659,13.2516361 L12.5,13.25 L14.75,13.25 C17.8938809,13.25 20.4484526,10.7268671 20.4992297,7.59508676 L20.5,7.5 L20.5,7.25 C20.5,4.10611906 17.9768671,1.55154738 14.8450868,1.50077034 L14.75,1.5 L7.25,1.5 C4.10611906,1.5 1.55154738,4.02313287 1.50077034,7.15491324 L1.5,7.25 L1.5,7.5 C1.5,10.6438809 4.02313287,13.1984526 7.15491324,13.2492297 L7.25,13.25 L8.25,13.25 C8.66421356,13.25 9,13.5857864 9,14 C9,14.3994202 8.68777001,14.7259152 8.2940682,14.7487268 L8.25,14.75 L7.25,14.75 C3.28597621,14.75 0.0649945242,11.5686586 0.000971292862,7.61989201 L0,7.5 L0,7.25 C0,3.28597621 3.18134145,0.0649945242 7.13010799,0.000971292862 L7.25,0 L14.75,0 Z" id="路径"></path>
        </g>
    </g>
</svg>