<?xml version="1.0" encoding="UTF-8"?>
<svg width="30px" height="30px" viewBox="0 0 30 30" version="1.1" xmlns="http://www.w3.org/2000/svg" xmlns:xlink="http://www.w3.org/1999/xlink">
    <title>ic_public_sound_高亮</title>
    <defs>
        <path d="M24.7583397,4.62005731 C27.4880527,7.35539822 29.0500491,11.0538273 29.0500491,14.9963557 C29.0500491,18.9288504 27.4960317,22.6186701 24.7786082,25.3523044 C24.2919067,25.8419093 23.500454,25.844263 23.0108491,25.3575615 C22.5212442,24.87086 22.5188905,24.0794072 23.005592,23.5898023 C25.2619924,21.3199414 26.5500491,18.261612 26.5500491,14.9963557 C26.5500491,11.7227771 25.2553716,8.65729437 22.9887533,6.38600287 C22.5011009,5.89734506 22.5019159,5.10588925 22.9905737,4.61823685 C23.4792315,4.13058445 24.2706873,4.1313995 24.7583397,4.62005731 Z M10.1205429,6.94784595 C10.9471181,6.32406403 12.1228649,6.48846048 12.7466468,7.3150357 C12.9921773,7.64038878 13.125,8.03689024 13.125,8.44449277 L13.125,8.44449277 L13.125,21.5555072 C13.125,22.5910411 12.2855339,23.4305072 11.25,23.4305072 C10.8423975,23.4305072 10.445896,23.2976845 10.1205424,23.0521537 L10.1205424,23.0521537 L5.24625,19.37375 L2.1875,19.375 C1.03978325,19.375 0.0985095754,18.4911122 0.00725149941,17.366909 L0.00725149941,17.366909 L0,17.1875 L0,12.8125 C0,11.6043771 0.97937711,10.625 2.18734431,10.625 L2.18734431,10.625 L5.24625,10.62375 Z M20.8339211,7.77971662 C22.7313542,9.68106167 23.817491,12.2527705 23.817491,14.9932527 C23.817491,17.726759 22.7369012,20.2924841 20.8480084,22.1926451 C20.3613069,22.68225 19.5698541,22.6846037 19.0802492,22.1979022 C18.5906443,21.7112007 18.5882906,20.9197479 19.0749921,20.430143 C20.5028619,18.9937553 21.317491,17.0595205 21.317491,14.9932527 C21.317491,12.9217202 20.4986731,10.9829578 19.0643347,9.54566218 C18.5766823,9.05700436 18.5774973,8.26554856 19.0661551,7.77789616 C19.5548129,7.29024376 20.3462687,7.29105881 20.8339211,7.77971662 Z M17.2748263,11.171106 C18.2692465,12.191032 18.8369863,13.5580546 18.8369863,15.011416 C18.8369863,16.4828628 18.254983,17.8654134 17.2385436,18.8885927 C16.752004,19.3783585 15.9605521,19.3809738 15.4707863,18.8944342 C14.9810205,18.4078945 14.9784052,17.6164426 15.4649448,17.1266769 C16.0207131,16.5672234 16.3369863,15.8159154 16.3369863,15.011416 C16.3369863,14.2167688 16.0284925,13.4739674 15.4848193,12.9163495 C15.0028836,12.4220527 15.0129042,11.6306599 15.507201,11.1487242 C16.0014978,10.6667886 16.7928906,10.6768092 17.2748263,11.171106 Z" id="path-1"></path>
    </defs>
    <g id="ic_public_sound_高亮" stroke="none" stroke-width="1" fill="none" fill-rule="evenodd">
        <mask id="mask-2" fill="white">
            <use xlink:href="#path-1"></use>
        </mask>
        <use id="合并形状" fill="#006CDE" xlink:href="#path-1"></use>
    </g>
</svg>