<?xml version="1.0" encoding="UTF-8"?>
<svg width="30px" height="30px" viewBox="0 0 30 30" version="1.1" xmlns="http://www.w3.org/2000/svg" xmlns:xlink="http://www.w3.org/1999/xlink">
    <title>ic_public_contacts</title>
    <defs>
        <path d="M20.1609381,15.5527709 C24.1340864,17.4722203 26.875,21.5410228 26.875,26.25 C26.875,26.767767 26.455267,27.1875 25.9375,27.1875 C25.419733,27.1875 25,26.767767 25,26.25 C25,21.866544 22.1796105,18.1418253 18.254524,16.7915362 C18.9508618,16.472473 19.5925665,16.0532799 20.1609381,15.5527709 Z M15,3.125 C18.6243687,3.125 21.5625,6.06313133 21.5625,9.6875 C21.5625,13.233078 18.750725,16.1219309 15.2353758,16.2458575 L15,16.25 L15,16.25 C13.860234,16.25 12.765004,16.4406809 11.7444702,16.7918823 C11.7453101,16.7918496 11.7456475,16.7920044 11.745985,16.7921592 L11.5383147,16.8653801 C11.4182751,16.909674 11.2993189,16.9562052 11.1814966,17.0049232 C11.0482173,17.0600346 10.9165123,17.1178868 10.7863286,17.1784589 C10.6611712,17.236684 10.5369416,17.2976702 10.4141946,17.3611242 C10.381029,17.3782684 10.3478082,17.3956796 10.3146979,17.4132714 L10.4141946,17.3611242 C10.3294276,17.4049445 10.2453676,17.4499418 10.1620363,17.4960943 L10.3146979,17.4132714 C10.2358277,17.4551761 10.1575851,17.4981057 10.079988,17.5420426 L10.1620363,17.4960943 C10.0996318,17.5306567 10.0376359,17.565867 9.97605782,17.6017161 L10.079988,17.5420426 C9.99594861,17.5896272 9.91266628,17.6383933 9.83016358,17.6883182 L9.97605782,17.6017161 C9.90558836,17.6427415 9.83566597,17.6846035 9.76630425,17.7272886 L9.83016358,17.6883182 C9.67750911,17.7806942 9.52752383,17.8770376 9.38035066,17.9772055 C9.35750664,17.9927533 9.33470909,18.0084081 9.31197995,18.0241546 L9.38035066,17.9772055 C9.30666667,18.0273558 9.23368756,18.0784647 9.16143129,18.1305144 L9.31197995,18.0241546 C9.23749244,18.0757588 9.1637397,18.1283487 9.09074059,18.1819054 L9.16143129,18.1305144 C9.08997054,18.181991 9.0192168,18.2343877 8.94918742,18.2876872 L9.09074059,18.1819054 C9.01472562,18.2376748 8.93952784,18.2944926 8.86516855,18.3523374 L8.94918742,18.2876872 C8.87952447,18.3407078 8.81057832,18.3946218 8.74236605,18.449412 L8.86516855,18.3523374 C8.79404792,18.4076629 8.72369433,18.4639279 8.65412643,18.5211139 L8.74236605,18.449412 C8.59188313,18.5702846 8.4449719,18.6954219 8.30181575,18.8246404 C8.28685523,18.8381442 8.27187758,18.8517457 8.25694147,18.8653918 L8.30181575,18.8246404 C8.24988417,18.871516 8.19844674,18.9189286 8.14751222,18.9668696 L8.25694147,18.8653918 C8.18880614,18.9276427 8.1215353,18.990824 8.05514905,19.0549155 L8.14751222,18.9668696 C8.08135519,19.0291384 8.01604659,19.0922985 7.95160561,19.1563308 L8.05514905,19.0549155 C7.99337853,19.1145509 7.93237388,19.1749744 7.87215128,19.2361699 L7.95160561,19.1563308 C7.89755349,19.2100401 7.8441118,19.2643629 7.79129185,19.3192881 L7.87215128,19.2361699 C7.80069152,19.308784 7.7303329,19.382485 7.66110249,19.4572458 L7.79129185,19.3192881 C7.53180118,19.589121 7.28731629,19.8734898 7.05917961,20.171052 C7.03650394,20.2006276 7.01393453,20.2304074 6.99152875,20.2603168 L6.83786403,20.471098 C6.63207485,20.7612282 6.44136648,21.0628073 6.26688137,21.3746928 C6.2565906,21.3930846 6.24607439,21.4120237 6.23561803,21.4310004 L6.26688137,21.3746928 C6.22421794,21.4509521 6.18252442,21.5278275 6.14181752,21.6053024 L6.23561803,21.4310004 C6.13740839,21.6092358 6.04447759,21.7907884 5.95703635,21.9754475 C5.86480489,22.1702118 5.77860101,22.3686319 5.69876409,22.5702669 C5.67684328,22.6256377 5.65557289,22.6807971 5.63477986,22.7361901 L5.69876409,22.5702669 C5.66295731,22.6607 5.62843126,22.7517798 5.59520829,22.8434838 L5.63477986,22.7361901 C5.61236147,22.795913 5.59049799,22.8559074 5.5691957,22.9161668 L5.59520829,22.8434838 C5.56323082,22.93175 5.53246056,23.0205946 5.50291748,23.1099975 L5.5691957,22.9161668 C5.53201358,23.0213469 5.49654118,23.1273346 5.46281191,23.2340967 L5.50291748,23.1099975 C5.47923056,23.1816787 5.45633251,23.2537187 5.43423363,23.3261075 L5.46281191,23.2340967 C5.43337261,23.3272799 5.40526122,23.4210529 5.37849995,23.5153937 L5.43423363,23.3261075 C5.40731522,23.4142835 5.38158255,23.5029769 5.35705421,23.5921691 L5.37849995,23.5153937 C5.35600239,23.5947037 5.33445901,23.6744149 5.313883,23.7545141 L5.35705421,23.5921691 C5.30386196,23.7855916 5.25633348,23.9813598 5.21465828,24.1792843 C5.20727223,24.2143593 5.20003786,24.2496634 5.19299006,24.2850347 L5.21465828,24.1792843 C5.20179891,24.2403561 5.18949684,24.3016333 5.17775762,24.3631102 L5.19299006,24.2850347 C5.1737624,24.3815342 5.15592344,24.4785343 5.1394949,24.5760135 L5.17775762,24.3631102 C5.13876476,24.5673114 5.1059819,24.7737161 5.0796131,24.9821204 C5.07452114,25.0223638 5.0696666,25.0626973 5.06505288,25.1031039 L5.0796131,24.9821204 C5.06688162,25.0827429 5.05564538,25.1838315 5.04592734,25.2853632 L5.06505288,25.1031039 C5.04282313,25.2977903 5.02618412,25.4941749 5.01530036,25.692093 L5.00419816,25.9574167 C5.00140575,26.0546034 5,26.1521375 5,26.25 C5,26.7307836 4.63808732,27.127038 4.17183231,27.1811928 L4.0625,27.1875 L4.0625,27.1875 C3.54473305,27.1875 3.125,26.767767 3.125,26.25 L3.128,25.97 L3.12876028,25.948202 C3.13392468,25.7411731 3.14438763,25.5354597 3.16001861,25.3311923 C3.1807056,25.0608564 3.21044263,24.7930652 3.24892819,24.5281089 C3.28413338,24.2856765 3.32674794,24.0452119 3.37647892,23.8073616 C3.38419158,23.770482 3.39196447,23.7341713 3.39990293,23.6979226 C3.43636794,23.5313726 3.47649142,23.3655161 3.52005498,23.2010592 C3.52755433,23.1727478 3.53516993,23.1444256 3.54288744,23.1161454 C3.56247642,23.0443577 3.58278494,22.9726267 3.60374716,22.9011752 C3.6101706,22.8792773 3.61678259,22.8569814 3.62345819,22.834713 C3.66724384,22.6886797 3.71357353,22.5443861 3.76255826,22.4013246 C3.89106579,22.0260202 4.03782055,21.6592495 4.20178104,21.3020162 C4.26305824,21.1684944 4.32692701,21.0359328 4.39315723,20.904767 C4.4282822,20.8352093 4.46388837,20.7663893 4.50014379,20.6979662 C4.50645824,20.6860481 4.51300195,20.6737498 4.51956664,20.6614645 C4.54252199,20.6185086 4.56554117,20.5760602 4.58881053,20.5337689 C4.75686659,20.2283062 4.93821416,19.9306798 5.13189185,19.6420206 C5.15528282,19.6071561 5.17906662,19.5721121 5.20303216,19.5372027 C5.23135955,19.4959408 5.25984344,19.455005 5.2885773,19.4142581 C5.32870772,19.3573505 5.36929395,19.3008548 5.41036094,19.244733 C5.42270216,19.227864 5.4357951,19.2100716 5.44893636,19.1923171 C5.53748694,19.0726974 5.62774997,18.9554016 5.72012561,18.8398686 C5.75294759,18.7988167 5.78620752,18.7577789 5.81973425,18.7169687 C5.84836459,18.6821168 5.87737018,18.647216 5.90657109,18.6124849 C6.0840095,18.4014645 6.26822883,18.1971536 6.45924955,17.9994564 C6.46737265,17.9910489 6.47577891,17.9823746 6.48419826,17.9737131 C6.59599148,17.8587066 6.71003495,17.7460134 6.82631089,17.6356494 C6.94526116,17.5227435 7.0666913,17.41215 7.190383,17.3040803 C7.37681203,17.1411757 7.56898761,16.9835364 7.76605579,16.8319438 C7.82659164,16.7853776 7.8875515,16.7394097 7.94896443,16.6940198 C7.97005492,16.6784334 7.99078108,16.6632196 8.01155827,16.6480717 C8.05664034,16.6152022 8.10219877,16.5824754 8.14799681,16.5500648 C8.18340991,16.5250046 8.21875613,16.5002788 8.25424249,16.4757412 C8.2986155,16.4450587 8.34322454,16.4146592 8.38805003,16.3845571 C8.42523602,16.359585 8.46261372,16.3347896 8.5001391,16.310201 C8.5441439,16.2813687 8.5880295,16.2530258 8.63211267,16.2249657 C8.6667456,16.2029229 8.7010967,16.1813058 8.73556573,16.1598604 C8.77887272,16.1329138 8.82280517,16.1059727 8.86692512,16.0793105 C8.90740226,16.0548516 8.94770844,16.0308208 8.98816804,16.0070228 C9.02319381,15.9864201 9.05853497,15.9658768 9.09399122,15.9455112 C9.13906118,15.919625 9.18408942,15.8941527 9.22929929,15.8689672 C9.27771272,15.8419947 9.32673266,15.8151364 9.37596122,15.7886155 C9.41679529,15.7666186 9.45744855,15.7450236 9.49824135,15.7236588 C9.53756816,15.7030605 9.57727835,15.682547 9.61711833,15.6622517 C9.65771337,15.6415737 9.6980382,15.6213228 9.73849351,15.6012956 C9.77166728,15.584871 9.80548435,15.5683282 9.83939118,15.551942 C10.2671168,15.3452829 10.7080534,15.1638862 11.1613346,15.0091358 C9.51122293,13.8187236 8.4375,11.8785025 8.4375,9.6875 C8.4375,6.06313133 11.3756313,3.125 15,3.125 Z M15,5 C12.4111652,5 10.3125,7.09866524 10.3125,9.6875 C10.3125,12.2763348 12.4111652,14.375 15,14.375 C17.5888348,14.375 19.6875,12.2763348 19.6875,9.6875 C19.6875,7.09866524 17.5888348,5 15,5 Z" id="path-1"></path>
    </defs>
    <g id="ic_public_contacts" stroke="none" stroke-width="1" fill="none" fill-rule="evenodd">
        <mask id="mask-2" fill="white">
            <use xlink:href="#path-1"></use>
        </mask>
        <use id="形状结合" fill="#FFFFFF" fill-rule="nonzero" xlink:href="#path-1"></use>
    </g>
</svg>