<?xml version="1.0" encoding="UTF-8"?>
<svg width="30px" height="30px" viewBox="0 0 30 30" version="1.1" xmlns="http://www.w3.org/2000/svg" xmlns:xlink="http://www.w3.org/1999/xlink">
    <title>ic_public_sound</title>
    <defs>
        <path d="M24.5371414,4.96277042 C27.2089676,7.64010514 28.7375491,11.2594159 28.7375491,15.1183256 C28.7375491,18.9674155 27.2167768,22.5782989 24.5569812,25.2539615 C24.1919551,25.6211652 23.5983655,25.6229305 23.2311618,25.2579043 C22.8639581,24.8928782 22.8621929,24.2992887 23.227219,23.932085 C25.5412473,21.6042524 26.8625491,18.4669867 26.8625491,15.1183256 C26.8625491,11.7611283 25.5344567,8.61652726 23.2099516,6.28722958 C22.8442123,5.92073622 22.8448236,5.32714437 23.2113169,4.96140507 C23.5778103,4.59566577 24.1714021,4.59627706 24.5371414,4.96277042 Z M9.58932568,7.2148551 C10.5407285,6.47027898 11.9155911,6.63794515 12.6601672,7.58934796 C12.9613559,7.97420014 13.125,8.44882421 13.125,8.93752229 L13.125,8.93752229 L13.125,21.3064175 C13.125,22.5145404 12.1456229,23.4939175 10.9375,23.4939175 C10.4488019,23.4939175 9.97417786,23.3302734 9.58923543,23.0290141 L9.58923543,23.0290141 L5.475,19.8082199 L2.8125,19.8094699 C1.32392001,19.8094699 0.105443855,18.6530179 0.00648851568,17.1895309 L0.00648851568,17.1895309 L0,16.9969699 L0,13.2469699 C0,11.693669 1.25919914,10.4344699 2.81226376,10.4344699 L2.81226376,10.4344699 L5.47375,10.4332199 Z M20.6127228,8.12242972 C22.452269,9.9657686 23.504991,12.4583591 23.504991,15.1152226 C23.504991,17.7653241 22.4576463,20.2521129 20.6263813,22.0943022 C20.2613552,22.4615059 19.6677657,22.4632712 19.300562,22.098245 C18.9333583,21.7332189 18.931593,21.1396294 19.2966192,20.7724257 C20.7821168,19.2780663 21.629991,17.2648953 21.629991,15.1152226 C21.629991,12.9600714 20.7777582,10.9421907 19.285533,9.44688889 C18.9197937,9.08039553 18.920405,8.48680368 19.2868983,8.12106438 C19.6533917,7.75532508 20.2469835,7.75593636 20.6127228,8.12242972 Z M11.1835953,8.74492595 C11.0772273,8.60901127 10.8808184,8.58505896 10.7448362,8.69147978 L10.7448362,8.69147978 L6.12204383,12.308636 L2.8125,12.3094699 C2.29473305,12.3094699 1.875,12.729203 1.875,13.2469699 L1.875,13.2469699 L1.875,16.9969699 C1.875,17.5147369 2.29473305,17.9344699 2.81226376,17.9344699 L2.81226376,17.9344699 L6.12194774,17.933636 L10.7449037,21.5525128 C10.7998826,21.5955398 10.867686,21.6189175 10.9375,21.6189175 C11.110089,21.6189175 11.25,21.4790065 11.25,21.3064175 L11.25,21.3064175 L11.25,8.93752229 C11.25,8.86770827 11.2266223,8.79990484 11.1835953,8.74492595 Z M17.0510754,11.5112314 C17.9891522,12.4733688 18.5244863,13.7623638 18.5244863,15.1333859 C18.5244863,16.5214643 17.9756992,17.8251096 17.0168437,18.7903231 C16.651939,19.1576474 16.0583501,19.1596089 15.6910258,18.7947042 C15.3237014,18.4297995 15.3217399,17.8362106 15.6866446,17.4688862 C16.2999968,16.851467 16.6494863,16.0212538 16.6494863,15.1333859 C16.6494863,14.2563995 16.3085868,13.4355704 15.7085701,12.820164 C15.3471184,12.4494414 15.3546339,11.8558968 15.7253565,11.494445 C16.0960791,11.1329933 16.6896237,11.1405088 17.0510754,11.5112314 Z" id="path-1"></path>
    </defs>
    <g id="ic_public_sound" stroke="none" stroke-width="1" fill="none" fill-rule="evenodd">
        <mask id="mask-2" fill="white">
            <use xlink:href="#path-1"></use>
        </mask>
        <use id="合并形状" fill="#FFFFFF" fill-rule="nonzero" xlink:href="#path-1"></use>
    </g>
</svg>