<?xml version="1.0" encoding="UTF-8"?>
<svg width="30px" height="30px" viewBox="0 0 30 30" version="1.1" xmlns="http://www.w3.org/2000/svg" xmlns:xlink="http://www.w3.org/1999/xlink">
    <title>ic_public_DTFS</title>
    <defs>
        <path d="M15.0625,23.125 C16.2709375,23.125 17.25,24.1040625 17.25,25.3125 C17.25,26.5203125 16.2709375,27.5 15.0625,27.5 C13.8546875,27.5 12.875,26.5203125 12.875,25.3125 C12.875,24.1040625 13.8546875,23.125 15.0625,23.125 Z M8.1875,16.25 C9.3959375,16.25 10.375,17.2290625 10.375,18.4375 C10.375,19.6453125 9.3959375,20.625 8.1875,20.625 C6.9796875,20.625 6,19.6453125 6,18.4375 C6,17.2290625 6.9796875,16.25 8.1875,16.25 Z M15.0625,16.25 C16.2709375,16.25 17.25,17.2290625 17.25,18.4375 C17.25,19.6453125 16.2709375,20.625 15.0625,20.625 C13.8546875,20.625 12.875,19.6453125 12.875,18.4375 C12.875,17.2290625 13.8546875,16.25 15.0625,16.25 Z M21.9375,16.25 C23.1459375,16.25 24.125,17.2290625 24.125,18.4375 C24.125,19.6453125 23.1459375,20.625 21.9375,20.625 C20.7296875,20.625 19.75,19.6453125 19.75,18.4375 C19.75,17.2290625 20.7296875,16.25 21.9375,16.25 Z M8.1875,9.375 C9.3959375,9.375 10.375,10.3540625 10.375,11.5625 C10.375,12.7703125 9.3959375,13.75 8.1875,13.75 C6.9796875,13.75 6,12.7703125 6,11.5625 C6,10.3540625 6.9796875,9.375 8.1875,9.375 Z M15.0625,9.375 C16.2709375,9.375 17.25,10.3540625 17.25,11.5625 C17.25,12.7703125 16.2709375,13.75 15.0625,13.75 C13.8546875,13.75 12.875,12.7703125 12.875,11.5625 C12.875,10.3540625 13.8546875,9.375 15.0625,9.375 Z M21.9375,9.375 C23.1459375,9.375 24.125,10.3540625 24.125,11.5625 C24.125,12.7703125 23.1459375,13.75 21.9375,13.75 C20.7296875,13.75 19.75,12.7703125 19.75,11.5625 C19.75,10.3540625 20.7296875,9.375 21.9375,9.375 Z M8.1875,2.5 C9.3959375,2.5 10.375,3.4790625 10.375,4.6875 C10.375,5.8953125 9.3959375,6.875 8.1875,6.875 C6.9796875,6.875 6,5.8953125 6,4.6875 C6,3.4790625 6.9796875,2.5 8.1875,2.5 Z M15.0625,2.5 C16.2709375,2.5 17.25,3.4790625 17.25,4.6875 C17.25,5.8953125 16.2709375,6.875 15.0625,6.875 C13.8546875,6.875 12.875,5.8953125 12.875,4.6875 C12.875,3.4790625 13.8546875,2.5 15.0625,2.5 Z M21.9375,2.5 C23.1459375,2.5 24.125,3.4790625 24.125,4.6875 C24.125,5.8953125 23.1459375,6.875 21.9375,6.875 C20.7296875,6.875 19.75,5.8953125 19.75,4.6875 C19.75,3.4790625 20.7296875,2.5 21.9375,2.5 Z" id="path-1"></path>
    </defs>
    <g id="ic_public_DTFS" stroke="none" stroke-width="1" fill="none" fill-rule="evenodd">
        <mask id="mask-2" fill="white">
            <use xlink:href="#path-1"></use>
        </mask>
        <use id="Fill-4" fill="#FFFFFF" xlink:href="#path-1"></use>
    </g>
</svg>