<?xml version="1.0" encoding="UTF-8"?>
<svg width="30px" height="30px" viewBox="0 0 30 30" version="1.1" xmlns="http://www.w3.org/2000/svg" xmlns:xlink="http://www.w3.org/1999/xlink">
    <title>ic_public_voice_置灰备份</title>
    <defs>
        <path d="M4.5840794,2.81892817 L4.63388348,2.86611652 L10,8.233 L10,8.232 L22.251828,20.4859542 L22.251828,20.4859542 L27.1338835,25.3661165 C27.6220388,25.8542719 27.6220388,26.6457281 27.1338835,27.1338835 C26.662,27.605767 25.9066986,27.6214964 25.4159206,27.1810718 L25.3661165,27.1338835 L20.3639339,22.1307067 C19.1563621,22.9351332 17.7579327,23.4756772 16.2510166,23.6699679 L16.25,26.25 C16.25,26.9403559 15.6903559,27.5 15,27.5 C14.3305639,27.5 13.7840379,26.9737599 13.7515298,26.3123876 L13.75,26.25 L13.7499848,23.670097 C8.99018175,23.0569069 5.3125,18.9891877 5.3125,14.0625 C5.3125,13.3721441 5.87214406,12.8125 6.5625,12.8125 C7.25285594,12.8125 7.8125,13.3721441 7.8125,14.0625 C7.8125,18.0320466 11.0304534,21.25 15,21.25 C16.2902446,21.25 17.5010848,20.9100289 18.5478269,20.3147801 L16.9146871,18.6827871 C16.3249474,18.9274551 15.6782444,19.0625 15,19.0625 C12.2385763,19.0625 10,16.8239237 10,14.0625 L10,14.0625 L10,11.767 L2.86611652,4.63388348 C2.37796116,4.14572811 2.37796116,3.35427189 2.86611652,2.86611652 C3.33800004,2.394233 4.09330136,2.37850355 4.5840794,2.81892817 Z M23.4375,12.8125 C24.1278559,12.8125 24.6875,13.3721441 24.6875,14.0625 C24.6875,15.8442574 24.2064821,17.5136671 23.3672219,18.9479535 L21.5170076,17.0978642 C21.9314847,16.2094873 22.1696595,15.2223204 22.1865371,14.1813585 L22.1875,14.0625 C22.1875,13.3721441 22.7471441,12.8125 23.4375,12.8125 Z M15,2.5 C17.7614237,2.5 20,4.73857625 20,7.5 L20,7.5 L20,14.0625 C20,14.5257652 19.9369964,14.9743151 19.8190903,15.4000487 L10.2760825,5.85737179 C10.9556433,3.90283795 12.8139965,2.5 15,2.5 Z" id="path-1"></path>
    </defs>
    <g id="ic_public_voice_置灰备份" stroke="none" stroke-width="1" fill="none" fill-rule="evenodd">
        <mask id="mask-2" fill="white">
            <use xlink:href="#path-1"></use>
        </mask>
        <use id="形状结合" fill="#006CDE" fill-rule="nonzero" xlink:href="#path-1"></use>
    </g>
</svg>