<?xml version="1.0" encoding="UTF-8"?>
<svg width="16px" height="16px" viewBox="0 0 16 16" version="1.1" xmlns="http://www.w3.org/2000/svg" xmlns:xlink="http://www.w3.org/1999/xlink">
    <title>ic_publicSmart Speakerfiled</title>
    <g id="ic_publicSmart-Speakerfiled" stroke="none" stroke-width="1" fill="none" fill-rule="evenodd" opacity="0.6">
        <rect id="Rectangle备份" fill-rule="nonzero" x="0" y="0" width="16" height="16"></rect>
        <path d="M11.9772727,4 C10.0397727,4 8.45454545,5.58522727 8.45454545,7.52272727 C8.45454545,8.33295455 8.73636364,9.0375 9.15909091,9.63636364 L6.34090909,9.63636364 C6.79886364,9.0375 7.04545455,8.33295455 7.04545455,7.52272727 C7.04545455,5.58522727 5.46022727,4 3.52272727,4 C1.58522727,4 0,5.58522727 0,7.52272727 C0,9.46022727 1.58522727,11.0454545 3.52272727,11.0454545 L11.9772727,11.0454545 C13.9147727,11.0454545 15.5,9.46022727 15.5,7.52272727 C15.5,5.58522727 13.9147727,4 11.9772727,4 Z M1.40909091,7.52272727 C1.40909091,6.36022727 2.36022727,5.40909091 3.52272727,5.40909091 C4.68522727,5.40909091 5.63636364,6.36022727 5.63636364,7.52272727 C5.63636364,8.68522727 4.68522727,9.63636364 3.52272727,9.63636364 C2.36022727,9.63636364 1.40909091,8.68522727 1.40909091,7.52272727 Z M11.9772727,9.63636364 C10.8147727,9.63636364 9.86363636,8.68522727 9.86363636,7.52272727 C9.86363636,6.36022727 10.8147727,5.40909091 11.9772727,5.40909091 C13.1397727,5.40909091 14.0909091,6.36022727 14.0909091,7.52272727 C14.0909091,8.68522727 13.1397727,9.63636364 11.9772727,9.63636364 Z" id="Shape" fill="#FFFFFF" fill-rule="nonzero"></path>
    </g>
</svg>