<?xml version="1.0" encoding="UTF-8"?>
<svg width="56px" height="56px" viewBox="0 0 56 56" version="1.1" xmlns="http://www.w3.org/2000/svg" xmlns:xlink="http://www.w3.org/1999/xlink">
    <title>挂断备份 3</title>
    <defs>
        <circle id="path-1" cx="28" cy="28" r="28"></circle>
        <path d="M24.4169458,24.4378595 L25.227008,23.6314538 C26.257664,22.5999857 26.257664,20.9335493 25.227008,19.9016749 L22.4291651,17.793645 C22.2723527,17.6754264 22.121634,17.5498952 21.9709152,17.4239578 C21.0483218,16.6589895 19.6926659,16.718302 18.8407599,17.5604577 L17.5509165,18.8137381 C16.9919167,19.3711128 16.1217295,19.473894 15.4473547,19.0615505 C12.6811992,17.3654578 8.40420049,13.0900856 6.81982595,10.5412747 C6.39976358,9.8689314 6.5001073,8.99752571 7.06195088,8.43730732 L8.47570047,7.10358943 C9.34060646,6.23787124 9.38123145,4.85255964 8.56913794,3.93768523 C8.43629423,3.78940407 8.30995052,3.63462292 8.18563805,3.47984177 L6.19257614,1.00781212 C5.57710757,0.242843861 4.58626411,-0.139030893 3.6185769,0.0462189875 C3.1006083,0.144937674 2.62407719,0.396000012 2.25154605,0.767312272 L1.56742125,1.44818683 C0.266609131,2.738436 -0.27532821,4.6047473 0.13417167,6.38655865 C1.9009524,13.9915537 12.0726369,24.378547 19.6065409,25.8962961 C21.3521967,26.2481083 23.1579774,25.6907337 24.4169458,24.4378595 Z" id="path-3"></path>
    </defs>
    <g id="页面-1" stroke="none" stroke-width="1" fill="none" fill-rule="evenodd">
        <g id="挂断备份-3">
            <g id="挂断">
                <mask id="mask-2" fill="white">
                    <use xlink:href="#path-1"></use>
                </mask>
                <use id="backplane/round" fill="#E84826" xlink:href="#path-1"></use>
            </g>
            <g id="Public/ic_phonecall_filled备份" transform="translate(24.464466, 30.000000) rotate(-225.000000) translate(-24.464466, -30.000000) translate(8.964466, 14.500000)">
                <g id="symbol/frame/symbol_grid24"></g>
                <mask id="mask-4" fill="white">
                    <use xlink:href="#path-3"></use>
                </mask>
                <use id="Stroke-1" fill="#FFFFFF" xlink:href="#path-3"></use>
            </g>
        </g>
    </g>
</svg>