<?xml version="1.0" encoding="UTF-8"?>
<svg width="110px" height="110px" viewBox="0 0 110 110" version="1.1" xmlns="http://www.w3.org/2000/svg" xmlns:xlink="http://www.w3.org/1999/xlink">
    <title>编组 2</title>
    <g id="OH原生通话-330版本" stroke="none" stroke-width="1" fill="none" fill-rule="evenodd">
        <g id="OH3.0_PAD竖屏_运营商_语音_通话中" transform="translate(-345.000000, -140.000000)" fill="#FFFFFF">
            <g id="编组-2" transform="translate(345.000000, 140.000000)">
                <circle id="Oval-3" opacity="0.4" cx="55" cy="55" r="55"></circle>
                <path d="M54.8170786,70.7142857 C71.8331195,70.7142857 80.5941163,77.4078211 85.2975463,83.4784229 L86.1583479,84.6436348 C86.2937461,84.8358854 86.4252039,85.0269966 86.5528621,85.2167229 L87.2365391,86.2753585 L87.8445751,87.2944142 L88.3826675,88.2639591 L89.0711248,89.6037197 L89.9495482,91.4484127 L90.1924126,92.0107445 C81.0320017,100.723836 68.6404995,106.071429 55,106.071429 C41.2264859,106.071429 28.7264468,100.619034 19.5405291,91.7548904 L19.6846089,91.4484127 L20.5905628,89.6037197 L21.289861,88.2639591 L21.833087,87.2944142 L22.4447339,86.2753585 L23.1306297,85.2167229 L23.5257994,84.6436348 L23.5257994,84.6436348 L24.3869289,83.4784229 C29.0888654,77.4078211 37.8010377,70.7142857 54.8170786,70.7142857 Z" id="路径"></path>
                <path d="M54.8170786,25.5357143 C44.5110507,25.5357143 36.1563643,33.8904007 36.1563643,44.1964286 C36.1563643,54.5024565 44.5110507,62.8571429 54.8170786,62.8571429 C65.1231065,62.8571429 73.4777929,54.5024565 73.4777929,44.1964286 C73.4777929,33.8904007 65.1231065,25.5357143 54.8170786,25.5357143 Z" id="路径" fill-rule="nonzero"></path>
            </g>
        </g>
    </g>
</svg>