<?xml version="1.0" encoding="UTF-8"?>
<svg width="24px" height="24px" viewBox="0 0 24 24" version="1.1" xmlns="http://www.w3.org/2000/svg" xmlns:xlink="http://www.w3.org/1999/xlink">
    <title>Public/ic_dialer</title>
    <g id="Public/ic_dialer" stroke="none" stroke-width="1" fill="none" fill-rule="evenodd">
        <g id="symbol/frame/symbol_grid24"></g>
        <g id="编组" transform="translate(4.000000, 2.000000)" fill="#000000">
            <path d="M8.05,16.5 C9.01675,16.5 9.8,17.28325 9.8,18.25 C9.8,19.21625 9.01675,20 8.05,20 C7.08375,20 6.3,19.21625 6.3,18.25 C6.3,17.28325 7.08375,16.5 8.05,16.5 Z M2.55,11 C3.51675,11 4.3,11.78325 4.3,12.75 C4.3,13.71625 3.51675,14.5 2.55,14.5 C1.58375,14.5 0.8,13.71625 0.8,12.75 C0.8,11.78325 1.58375,11 2.55,11 Z M8.05,11 C9.01675,11 9.8,11.78325 9.8,12.75 C9.8,13.71625 9.01675,14.5 8.05,14.5 C7.08375,14.5 6.3,13.71625 6.3,12.75 C6.3,11.78325 7.08375,11 8.05,11 Z M13.55,11 C14.51675,11 15.3,11.78325 15.3,12.75 C15.3,13.71625 14.51675,14.5 13.55,14.5 C12.58375,14.5 11.8,13.71625 11.8,12.75 C11.8,11.78325 12.58375,11 13.55,11 Z M2.55,5.5 C3.51675,5.5 4.3,6.28325 4.3,7.25 C4.3,8.21625 3.51675,9 2.55,9 C1.58375,9 0.8,8.21625 0.8,7.25 C0.8,6.28325 1.58375,5.5 2.55,5.5 Z M8.05,5.5 C9.01675,5.5 9.8,6.28325 9.8,7.25 C9.8,8.21625 9.01675,9 8.05,9 C7.08375,9 6.3,8.21625 6.3,7.25 C6.3,6.28325 7.08375,5.5 8.05,5.5 Z M13.55,5.5 C14.51675,5.5 15.3,6.28325 15.3,7.25 C15.3,8.21625 14.51675,9 13.55,9 C12.58375,9 11.8,8.21625 11.8,7.25 C11.8,6.28325 12.58375,5.5 13.55,5.5 Z M2.55,0 C3.51675,0 4.3,0.78325 4.3,1.75 C4.3,2.71625 3.51675,3.5 2.55,3.5 C1.58375,3.5 0.8,2.71625 0.8,1.75 C0.8,0.78325 1.58375,0 2.55,0 Z M8.05,0 C9.01675,0 9.8,0.78325 9.8,1.75 C9.8,2.71625 9.01675,3.5 8.05,3.5 C7.08375,3.5 6.3,2.71625 6.3,1.75 C6.3,0.78325 7.08375,0 8.05,0 Z M13.55,0 C14.51675,0 15.3,0.78325 15.3,1.75 C15.3,2.71625 14.51675,3.5 13.55,3.5 C12.58375,3.5 11.8,2.71625 11.8,1.75 C11.8,0.78325 12.58375,0 13.55,0 Z" id="Fill-4"></path>
        </g>
    </g>
</svg>