<?xml version="1.0" encoding="UTF-8"?>
<svg width="24px" height="24px" viewBox="0 0 24 24" version="1.1" xmlns="http://www.w3.org/2000/svg" xmlns:xlink="http://www.w3.org/1999/xlink">
    <title>Public/ic_rocerder</title>
    <g id="Public/ic_rocerder" stroke="none" stroke-width="1" fill="none" fill-rule="evenodd">
        <g id="symbol/frame/symbol_grid24-copy-2"></g>
        <path d="M2,14.8491211 C2.55228475,14.8491211 3,14.4014058 3,13.8491211 C3,13.2968363 2.55228475,12.8491211 2,12.8491211 C1.44771525,12.8491211 1,13.2968363 1,13.8491211 C1,14.4014058 1.44771525,14.8491211 2,14.8491211 Z" id="椭圆形" fill="#000000"></path>
        <path d="M22,14.8491211 C22.5522847,14.8491211 23,14.4014058 23,13.8491211 C23,13.2968363 22.5522847,12.8491211 22,12.8491211 C21.4477153,12.8491211 21,13.2968363 21,13.8491211 C21,14.4014058 21.4477153,14.8491211 22,14.8491211 Z" id="椭圆形备份-6" fill="#000000"></path>
        <path d="M2,12.4629822 C2.55228475,12.4629822 3,12.0152669 3,11.4629822 C3,10.9106974 2.55228475,10.4629822 2,10.4629822 C1.44771525,10.4629822 1,10.9106974 1,11.4629822 C1,12.0152669 1.44771525,12.4629822 2,12.4629822 Z" id="椭圆形备份" fill="#000000"></path>
        <path d="M22,12.0243902 C22.5522847,12.0243902 23,11.576675 23,11.0243902 C23,10.4721055 22.5522847,10.0243902 22,10.0243902 C21.4477153,10.0243902 21,10.4721055 21,11.0243902 C21,11.576675 21.4477153,12.0243902 22,12.0243902 Z" id="椭圆形备份-7" fill="#000000"></path>
        <polygon id="矩形" fill="#000000" points="1 11.4629822 3 11.4629822 3 13.8852081 1 13.8852081"></polygon>
        <polygon id="矩形备份-3" fill="#000000" points="21 11.0243902 23 11.0243902 23 13.8491211 21 13.8491211"></polygon>
        <path d="M7,18.804878 C7.55228475,18.804878 8,18.3571628 8,17.804878 C8,17.2525933 7.55228475,16.804878 7,16.804878 C6.44771525,16.804878 6,17.2525933 6,17.804878 C6,18.3571628 6.44771525,18.804878 7,18.804878 Z" id="椭圆形" fill="#000000"></path>
        <path d="M17,16.6097561 C17.5522847,16.6097561 18,16.1620408 18,15.6097561 C18,15.0574713 17.5522847,14.6097561 17,14.6097561 C16.4477153,14.6097561 16,15.0574713 16,15.6097561 C16,16.1620408 16.4477153,16.6097561 17,16.6097561 Z" id="椭圆形备份-4" fill="#000000"></path>
        <path d="M12,21 C12.5522847,21 13,20.5522847 13,20 C13,19.4477153 12.5522847,19 12,19 C11.4477153,19 11,19.4477153 11,20 C11,20.5522847 11.4477153,21 12,21 Z" id="椭圆形备份-2" fill="#000000"></path>
        <path d="M7,8.51428223 C7.55228475,8.51428223 8,8.06656698 8,7.51428223 C8,6.96199748 7.55228475,6.51428223 7,6.51428223 C6.44771525,6.51428223 6,6.96199748 6,7.51428223 C6,8.06656698 6.44771525,8.51428223 7,8.51428223 Z" id="椭圆形备份" fill="#000000"></path>
        <path d="M17,9.82926829 C17.5522847,9.82926829 18,9.38155304 18,8.82926829 C18,8.27698354 17.5522847,7.82926829 17,7.82926829 C16.4477153,7.82926829 16,8.27698354 16,8.82926829 C16,9.38155304 16.4477153,9.82926829 17,9.82926829 Z" id="椭圆形备份-5" fill="#000000"></path>
        <path d="M12,5.0019989 C12.5522847,5.0019989 13,4.55428365 13,4.0019989 C13,3.44971415 12.5522847,3.0019989 12,3.0019989 C11.4477153,3.0019989 11,3.44971415 11,4.0019989 C11,4.55428365 11.4477153,5.0019989 12,5.0019989 Z" id="椭圆形备份-3" fill="#000000"></path>
        <polygon id="矩形" fill="#000000" points="6 7.46931458 8 7.46931458 8 17.804878 6 17.804878"></polygon>
        <polygon id="矩形备份-2" fill="#000000" points="16 8.82926829 18 8.82926829 18 15.6097561 16 15.6097561"></polygon>
        <polygon id="矩形备份" fill="#000000" points="11 4.0019989 13 4.0019989 13 20 11 20"></polygon>
    </g>
</svg>