<?xml version="1.0" encoding="UTF-8"?>
<svg width="24px" height="24px" viewBox="0 0 24 24" version="1.1" xmlns="http://www.w3.org/2000/svg" xmlns:xlink="http://www.w3.org/1999/xlink">
    <title>Public/ic_video_filled</title>
    <defs>
        <path d="M3.66726352,1.00514254 L3.70710678,1.04289322 L4.749,2.084 L4.74975,2.0855 L20.91425,18.2500492 L20.915,18.25 L21.7071068,19.0428932 C22.0976311,19.4334175 22.0976311,20.0665825 21.7071068,20.4571068 C21.3296,20.8346136 20.7253589,20.8471972 20.3327365,20.4948575 L20.2928932,20.4571068 L17.1365068,17.3019939 C16.4949247,18.0362009 15.5516254,18.5 14.5,18.5 L3.5,18.5 C1.56700338,18.5 2.36723813e-16,16.9329966 0,15 L0,6.5 C-2.11154192e-16,4.77579518 1.24676744,3.3427885 2.88794842,3.05333384 L2.29289322,2.45710678 C1.90236893,2.06658249 1.90236893,1.43341751 2.29289322,1.04289322 C2.67040003,0.665386403 3.27464109,0.652802843 3.66726352,1.00514254 Z M23.8189379,6.05399329 C23.9377676,6.27337101 24,6.5189244 24,6.76841801 L24,14.731582 C24,15.5600091 23.3284271,16.231582 22.5,16.231582 C22.2505064,16.231582 22.004953,16.1693495 21.7855753,16.0505199 L19.711,14.926 L19,14.215 L19,6.95813041 L21.7855753,5.44948006 C22.5140046,5.05491418 23.4243721,5.32556397 23.8189379,6.05399329 Z M7.784,3 L14.5,3 C16.4329966,3 18,4.56700338 18,6.5 L18,13.215 L7.784,3 Z" id="path-1"></path>
    </defs>
    <g id="Public/ic_video_filled" stroke="none" stroke-width="1" fill="none" fill-rule="evenodd">
        <g id="编组">
            <g id="symbol/frame/symbol_grid24"></g>
            <g id="编组-2" transform="translate(0.000000, 1.250000)">
                <mask id="mask-2" fill="white">
                    <use xlink:href="#path-1"></use>
                </mask>
                <use id="形状结合" fill="#000000" xlink:href="#path-1"></use>
            </g>
        </g>
    </g>
</svg>