<?xml version="1.0" encoding="UTF-8"?>
<svg width="24px" height="24px" viewBox="0 0 24 24" version="1.1" xmlns="http://www.w3.org/2000/svg" xmlns:xlink="http://www.w3.org/1999/xlink">
    <title>Public/ic_voice_filled</title>
    <g id="Public/ic_voice_filled" stroke="none" stroke-width="1" fill="none" fill-rule="evenodd">
        <g id="编组" transform="translate(1.250000, 2.000000)" fill="#000000" fill-rule="nonzero">
            <path d="M2.41726352,0.255142537 L2.45710678,0.292893219 L3.499,1.334 L3.49975,1.3355 L19.66425,17.5000492 L19.665,17.5 L20.4571068,18.2928932 C20.8476311,18.6834175 20.8476311,19.3165825 20.4571068,19.7071068 C20.0796,20.0846136 19.4753589,20.0971972 19.0827365,19.7448575 L19.0428932,19.7071068 L15.0399298,15.7053761 C14.0740246,16.3485531 12.9555498,16.7807191 11.7503445,16.9360348 L11.75,19 C11.75,19.5522847 11.3022847,20 10.75,20 C10.2144512,20 9.77723028,19.5790079 9.75122383,19.0499101 L9.75,19 L9.75066216,16.9361644 C5.94249276,16.4459097 3,13.1915829 3,9.25 C3,8.69771525 3.44771525,8.25 4,8.25 C4.55228475,8.25 5,8.69771525 5,9.25 C5,12.4256373 7.57436269,15 10.75,15 C11.7815987,15 12.7497473,14.7283376 13.5868084,14.2526501 L12.2805277,12.9467365 C11.8090646,13.1421505 11.2921271,13.25 10.75,13.25 C8.540861,13.25 6.75,11.459139 6.75,9.25 L6.75,9.25 L6.75,7.415 L1.04289322,1.70710678 C0.652368927,1.31658249 0.652368927,0.683417511 1.04289322,0.292893219 C1.42040003,-0.0846135965 2.02464109,-0.0971971571 2.41726352,0.255142537 Z M17.5,8.25 C18.0522847,8.25 18.5,8.69771525 18.5,9.25 C18.5,10.6754885 18.1151411,12.0110883 17.4436609,13.1585621 L15.9635063,11.6785053 C16.2951495,10.9677483 16.4857262,10.1779399 16.4992297,9.34508676 L16.5,9.25 C16.5,8.69771525 16.9477153,8.25 17.5,8.25 Z M10.75,-5.55111512e-17 C12.959139,-5.55111512e-17 14.75,1.790861 14.75,4 L14.75,4 L14.75,9.25 C14.75,9.62054191 14.6996163,9.97931606 14.6053259,10.3198453 L6.97064449,2.68653469 C7.5141107,1.12257529 9.0009596,-5.55111512e-17 10.75,-5.55111512e-17 Z" id="形状结合"></path>
        </g>
    </g>
</svg>