<?xml version="1.0" encoding="UTF-8"?>
<svg width="56px" height="56px" viewBox="0 0 56 56" version="1.1" xmlns="http://www.w3.org/2000/svg" xmlns:xlink="http://www.w3.org/1999/xlink">
    <title>dial_single_button_12</title>
    <g id="dial_single_button_12" stroke="none" stroke-width="1" fill="none" fill-rule="evenodd">
        <path d="M14.8369259,16.8465451 C15.8096063,16.6601305 16.8054146,17.0439825 17.4243338,17.8129835 L17.4243338,17.8129835 L19.4276773,20.2976475 C19.5524384,20.4532632 19.6794797,20.6088789 19.8130359,20.7580106 C20.6294437,21.6774659 20.5883937,23.0697971 19.7192208,23.9400276 L19.7192208,23.9400276 L18.297987,25.280592 C17.7334029,25.8437973 17.6326187,26.7196905 18.0546541,27.3953445 C19.6472308,29.9571681 23.9461129,34.2544309 26.7266886,35.9593954 C27.4042914,36.3736647 28.2790523,36.2706409 28.8407862,35.7104102 L28.8407862,35.7104102 L30.137259,34.4505715 C30.9933157,33.6038313 32.3561618,33.5444252 33.2833228,34.3134351 C33.4347951,34.4398729 33.586593,34.5659864 33.7442547,34.6846435 L33.7442547,34.6846435 L36.5564278,36.8039347 C37.5923018,37.8408617 37.5923018,39.5157252 36.5564278,40.5526522 L36.5564278,40.5526522 L35.7420605,41.3631506 C34.4765337,42.6226653 32.6614719,43.1825576 30.906999,42.8291802 C23.3343602,41.3038222 13.1104672,30.8633054 11.3348208,23.2193323 C10.9233491,21.4281731 11.46781,19.5523789 12.7755994,18.2555156 L12.7755994,18.2555156 L13.4629254,17.5714549 C13.837546,17.198188 14.3162611,16.9456224 14.8369259,16.8465451 Z M38.6559081,12 C39.3159263,12 39.8989423,12.1566485 40.4049562,12.4699454 C40.9109701,12.7832423 41.3033142,13.2404372 41.5819885,13.8415301 C41.8606628,14.442623 42,15.1584699 42,15.989071 C42,16.8269581 41.8606628,17.5464481 41.5819885,18.147541 C41.3033142,18.7486339 40.9109701,19.2076503 40.4049562,19.5245902 C39.962194,19.8019126 39.4604771,19.9579064 38.8998055,19.9925717 L38.6559081,20 L36.2798429,20 L36.2798429,12 L38.6559081,12 Z M30.5180417,12 L30.5180417,15.1803279 L33.1911151,15.1803279 L33.1911151,12 L34.7091568,12 L34.7091568,20 L33.1911151,20 L33.1911151,16.5245902 L30.5180417,16.5245902 L30.5180417,20 L29,20 L29,12 L30.5180417,12 Z M38.4799033,13.3005464 L37.7978846,13.3005464 L37.7978846,18.6885246 L38.4799033,18.6885246 C39.1252544,18.6885246 39.6037675,18.4608379 39.9154427,18.0054645 C40.227118,17.5500911 40.3829556,16.8779599 40.3829556,15.989071 C40.3829556,15.1074681 40.2252846,14.43898 39.9099426,13.9836066 C39.5946006,13.5282332 39.1179208,13.3005464 38.4799033,13.3005464 Z" id="形状结合" fill="#FFFFFF" fill-rule="nonzero"></path>
    </g>
</svg>