<?xml version="1.0" encoding="UTF-8"?>
<svg width="56px" height="56px" viewBox="0 0 56 56" version="1.1" xmlns="http://www.w3.org/2000/svg" xmlns:xlink="http://www.w3.org/1999/xlink">
    <title>dial_single_button_6</title>
    <g id="dial_single_button_6" stroke="none" stroke-width="1" fill="none" fill-rule="evenodd">
        <path d="M35.7420605,41.3631506 L36.5564278,40.5526522 C37.5923018,39.5157252 37.5923018,37.8408617 36.5564278,36.8039347 L33.7442547,34.6846435 C33.586593,34.5659864 33.4347951,34.4398729 33.2833228,34.3134351 C32.3561618,33.5444252 30.9933157,33.6038313 30.137259,34.4505715 L28.8407862,35.7104102 C28.2790523,36.2706409 27.4042914,36.3736647 26.7266886,35.9593954 C23.9461129,34.2544309 19.6472308,29.9571681 18.0546541,27.3953445 C17.6326187,26.7196905 17.7334029,25.8437973 18.297987,25.280592 L19.7192208,23.9400276 C20.5883937,23.0697971 20.6294437,21.6774659 19.8130359,20.7580106 C19.6794797,20.6088789 19.5524384,20.4532632 19.4276773,20.2976475 L17.4243338,17.8129835 C16.8054146,17.0439825 15.8096063,16.6601305 14.8369259,16.8465451 C14.3162611,16.9456224 13.837546,17.198188 13.4629254,17.5714549 L12.7755994,18.2555156 C11.46781,19.5523789 10.9233491,21.4281731 11.3348208,23.2193323 C13.1104672,30.8633054 23.3343602,41.3038222 30.906999,42.8291802 C32.6614719,43.1825576 34.4765337,42.6226653 35.7420605,41.3631506 Z" id="路径" fill="#FFFFFF" fill-rule="nonzero"></path>
        <path d="M31.2682471,16.0677883 C31.9842948,16.0677883 32.5325123,16.2991465 32.9146032,16.761863 C33.2962682,17.2241892 33.4866747,17.9838088 33.4866747,19.0395513 C33.4866747,20.095684 33.2962682,20.8529627 32.9146032,21.3117776 C32.5325123,21.7705925 31.9842948,22 31.2682471,22 C30.5449579,22 29.990351,21.7705925 29.6048523,21.3117776 C29.2189277,20.8529627 29.0263913,20.095684 29.0263913,19.0395513 C29.0263913,17.9838088 29.2189277,17.2241892 29.6048523,16.761863 C29.990351,16.2991465 30.5449579,16.0677883 31.2682471,16.0677883 Z M25.7289934,14 L26.6716548,19.2549134 L27.530401,14 L29.2001852,14 L27.4703398,21.9964887 L25.7890545,21.9964887 L24,14 L25.7289934,14 Z M35.8452449,14 L35.8452449,20.5654231 L38.1113807,20.5654231 L38.1113807,21.9964887 L34.1635337,21.9964887 L34.1635337,14 L35.8452449,14 Z M46.9050097,14 L46.9050097,15.3877591 L44.662728,15.3877591 L44.662728,17.2448671 L46.6903232,17.2448671 L46.6903232,18.6213119 L44.662728,18.6213119 L44.662728,20.6095099 L47,20.6095099 L47,21.9964887 L42.9810168,21.9964887 L42.9810168,14 L46.9050097,14 Z M42.1075748,14 L42.1075748,15.4205316 L40.5809149,15.4205316 L40.5809149,21.9964887 L38.8872766,21.9964887 L38.8872766,15.4205316 L37.3606167,15.4205316 L37.3606167,14 L42.1075748,14 Z M31.25632,17.4227749 C31.0497268,17.4227749 30.9027688,17.5448915 30.8154459,17.7887345 C30.727697,18.0329676 30.6838226,18.4496464 30.6838226,19.0395513 C30.6838226,19.6224336 30.727697,20.0371617 30.8154459,20.2849061 C30.9027688,20.5326506 31.0497268,20.6563277 31.25632,20.6563277 C31.4471525,20.6563277 31.5881471,20.5326506 31.6797296,20.2849061 C31.7713122,20.0371617 31.8173164,19.6224336 31.8173164,19.0395513 C31.8173164,18.4566691 31.773442,18.041941 31.6856931,17.7941965 C31.5983702,17.5464521 31.4552459,17.4227749 31.25632,17.4227749 Z" id="形状结合" fill="#FFFFFF"></path>
    </g>
</svg>