<?xml version="1.0" encoding="UTF-8"?>
<svg width="16px" height="16px" viewBox="0 0 16 16" version="1.1" xmlns="http://www.w3.org/2000/svg" xmlns:xlink="http://www.w3.org/1999/xlink">
    <title>ic_contacts_Dialled</title>
    <defs>
        <path d="M3.18890779,1.35708084 C3.68517326,1.26197133 4.19323874,1.45781422 4.50901382,1.85016164 L4.50901382,1.85016164 L5.53112789,3.11784738 C5.5947815,3.19724314 5.65959849,3.27663891 5.72773943,3.35272652 C6.144274,3.82183635 6.12333014,4.53220938 5.67987458,4.97620454 L5.67987458,4.97620454 L4.95475527,5.66016598 C4.66670216,5.94751557 4.61528163,6.39439995 4.83060581,6.73912137 C5.64314495,8.04617418 7.83645217,10.2386552 9.25511326,11.1085351 C9.60082897,11.319897 10.0471355,11.2673338 10.3337345,10.9815018 L10.3337345,10.9815018 L10.9952001,10.3387269 C11.4319638,9.90671671 12.1272934,9.87640742 12.6003347,10.2687594 C12.6776165,10.3332685 12.7550645,10.3976121 12.8355041,10.4581514 L12.8355041,10.4581514 L14.2702863,11.5394225 C14.7987935,12.0684669 14.7987935,12.922989 14.2702863,13.4520334 L14.2702863,13.4520334 L13.8547928,13.8655531 C13.2091158,14.5081625 12.2830639,14.7938219 11.3879246,14.6135273 C7.52433343,13.8352834 2.30806152,8.50848911 1.40211944,4.60850289 C1.19218491,3.69464615 1.46997111,2.73760827 2.13721058,2.07594335 L2.13721058,2.07594335 L2.48788712,1.72693279 C2.67902006,1.53649045 2.92326245,1.40763045 3.18890779,1.35708084 Z M12.7626154,2 C13.1308053,2 13.4292821,2.29847683 13.4292821,2.66666667 C13.4292821,2.81400916 13.3805058,2.95632268 13.291895,3.07201968 L13.23402,3.13807119 L8.85355339,7.51853775 C8.65829124,7.7137999 8.34170876,7.7137999 8.14644661,7.51853775 C7.96745631,7.33954745 7.95254045,7.05861436 8.10169903,6.8626336 L8.14644661,6.81143097 L11.9576002,2.99997343 L8.6109127,3 C8.35987418,3 8.1520462,2.8149937 8.11633399,2.57388634 L8.1109127,2.5 C8.1109127,2.24896148 8.29591901,2.04113349 8.53702637,2.00542128 L8.6109127,2 L12.7626154,2 Z M13.6645781,3.64949315 L13.6648324,7.05391966 C13.6648324,7.33006204 13.4409747,7.55391966 13.1648324,7.55391966 C12.9137938,7.55391966 12.7059659,7.36891336 12.6702537,7.127806 L12.6648324,7.05391966 L12.6642577,4.64981354 L13.6645781,3.64949315 Z" id="path-1"></path>
    </defs>
    <g id="ic_contacts_Dialled" stroke="none" stroke-width="1" fill="none" fill-rule="evenodd">
        <rect id="矩形" x="0" y="0" width="16" height="16"></rect>
        <mask id="mask-2" fill="white">
            <use xlink:href="#path-1"></use>
        </mask>
        <use id="形状结合" fill="#999999" xlink:href="#path-1"></use>
    </g>
</svg>