<?xml version="1.0" encoding="utf-8"?>
<!-- Generator: Adobe Illustrator 19.0.0, SVG Export Plug-In . SVG Version: 6.00 Build 0)  -->
<svg version="1.0" id="图层_1" xmlns="http://www.w3.org/2000/svg" xmlns:xlink="http://www.w3.org/1999/xlink" x="0px" y="0px"
	 viewBox="0 0 96 96" style="enable-background:new 0 0 96 96;" xml:space="preserve">
<g id="ic_contacts_delete_m">
	<path id="形状结合" d="M32,26L32,26c-1.5,0-3.1,0.6-4.3,1.8l-16,16c-2.3,2.3-2.3,6.1,0,8.5l16,16c0.2,0.2,0.4,0.3,0.5,0.5h0
		c0.3,0.2,0.5,0.4,0.8,0.5c0.2,0.1,0.3,0.2,0.5,0.3c0,0,0,0,0,0c0.6,0.3,1.3,0.4,1.9,0.5c0,0,0,0,0.1,0c0.1,0,0.2,0,0.4,0v0h37.6H80
		c3.3,0,6-2.7,6-6V53.6V42.4V32c0-3.3-2.7-6-6-6l0,0h-0.1v0H32z M31.9,20L31.9,20l48,0c0,0,0.1,0,0.1,0c6.6,0,12,5.4,12,12v31.9
		c0,0,0,0.1,0,0.1c0,6.6-5.4,12-12,12c-0.1,0-0.1,0-0.2,0v0H32.6c0,0,0,0,0,0s0,0,0,0h-0.7v0c-3,0-6-1.2-8.3-3.5l-16-16
		c-4.7-4.7-4.7-12.3,0-17l16-16C25.8,21.2,28.9,20,31.9,20z M64.9,34.9c1.2-1.2,3.1-1.2,4.2,0c1.2,1.2,1.2,3.1,0,4.2L60.2,48
		l8.9,8.9c1.2,1.2,1.2,3.1,0,4.2c-1.2,1.2-3.1,1.2-4.2,0L56,52.2l-8.9,8.9c-1.2,1.2-3.1,1.2-4.2,0c-1.2-1.2-1.2-3.1,0-4.2l8.9-8.9
		l-8.9-8.9c-1.2-1.2-1.2-3.1,0-4.2c1.2-1.2,3.1-1.2,4.2,0l8.9,8.9L64.9,34.9z"/>
</g>
</svg>
