<?xml version="1.0" encoding="UTF-8" standalone="no"?>
<svg
   xmlns:dc="http://purl.org/dc/elements/1.1/"
   xmlns:cc="http://creativecommons.org/ns#"
   xmlns:rdf="http://www.w3.org/1999/02/22-rdf-syntax-ns#"
   xmlns:svg="http://www.w3.org/2000/svg"
   xmlns="http://www.w3.org/2000/svg"
   xmlns:sodipodi="http://sodipodi.sourceforge.net/DTD/sodipodi-0.dtd"
   xmlns:inkscape="http://www.inkscape.org/namespaces/inkscape"
   version="1.0"
   id="图层_1"
   x="0px"
   y="0px"
   viewBox="0 0 96 96"
   style="enable-background:new 0 0 96 96;"
   xml:space="preserve"
   sodipodi:docname="ic_contacts_favorite_filled_m.svg"
   inkscape:version="1.0 (4035a4fb49, 2020-05-01)"><metadata
   id="metadata10"><rdf:RDF><cc:Work
       rdf:about=""><dc:format>image/svg+xml</dc:format><dc:type
         rdf:resource="http://purl.org/dc/dcmitype/StillImage" /></cc:Work></rdf:RDF></metadata><defs
   id="defs8" /><sodipodi:namedview
   inkscape:document-rotation="0"
   pagecolor="#ffffff"
   bordercolor="#666666"
   borderopacity="1"
   objecttolerance="10"
   gridtolerance="10"
   guidetolerance="10"
   inkscape:pageopacity="0"
   inkscape:pageshadow="2"
   inkscape:window-width="1920"
   inkscape:window-height="1017"
   id="namedview6"
   showgrid="false"
   inkscape:zoom="8.6096807"
   inkscape:cx="48"
   inkscape:cy="48"
   inkscape:window-x="-8"
   inkscape:window-y="-8"
   inkscape:window-maximized="1"
   inkscape:current-layer="图层_1" />

<g
   transform="matrix(4.2246608,0,0,4.2081728,-2.5913214,-2.7424319)"
   id="收藏2"
   stroke="none"
   stroke-width="1"
   fill="none"
   fill-rule="evenodd"><g
     id="featured"
     transform="translate(2,2.5)"><g
       id="编组"><mask
         id="mask-2"
         fill="black"><path
           id="use7"
           d="M 8.8865599,0.68192675 C 9.3275858,-0.21107257 10.587297,-0.22701898 11.057562,0.6340875 l 0.02486,0.0478392 2.133758,4.3264331 c 0.170237,0.3465547 0.492818,0.5886455 0.868026,0.6611805 l 0.05395,0.0092 4.77707,0.6958599 c 0.986465,0.1424894 1.390916,1.3381477 0.713713,2.0517194 l -0.03537,0.03586 -3.450637,3.3726114 c -0.276008,0.268426 -0.409029,0.649508 -0.361924,1.027702 l 0.0084,0.05669 0.815287,4.757962 c 0.16611,0.984127 -0.846025,1.738465 -1.734196,1.311399 l -0.04287,-0.02159 -4.272293,-2.246816 C 10.214984,16.54164 9.8128218,16.532715 9.4690066,16.693368 l -0.053784,0.02678 -4.2707006,2.243631 C 4.2606879,19.42763 3.2288022,18.697818 3.3601812,17.721399 l 0.00727,-0.04743 0.8152866,-4.757962 C 4.244916,12.535354 4.1308873,12.151816 3.8695387,11.872682 L 3.8292351,11.831608 0.37063632,8.4621815 C -0.34337642,7.7669586 0.03273293,6.5620882 0.99932506,6.3843396 l 0.0496552,-0.00815 4.77707,-0.6926752 C 6.2051829,5.6274075 6.536653,5.3965338 6.7227977,5.0638016 l 0.02682,-0.050665 z" /></mask><path
         style="fill:black"
         id="形状"
         d="M 8.8865599,0.68192675 C 9.3275858,-0.21107257 10.587297,-0.22701898 11.057562,0.6340875 l 0.02486,0.0478392 2.133758,4.3264331 c 0.170237,0.3465547 0.492818,0.5886455 0.868026,0.6611805 l 0.05395,0.0092 4.77707,0.6958599 c 0.986465,0.1424894 1.390916,1.3381477 0.713713,2.0517194 l -0.03537,0.03586 -3.450637,3.3726114 c -0.276008,0.268426 -0.409029,0.649508 -0.361924,1.027702 l 0.0084,0.05669 0.815287,4.757962 c 0.16611,0.984127 -0.846025,1.738465 -1.734196,1.311399 l -0.04287,-0.02159 -4.272293,-2.246816 C 10.214984,16.54164 9.8128218,16.532715 9.4690066,16.693368 l -0.053784,0.02678 -4.2707006,2.243631 C 4.2606879,19.42763 3.2288022,18.697818 3.3601812,17.721399 l 0.00727,-0.04743 0.8152866,-4.757962 C 4.244916,12.535354 4.1308873,12.151816 3.8695387,11.872682 L 3.8292351,11.831608 0.37063632,8.4621815 C -0.34337642,7.7669586 0.03273293,6.5620882 0.99932506,6.3843396 l 0.0496552,-0.00815 4.77707,-0.6926752 C 6.2051829,5.6274075 6.536653,5.3965338 6.7227977,5.0638016 l 0.02682,-0.050665 z" /></g><path
       d="m 16.142929,11.834793 c -0.108852,0.105862 -0.195464,0.229246 -0.257559,0.363064 -1.217506,1.716159 -2.184911,2.984776 -2.901864,3.806467 -0.450293,0.516076 -0.885722,0.952046 -1.306286,1.30791 L 10.55535,16.720143 C 10.214984,16.54164 9.8128218,16.532715 9.4690066,16.693368 l -0.053784,0.02678 -0.6134167,0.323083 c 2.7514051,-1.62869 5.1984461,-3.364834 7.3411231,-5.208433 z"
       id="形状结合"
       fill-opacity="0.8"
       fill="#ffffff"
       fill-rule="nonzero" /></g></g></svg>
