<?xml version="1.0" encoding="UTF-8"?>
<svg width="16px" height="16px" viewBox="0 0 16 16" version="1.1" xmlns="http://www.w3.org/2000/svg" xmlns:xlink="http://www.w3.org/1999/xlink">
    <title>ic_contacts_Reject</title>
    <defs>
        <path d="M1.63372965,10.4325204 C4.58777543,8.4690174 11.2973417,8.53935342 14.3558157,10.4447514 C15.0709921,10.8927248 15.5032652,11.678562 15.4997393,12.5242716 L15.4997393,12.5242716 L15.4986574,12.9695497 C15.4982179,13.2123828 15.424789,13.4498237 15.2879029,13.6510489 C15.0326088,14.0273976 14.5846443,14.2260949 14.1339979,14.1773645 L14.1339979,14.1773645 L12.5397601,14.0070466 L12.4021792,13.9967303 C11.8385586,13.9632716 11.3998085,13.4978644 11.3994651,12.9330942 L11.3994651,12.9330942 L11.4256578,12.0363607 C11.4261056,11.6701767 11.1744339,11.3530574 10.8180231,11.2707095 C9.46912301,10.9560029 6.67802447,10.9565287 5.22160592,11.305771 C4.86708389,11.3912732 4.61650716,11.7087519 4.61601905,12.0730447 L4.61601905,12.0730447 L4.6041243,12.9030584 C4.60109924,13.4559427 4.17788289,13.9177365 3.62714996,13.9690868 C3.53691481,13.9772153 3.44667916,13.9855549 3.35696079,13.9982193 L3.35696079,13.9982193 L1.75575425,14.2231925 C1.08273257,14.2228506 0.538918006,13.679036 0.538576101,13.0060143 L0.538576101,13.0060143 L0.539832288,12.4784336 C0.541784403,11.6585731 0.949327769,10.8874448 1.63372965,10.4325204 Z M9.20166667,5.16133333 L10.7342653,6.69382515 C10.9295274,6.8890873 10.9295274,7.20566979 10.7342653,7.40093193 C10.5567542,7.57844297 10.2789784,7.59458034 10.0832374,7.44934403 L10.0271585,7.40093193 L8.49466667,5.86833333 L9.20166667,5.16133333 Z M10.7342653,1.97977994 C10.9117763,2.15729098 10.9279137,2.43506677 10.7826774,2.63080777 L10.7342653,2.68688672 L6.02022006,7.40093193 C5.82495791,7.59619408 5.50837542,7.59619408 5.31311328,7.40093193 C5.13560223,7.22342089 5.11946487,6.9456451 5.26470117,6.74990411 L5.31311328,6.69382515 L7.31666667,4.69033333 L5.31311328,2.68688672 C5.11785113,2.49162458 5.11785113,2.17504209 5.31311328,1.97977994 C5.49062432,1.8022689 5.76840011,1.78613153 5.9641411,1.93136784 L6.02022006,1.97977994 L8.02366667,3.98333333 L10.0271585,1.97977994 C10.2224206,1.7845178 10.5390031,1.7845178 10.7342653,1.97977994 Z" id="path-1"></path>
    </defs>
    <g id="ic_contacts_Reject" stroke="none" stroke-width="1" fill="none" fill-rule="evenodd">
        <rect id="矩形" x="0" y="0" width="16" height="16"></rect>
        <mask id="mask-2" fill="white">
            <use xlink:href="#path-1"></use>
        </mask>
        <use id="形状结合" fill="#999999" fill-rule="nonzero" xlink:href="#path-1"></use>
    </g>
</svg>