<?xml version="1.0" encoding="UTF-8"?>
<svg width="12px"
     height="12px"
     viewBox="0 0 12 12"
     version="1.1"
     xmlns="http://www.w3.org/2000/svg"
     xmlns:xlink="http://www.w3.org/1999/xlink">
    <title>ic_contacts_call refuse</title>
    <g
        id="ic_contacts_call-refuse"
        stroke="none"
        stroke-width="1"
        fill="none"
        fill-rule="evenodd">
        <rect
            id="矩形"
            x="0"
            y="0"
            width="12"
            height="12"></rect>
        <path
            d="M1.22529724,7.82439028 C3.44083157,6.35176305 8.47300627,6.40451506 10.7668618,7.83356358 C11.3032441,8.1695436 11.6274489,8.75892152 11.6248045,9.3932037 L11.6248045,9.3932037 L11.623993,9.72716231 C11.6236634,9.90928707 11.5685917,10.0873678 11.4659272,10.2382867 C11.2744566,10.5205482 10.9384832,10.6695712 10.6004984,10.6330234 L10.6004984,10.6330234 L9.40482009,10.505285 L9.30163441,10.4975478 C8.87891893,10.4724537 8.5498564,10.1233983 8.54959885,9.69982068 L8.54959885,9.69982068 L8.56924337,9.02727056 C8.56957916,8.75263253 8.38082542,8.51479306 8.1135173,8.45303213 C7.10184226,8.2170022 5.00851835,8.21739655 3.91620444,8.47932822 C3.65031292,8.54345489 3.46238037,8.78156394 3.46201429,9.05478355 L3.46201429,9.05478355 L3.45309322,9.67729377 C3.45082443,10.091957 3.13341216,10.4383023 2.72036247,10.4768151 C2.65268611,10.4829115 2.58500937,10.4891662 2.51772059,10.4986645 L2.51772059,10.4986645 L1.31681569,10.6673943 C0.81204943,10.6671379 0.404188505,10.259277 0.403932076,9.75451074 L0.403932076,9.75451074 L0.404874216,9.35882519 C0.406338302,8.74392984 0.711995827,8.16558357 1.22529724,7.82439028 Z M6.902,3.87 L8.05069895,5.02036886 C8.19714556,5.16681547 8.19714556,5.40425234 8.05069895,5.55069895 C7.91756567,5.68383223 7.70923383,5.69593526 7.56242808,5.58700803 L7.52036886,5.55069895 L6.371,4.401 L6.902,3.87 Z M4.47310583,1.44852588 L4.51516504,1.48483496 L6.017,2.987 L7.52036886,1.48483496 C7.66681547,1.33838835 7.90425234,1.33838835 8.05069895,1.48483496 C8.18383223,1.61796824 8.19593526,1.82630008 8.08700803,1.97310583 L8.05069895,2.01516504 L7.2858827,2.77980663 L6.017,4.048 L4.51516504,5.55069895 C4.36871843,5.69714556 4.13128157,5.69714556 3.98483496,5.55069895 C3.85170168,5.41756567 3.83959865,5.20923383 3.94852588,5.06242808 L3.98483496,5.02036886 L5.487,3.517 L3.98483496,2.01516504 C3.83838835,1.86871843 3.83838835,1.63128157 3.98483496,1.48483496 C4.11796824,1.35170168 4.32630008,1.33959865 4.47310583,1.44852588 Z"
            id="形状结合"
            fill="#000000"
            fill-rule="nonzero"></path>
    </g>
</svg>
