<?xml version="1.0" encoding="UTF-8"?>
<svg width="12px"
     height="12px"
     viewBox="0 0 12 12"
     version="1.1"
     xmlns="http://www.w3.org/2000/svg"
     xmlns:xlink="http://www.w3.org/1999/xlink">
    <title>ic_contacts_call incoming</title>
    <g
        id="ic_contacts_call-incoming"
        stroke="none"
        stroke-width="1"
        fill="none"
        fill-rule="evenodd">
        <rect
            id="矩形"
            x="0"
            y="0"
            width="12"
            height="12"></rect>
        <path
            d="M2.39168084,1.01781063 C2.76387994,0.946478498 3.14492906,1.09336067 3.38176037,1.38762123 L3.38176037,1.38762123 L4.14834592,2.33838553 C4.19608613,2.39793236 4.24469887,2.45747918 4.29580457,2.51454489 C4.6082055,2.86637726 4.5924976,3.39915704 4.25990593,3.7321534 L4.25990593,3.7321534 L3.71606646,4.24512449 C3.50002662,4.46063668 3.46146123,4.79579996 3.62295436,5.05434103 C4.23235871,6.03463063 5.87733913,7.67899139 6.94133495,8.33140129 C7.20062173,8.48992274 7.53535162,8.45050036 7.75030084,8.23612637 L7.75030084,8.23612637 L8.24640011,7.7540452 C8.57397284,7.43003753 9.09547007,7.40730557 9.45025105,7.70156956 C9.5082124,7.74995136 9.56629839,7.7982091 9.62662805,7.84361355 L9.62662805,7.84361355 L10.7027147,8.65456688 C11.0990951,9.05135017 11.0990951,9.69224178 10.7027147,10.0890251 L10.7027147,10.0890251 L10.3910946,10.3991648 C9.90683689,10.8811219 9.21229791,11.0953664 8.54094347,10.9601455 C5.64325007,10.3764626 1.73104614,6.38136683 1.05158958,3.45637717 C0.894138686,2.77098461 1.10247833,2.0532062 1.60290794,1.55695751 L1.60290794,1.55695751 L1.86591534,1.29519959 C2.00926505,1.15236784 2.19244684,1.05572284 2.39168084,1.01781063 Z M10.1387893,1.60983496 C10.273032,1.74407768 10.2842189,1.9547775 10.17235,2.10176307 L10.1387893,2.14016504 L7.28042415,4.9987582 L9.79043975,4.99873827 C9.97871864,4.99873827 10.1345896,5.137493 10.1613738,5.31832352 L10.1654397,5.37373827 C10.1654397,5.56201716 10.026685,5.71788815 9.8458545,5.74467231 L9.79043975,5.74873827 L6.6766627,5.74873827 C6.40052033,5.74873827 6.1766627,5.52488065 6.1766627,5.24873827 C6.1766627,5.1382314 6.21324494,5.03149626 6.27970301,4.94472351 L6.32310931,4.89518488 L9.60845923,1.60983496 C9.75490584,1.46338835 9.99234271,1.46338835 10.1387893,1.60983496 Z M6.375,1.58329852 C6.56327889,1.58329852 6.71914988,1.72205325 6.74593404,1.90288377 L6.75,1.95829852 L6.750431,3.76137811 L6.0001907,4.51161841 L6,1.95829852 C6,1.75119174 6.16789322,1.58329852 6.375,1.58329852 Z"
            id="形状结合"
            fill="#000000"></path>
    </g>
</svg>
