<?xml version="1.0" encoding="utf-8"?>
<!-- Generator: Adobe Illustrator 19.0.0, SVG Export Plug-In . SVG Version: 6.00 Build 0)  -->
<svg version="1.0" id="图层_1" xmlns="http://www.w3.org/2000/svg" x="0px" y="0px"
	 viewBox="0 0 48 48" style="enable-background:new 0 0 48 48;" xml:space="preserve">
<g id="Group-7-Copy" transform="translate(2.000000, 14.000000)" fill="gray">
	<path id="Fill-1" class="st0" d="M10,0C4.5,0,0,4.5,0,10s4.5,10,10,10s10-4.5,10-10S15.5,0,10,0 M10,4c3.3,0,6,2.7,6,6s-2.7,6-6,6s-6-2.7-6-6
		S6.7,4,10,4"/>
	<path id="Fill-3" class="st0" d="M34,0c-5.5,0-10,4.5-10,10s4.5,10,10,10s10-4.5,10-10S39.5,0,34,0 M34,4c3.3,0,6,2.7,6,6s-2.7,6-6,6
		s-6-2.7-6-6S30.7,4,34,4"/>
	<g id="Clip-6">
	</g>
	<polygon id="Fill-5" class="st0" points="10,20 34,20 34,16 10,16 	"/>
</g>
<g id="XMLID_1_">
</g>
<g id="XMLID_2_">
</g>
<g id="XMLID_3_">
</g>
<g id="XMLID_4_">
</g>
<g id="XMLID_5_">
</g>
<g id="XMLID_6_">
</g>
</svg>
