<?xml version="1.0" encoding="UTF-8"?>
<svg width="12px"
     height="12px"
     viewBox="0 0 12 12"
     version="1.1"
     xmlns="http://www.w3.org/2000/svg"
     xmlns:xlink="http://www.w3.org/1999/xlink">
    <title>ic_contacts_callrefuse</title>
    <g
        id="ic_contacts_callrefuse"
        stroke="none"
        stroke-width="1"
        fill="none"
        fill-rule="evenodd">
        <rect
            id="矩形"
            x="0"
            y="0"
            width="12"
            height="12"></rect>
        <path
            d="M2.39168084,1.01781063 C2.76387994,0.946478498 3.14492906,1.09336067 3.38176037,1.38762123 L3.38176037,1.38762123 L4.14834592,2.33838553 C4.19608613,2.39793236 4.24469887,2.45747918 4.29580457,2.51454489 C4.6082055,2.86637726 4.5924976,3.39915704 4.25990593,3.7321534 L4.25990593,3.7321534 L3.71606646,4.24512449 C3.50002662,4.46063668 3.46146123,4.79579996 3.62295436,5.05434103 C4.23235871,6.03463063 5.87733913,7.67899139 6.94133495,8.33140129 C7.20062173,8.48992274 7.53535162,8.45050036 7.75030084,8.23612637 L7.75030084,8.23612637 L8.24640011,7.7540452 C8.57397284,7.43003753 9.09547007,7.40730557 9.45025105,7.70156956 C9.5082124,7.74995136 9.56629839,7.7982091 9.62662805,7.84361355 L9.62662805,7.84361355 L10.7027147,8.65456688 C11.0990951,9.05135017 11.0990951,9.69224178 10.7027147,10.0890251 L10.7027147,10.0890251 L10.3910946,10.3991648 C9.90683689,10.8811219 9.21229791,11.0953664 8.54094347,10.9601455 C5.64325007,10.3764626 1.73104614,6.38136683 1.05158958,3.45637717 C0.894138686,2.77098461 1.10247833,2.0532062 1.60290794,1.55695751 L1.60290794,1.55695751 L1.86591534,1.29519959 C2.00926505,1.15236784 2.19244684,1.05572284 2.39168084,1.01781063 Z M9.57196158,1.5 C9.84810395,1.5 10.0719616,1.72385763 10.0719616,2 C10.0719616,2.11050687 10.0353793,2.21724201 9.96892126,2.30401476 L9.92551497,2.35355339 L6.64016504,5.63890331 C6.49371843,5.78534992 6.25628157,5.78534992 6.10983496,5.63890331 C5.97559223,5.50466059 5.96440534,5.29396077 6.07627428,5.1469752 L6.10983496,5.10857323 L8.96820012,2.24998007 L6.45818453,2.25 C6.26990564,2.25 6.11403465,2.11124527 6.08725049,1.93041475 L6.08318453,1.875 C6.08318453,1.68672111 6.22193925,1.53085012 6.40276978,1.50406596 L6.45818453,1.5 L9.57196158,1.5 Z M10.2484336,2.73711986 L10.2486243,5.29043975 C10.2486243,5.49754653 10.0807311,5.66543975 9.87362428,5.66543975 C9.68534538,5.66543975 9.52947439,5.52668502 9.50269024,5.3458545 L9.49862428,5.29043975 L9.49819328,3.48736016 L10.2484336,2.73711986 Z"
            id="形状结合"
            fill="#000000"></path>
    </g>
</svg>
