<?xml version="1.0" encoding="UTF-8" standalone="no"?>
<svg xmlns="http://www.w3.org/2000/svg"
     width="32.000000px" height="32.000000px" viewBox="0 0 200.000000 200.000000"
     preserveAspectRatio="xMidYMid meet">

  <g transform="translate(0.000000,200.000000) scale(0.100000,-0.100000)"
     fill="#808080" stroke="none">
    <path d="M193 1445 c-30 -21 -39 -75 -20 -111 9 -16 188 -201 399 -411 375
-375 384 -383 423 -383 39 0 48 8 437 398 393 393 398 398 398 438 0 54 -31
84 -85 84 -38 0 -49 -10 -395 -355 l-355 -355 -355 355 c-332 331 -358 355
-391 355 -19 0 -44 -7 -56 -15z"/>
  </g>
</svg>
