<?xml version="1.0" encoding="UTF-8"?>
<svg width="24px" height="16px" viewBox="0 0 24 16" version="1.1" xmlns="http://www.w3.org/2000/svg" xmlns:xlink="http://www.w3.org/1999/xlink">
    <title>ic_contacts_calllog_volte备份</title>
    <g id="ic_contacts_calllog_volte备份" stroke="none" stroke-width="1" fill="none" fill-rule="evenodd">
        <path d="M8.54272714,10.0901571 C9.12627429,10.0901571 9.57304714,10.3188857 9.88443429,10.7763429 C10.1954743,11.2334143 10.3506471,11.9844 10.3506471,13.0281429 C10.3506471,14.0722714 10.1954743,14.8209429 9.88443429,15.2745429 C9.57304714,15.7281429 9.12627429,15.9549429 8.54272714,15.9549429 C7.95327857,15.9549429 7.50129857,15.7281429 7.18713429,15.2745429 C6.87262286,14.8209429 6.71571429,14.0722714 6.71571429,13.0281429 C6.71571429,11.9844 6.87262286,11.2334143 7.18713429,10.7763429 C7.50129857,10.3188857 7.95327857,10.0901571 8.54272714,10.0901571 Z M4.06987629,8.04587143 L4.83810343,13.2410571 L5.53794343,8.04587143 L6.89874343,8.04587143 L5.48899629,15.9514714 L4.11882343,15.9514714 L2.66082343,8.04587143 L4.06987629,8.04587143 Z M12.314172,8.04587143 L12.314172,14.5366714 L14.160972,14.5366714 L14.160972,15.9514714 L10.943652,15.9514714 L10.943652,8.04587143 L12.314172,8.04587143 Z M21.1803086,8.04587143 L21.1803086,9.41785714 L19.3529486,9.41785714 L19.3529486,11.2538571 L21.0053486,11.2538571 L21.0053486,12.6146571 L19.3529486,12.6146571 L19.3529486,14.5802571 L21.2577214,14.5802571 L21.2577214,15.9514714 L17.9824286,15.9514714 L17.9824286,8.04587143 L21.1803086,8.04587143 Z M17.3728457,8.04587143 L17.3728457,9.45025714 L16.1286857,9.45025714 L16.1286857,15.9514714 L14.7484457,15.9514714 L14.7484457,9.45025714 L13.5042857,9.45025714 L13.5042857,8.04587143 L17.3728457,8.04587143 Z M8.53300714,11.4297429 C8.36464286,11.4297429 8.24487857,11.5504714 8.17371429,11.7915429 C8.10220286,12.033 8.06644714,12.4449429 8.06644714,13.0281429 C8.06644714,13.6044 8.10220286,14.0144143 8.17371429,14.2593429 C8.24487857,14.5042714 8.36464286,14.6265429 8.53300714,14.6265429 C8.68852714,14.6265429 8.80343143,14.5042714 8.87806714,14.2593429 C8.95270286,14.0144143 8.99019429,13.6044 8.99019429,13.0281429 C8.99019429,12.4518857 8.95443857,12.0418714 8.88292714,11.7969429 C8.81176286,11.5520143 8.69512286,11.4297429 8.53300714,11.4297429 Z" id="形状结合" fill="#FFFFFF"></path>
    </g>
</svg>