<?xml version="1.0" encoding="UTF-8"?>
<svg width="24px" height="24px" viewBox="0 0 24 24" version="1.1" xmlns="http://www.w3.org/2000/svg" xmlns:xlink="http://www.w3.org/1999/xlink">
    <title>ic_feature_normal_filled</title>
    <g id="ic_feature_normal_filled" stroke="none" stroke-width="1" fill="none" fill-rule="evenodd">
        <g id="ic_feature" transform="translate(2.020000, 2.450000)" fill-rule="nonzero">
            <path d="M8.88655989,0.681926752 C9.32758582,-0.211072566 10.5872969,-0.227018982 11.0575616,0.634087502 L11.0824198,0.681926752 L13.2161777,5.00835987 C13.3864151,5.35491459 13.7089957,5.59700545 14.0842038,5.66954038 L14.1381522,5.67874204 L18.9152223,6.37460191 C19.9016873,6.5170913 20.3061379,7.71274947 19.6289349,8.42632117 L19.5935663,8.46218153 L16.1429293,11.834793 C15.8669208,12.1032188 15.7338995,12.4843012 15.7810047,12.8624949 L15.7894261,12.9191879 L16.6047128,17.6771497 C16.7708234,18.6612767 15.7586879,19.4156148 14.8705165,18.9885491 L14.8276427,18.9669586 L10.5553497,16.7201433 C10.2149835,16.5416401 9.81282183,16.532715 9.46900655,16.6933678 L9.41522231,16.7201433 L5.14452167,18.9637739 C4.26068789,19.4276299 3.22880224,18.6978178 3.36018121,17.7213995 L3.36745161,17.673965 L4.18273824,12.9160032 C4.24491597,12.5353541 4.13088735,12.1518164 3.86953865,11.872682 L3.82923505,11.8316083 L0.370636324,8.46218153 C-0.343376415,7.7669586 0.0327329273,6.5620882 0.999325063,6.38433965 L1.04898027,6.37619427 L5.82605034,5.68351911 C6.20518288,5.62740749 6.53665305,5.39653383 6.72279767,5.0638016 L6.74961722,5.01313694 L8.88655989,0.681926752 Z" id="路径" fill="#62778C"></path>
            <path d="M16.1429293,11.834793 C16.0340771,11.9406547 15.9474645,12.0640386 15.8853696,12.1978569 C14.6678641,13.9140158 13.7004595,15.1826327 12.9835063,16.0043241 C12.5332128,16.5204 12.097784,16.9563699 11.6772199,17.3122338 L10.5553497,16.7201433 C10.2149835,16.5416401 9.81282183,16.532715 9.46900655,16.6933678 L9.41522231,16.7201433 L8.80180562,17.0432262 C11.5532112,15.4145361 14.0002524,13.6783917 16.1429293,11.834793 L16.1429293,11.834793 Z" id="形状结合" fill-opacity="0.6" fill="#000000"></path>
        </g>
    </g>
</svg>