<?xml version="1.0" encoding="UTF-8"?>
<svg width="12px"
     height="12px"
     viewBox="0 0 12 12"
     version="1.1"
     xmlns="http://www.w3.org/2000/svg"
     xmlns:xlink="http://www.w3.org/1999/xlink">
    <title>ic_contacts_call missed</title>
    <g
        id="ic_contacts_call-missed"
        stroke="none"
        stroke-width="1"
        fill="none"
        fill-rule="evenodd">
        <rect
            id="矩形"
            x="0"
            y="0"
            width="12"
            height="12"></rect>
        <path
            d="M1.22529724,7.82439028 C3.44083157,6.35176305 8.47300627,6.40451506 10.7668618,7.83356358 C11.3032441,8.1695436 11.6274489,8.75892152 11.6248045,9.3932037 L11.6248045,9.3932037 L11.623993,9.72716231 C11.6236634,9.90928707 11.5685917,10.0873678 11.4659272,10.2382867 C11.2744566,10.5205482 10.9384832,10.6695712 10.6004984,10.6330234 L10.6004984,10.6330234 L9.40482009,10.505285 L9.30163441,10.4975478 C8.87891893,10.4724537 8.5498564,10.1233983 8.54959885,9.69982068 L8.54959885,9.69982068 L8.56924337,9.02727056 C8.56957916,8.75263253 8.38082542,8.51479306 8.1135173,8.45303213 C7.10184226,8.2170022 5.00851835,8.21739655 3.91620444,8.47932822 C3.65031292,8.54345489 3.46238037,8.78156394 3.46201429,9.05478355 L3.46201429,9.05478355 L3.45309322,9.67729377 C3.45082443,10.091957 3.13341216,10.4383023 2.72036247,10.4768151 C2.65268611,10.4829115 2.58500937,10.4891662 2.51772059,10.4986645 L2.51772059,10.4986645 L1.31681569,10.6673943 C0.81204943,10.6671379 0.404188505,10.259277 0.403932076,9.75451074 L0.403932076,9.75451074 L0.404874216,9.35882519 C0.406338302,8.74392984 0.711995827,8.16558357 1.22529724,7.82439028 Z M9.9551559,1.53977698 C10.0869776,1.66412794 10.1087545,1.86138216 10.0169328,2.00967871 L9.97061528,2.06988169 L6.71868917,5.52088595 C6.7004206,5.56374096 6.67380632,5.60388632 6.63884632,5.63884632 C6.50460359,5.77308904 6.29390377,5.78427594 6.1469182,5.672407 L6.10851623,5.63884632 L3.272943,2.80355803 L3.27364077,5.22811277 L3.26957481,5.28352752 C3.26389161,5.32189702 3.25239662,5.35837217 3.2360134,5.39202938 C3.19689698,5.53227002 3.07757008,5.63962607 2.93035775,5.66143078 L2.874943,5.66549675 C2.68666411,5.66549675 2.53079312,5.52674202 2.50400897,5.3459115 L2.499943,5.29049675 L2.499943,2.1767197 C2.499943,2.1055206 2.51482478,2.03779732 2.54164749,1.97649072 C2.59506508,1.79354506 2.74919867,1.65347938 2.93987307,1.62132149 L3.02364077,1.61433572 L3.08936276,1.61867194 C3.17062567,1.62944542 3.24794554,1.66004194 3.31449192,1.70763223 L3.37719416,1.76078233 L6.38910606,4.77292406 L9.42505118,1.55523636 L9.46245852,1.52057051 C9.6061206,1.40446441 9.81705698,1.40950454 9.9551559,1.53977698 Z M6.29038275,1.500057 C6.49748953,1.500057 6.66538275,1.66795022 6.66538275,1.875057 C6.66538275,2.06333589 6.52662802,2.21920688 6.3457975,2.24599103 L6.29038275,2.250057 L4.48730316,2.250488 L3.73706287,1.5002477 L6.29038275,1.500057 Z"
            id="形状结合"
            fill="#E73F25"></path>
    </g>
</svg>
