<?xml version="1.0" encoding="UTF-8"?>
<svg width="32px" height="32px" viewBox="0 0 32 32" version="1.1" xmlns="http://www.w3.org/2000/svg" xmlns:xlink="http://www.w3.org/1999/xlink">
    <title>ic_public_phone_filled</title>
    <defs>
        <path d="M2.80383136,9.19569286 C2.3851966,7.37413392 2.93922316,5.46619007 4.26905302,4.14715879 C5.00747822,3.31791893 5.70644875,2.84017156 6.36596462,2.71391668 C7.35523843,2.52453436 8.36818503,2.91492774 8.99738311,3.69696046 L11.1380768,6.3431686 C11.2451977,6.47429819 11.3291141,6.57636119 11.3801746,6.63735177 L11.4269598,6.69219143 C12.2383007,7.60621789 12.2170753,8.97956366 11.3904182,9.86756455 L11.331438,9.92871874 L9.88615135,11.2921884 C9.31177449,11.8649038 9.20919236,12.7557483 9.63862524,13.4430899 C10.4714258,14.7828307 12.0319402,16.5891953 13.736059,18.2638485 C15.4108047,19.9680598 17.2171693,21.5285742 18.5569101,22.3613748 C19.2442517,22.7908076 20.1350962,22.6882255 20.7078116,22.1138487 L22.0712813,20.668562 L22.1324355,20.6095818 C22.9964363,19.8052668 24.3199017,19.763435 25.2327104,20.5090797 L25.4627514,20.7028192 C25.986412,21.1343264 27.6252779,22.4573119 28.3030395,23.0026169 C29.0850723,23.631815 29.4754656,24.6447616 29.2860833,25.6340354 C29.1598284,26.2935512 28.6820811,26.9925218 27.8528412,27.730947 C26.5338099,29.0607768 24.6258661,29.6148034 22.8043071,29.1961686 C18.9252249,28.2949862 14.3381392,25.2548012 10.5224011,21.4776914 C6.74519883,17.6618608 3.70501375,13.0747751 2.80383136,9.19569286 Z" id="path-1"></path>
    </defs>
    <g id="ic_public_phone_filled" stroke="none" stroke-width="1" fill="none" fill-rule="evenodd">
        <rect id="矩形" x="0" y="0" width="32" height="32"></rect>
        <mask id="mask-2" fill="white">
            <use xlink:href="#path-1"></use>
        </mask>
        <use id="路径" fill="#ffffff" xlink:href="#path-1"></use>
    </g>
</svg>