<?xml version="1.0" encoding="UTF-8"?>
<svg width="24px" height="24px" viewBox="0 0 24 24" version="1.1" xmlns="http://www.w3.org/2000/svg" xmlns:xlink="http://www.w3.org/1999/xlink">
    <title>call2</title>
    <defs>
        <filter id="filter-1">
            <feColorMatrix in="SourceGraphic" type="matrix" values="0 0 0 0 0.000000 0 0 0 0 0.796078 0 0 0 0 0.529412 0 0 0 1.000000 0"></feColorMatrix>
        </filter>
        <path d="M0.102873519,4.89676965 C-0.21110255,3.53060044 0.204417367,2.09964255 1.20178976,1.11036909 C1.75560866,0.4884392 2.27983656,0.130128672 2.77447347,0.0354375099 C3.51642882,-0.106599233 4.27613877,0.186195808 4.74803733,0.772720342 L6.35355762,2.75737645 C6.43389824,2.85572364 6.49683558,2.93227089 6.53513097,2.97801383 L6.57021988,3.01914357 C7.17872549,3.70466341 7.16280649,4.73467275 6.54281368,5.40067341 L6.49857851,5.44653906 L5.41461351,6.46914131 C4.98383087,6.89867787 4.90689427,7.56681123 5.22896893,8.0823174 C5.85356938,9.08712301 7.02395518,10.4418965 8.30204423,11.6978864 C9.55810354,12.9760448 10.912877,14.1464306 11.9176826,14.7710311 C12.4331888,15.0931057 13.1013221,15.0161691 13.5308587,14.5853865 L14.5534609,13.5014215 L14.5993266,13.4571863 C15.2473272,12.8539501 16.2399263,12.8225762 16.9245328,13.3818098 L17.0970635,13.5271144 C17.489809,13.8507448 18.7189584,14.8429839 19.2272797,15.2519627 C19.8138042,15.7238612 20.1065992,16.4835712 19.9645625,17.2255265 C19.8698713,17.7201634 19.5115608,18.2443913 18.8896309,18.7982102 C17.9003574,19.7955826 16.4693996,20.2111026 15.1032304,19.8971265 C12.1939187,19.2212397 8.75360439,16.9411009 5.89180085,14.1082685 C3.05889912,11.2463956 0.778760315,7.8060813 0.102873519,4.89676965 Z" id="path-2"></path>
    </defs>
    <g id="call2" stroke="none" stroke-width="1" fill="none" fill-rule="evenodd">
        <g filter="url(#filter-1)" id="Public/ic_public_message备份-2">
            <g transform="translate(2.000000, 2.000000)">
                <mask id="mask-3" fill="white">
                    <use xlink:href="#path-2"></use>
                </mask>
                <use id="路径" fill="#00CB87" xlink:href="#path-2"></use>
            </g>
        </g>
    </g>
</svg>