<?xml version="1.0" encoding="UTF-8"?>
<svg width="24px" height="24px" viewBox="0 0 24 24" version="1.1" xmlns="http://www.w3.org/2000/svg" xmlns:xlink="http://www.w3.org/1999/xlink">
    <title>Call 1 Dial</title>
    <g id="Call-1-Dial" stroke="none" stroke-width="1" fill="none" fill-rule="evenodd">
        <rect id="矩形" x="0" y="0" width="24" height="24"></rect>
        <path d="M20.7821892,21.7983296 L21.4054295,21.1780502 C22.1981902,20.3844836 22.1981902,19.1027003 21.4054295,18.3091338 L19.2532561,16.6872271 C19.1325968,16.5964182 19.0164248,16.4999027 18.9005021,16.4031391 C18.1909401,15.8146111 17.1479457,15.8600751 16.4928002,16.5080904 L15.5006017,17.4722527 C15.0707032,17.9010007 14.4012435,17.9798455 13.8826699,17.6628026 C11.7546783,16.3579828 8.46471742,13.0692613 7.24590871,11.1086821 C6.92292245,10.5915999 7.00005324,9.92127336 7.43213291,9.49024898 L8.51981186,8.46430681 C9.18499521,7.79831407 9.216411,6.73275452 8.59160914,6.02908978 C8.48939774,5.91495836 8.39217225,5.79586471 8.29669184,5.67677106 L6.76352073,3.77524245 C6.28985811,3.18672133 5.52775989,2.892957 4.78336169,3.03562126 C4.38489368,3.11144568 4.01853009,3.30473568 3.73183067,3.59039918 L3.20581587,4.11391502 C2.20495666,5.10641241 1.78827737,6.54196923 2.10317915,7.91275434 C3.46209228,13.7627337 11.2865001,21.7529251 17.0818869,22.920291 C18.4245958,23.1907328 19.8136738,22.7622438 20.7821892,21.7983296 Z" id="路径" fill="#ffffff"></path>
        <polygon id="Fill-65" fill="#ffffff" points="17 3.18032787 18.6754717 2 20 2 20 10 18.3924528 10 18.3924528 3.93442623 17 4.90710383"></polygon>
    </g>
</svg>