<?xml version="1.0" encoding="UTF-8"?>
<svg width="120px" height="120px" viewBox="0 0 120 120" version="1.1" xmlns="http://www.w3.org/2000/svg" xmlns:xlink="http://www.w3.org/1999/xlink">
    <title>画板</title>
    <defs>
        <path d="M8.90749531,10.6368118 C13.898777,10.6368118 16.1627404,13.850968 17.009958,15.4849838 L17.1191116,15.7022485 C17.169223,15.8052709 17.212735,15.8995166 17.2500928,15.9833574 C17.3555919,16.2201253 17.4512596,16.4941438 17.5370961,16.805413 C17.9378522,18.2586604 17.0846351,19.7616248 15.6313865,20.1623767 C15.3950204,20.2275577 15.1509496,20.2605939 14.9057609,20.2605939 L2.8985425,20.2605939 C1.39106083,20.2605787 0.169005471,19.0385234 0.169005471,17.5310417 C0.169005471,17.2759765 0.204756979,17.0221702 0.275216606,16.77703 C0.361320794,16.4774599 0.457881194,16.2129024 0.564897805,15.9833574 C1.1902994,14.6419042 3.33583198,10.6368118 8.90749531,10.6368118 Z M12.9626025,10.3835941 C17.1557205,10.3835544 20.5573368,13.7851707 20.5573368,17.9812771 C20.5573368,18.773875 19.9505053,19.4247398 19.1761018,19.4946118 L19.0377923,19.5008217 L18.88495,19.5021145 C18.9613961,19.408178 19.0133475,19.2935113 19.0310702,19.1678481 L19.0377923,19.071691 L19.0377923,18.7410494 C19.0377923,15.0034291 16.5388343,11.7911054 12.9626025,10.3835941 Z M8.90749531,0.506514848 C11.4251591,0.506514848 13.4661289,2.54748465 13.4661289,5.06514848 C13.4661289,7.58281232 11.4251591,9.62378212 8.90749531,9.62378212 C6.38983147,9.62378212 4.34886167,7.58281232 4.34886167,5.06514848 C4.34886167,2.54748465 6.38983147,0.506514848 8.90749531,0.506514848 Z M11.693327,0 C14.2109908,0 16.2519606,2.0409698 16.2519606,4.55863364 C16.2519606,6.66096427 14.8288353,8.43090619 12.893385,8.95765913 C13.8749027,7.95298716 14.4791586,6.57963359 14.4791586,5.06514848 C14.4791586,2.83291872 13.1664489,0.907288735 11.2708841,0.0181132727 L11.4787311,0.00496180882 L11.693327,0 Z" id="path-1"></path>
    </defs>
    <g id="画板" stroke="none" stroke-width="1" fill="none" fill-rule="evenodd">
        <g id="编组" transform="translate(20.000000, 17.000000)">
            <path d="M64.5806432,31.0921014 L55.7166333,31.0921014 L55.7166333,6.7253916 C55.7166333,3.71041145 53.272509,1.26628712 50.2575289,1.26628712 L50.2575289,1.26628712 L59.1215387,1.26628712 C62.1365188,1.26628712 64.5806432,3.71041145 64.5806432,6.7253916 L64.5806432,31.0921014 Z" id="形状结合" fill="#A1A7B3" opacity="0.600000024"></path>
            <path d="M7.60847361,1.2660002 L7.60043754,1.35134332 L7.59772273,1.43812979 L7.59772273,11.9512691 C7.59772273,12.2030006 7.66734558,12.4498276 7.79889173,12.6644537 C8.16815516,13.266931 8.92975118,13.481827 9.55302932,13.1817876 L9.67568348,13.1148762 L11.316543,12.1091795 C11.7104074,11.8677767 12.1961971,11.8436364 12.6084465,12.0367587 L12.7429123,12.1091795 L14.3837718,13.1148762 C14.5983979,13.2464223 14.845225,13.3160452 15.0969565,13.3160452 C15.8063635,13.3160452 16.3893527,12.7747858 16.455485,12.0827061 L16.4617326,11.9512691 L16.4617326,1.43812979 L16.4589957,1.35099294 L16.4508949,1.26531188 L50.2575289,1.26628053 C53.272509,1.26628053 55.7166333,3.71040485 55.7166333,6.725385 L55.7166333,31.0894518 L64.5806432,31.0894518 L64.5808769,44.0265757 C62.7985052,43.3965684 60.8804615,43.0537621 58.8823511,43.0537621 C49.4411117,43.0537621 41.787475,50.7073989 41.787475,60.1486383 C41.787475,69.5898776 49.4411117,77.2435144 58.8823511,77.2435144 C60.8802792,77.2435144 62.7981553,76.9007706 64.5803891,76.2708732 L64.5806432,79.3120557 C64.5806432,82.3270358 62.1365188,84.7711601 59.1215387,84.7711601 L5.45910448,84.7711601 C2.44412433,84.7711601 4.81012068e-15,82.3270358 0,79.3120557 L0,6.725385 C-3.69228579e-16,3.71040485 2.44412433,1.26628053 5.45910448,1.26628053 L7.60847361,1.2660002 Z" id="形状结合" fill="#A1A7B3" opacity="0.300000012"></path>
            <path d="M64.5813427,76.2705361 L64.5806432,79.3080055 C64.5806432,82.3229857 62.1365188,84.76711 59.1215387,84.76711 L55.7166333,84.76711 L55.7165036,76.950942 C56.74244,77.1430496 57.8006632,77.2435144 58.8823511,77.2435144 C60.8806356,77.2435144 62.7988394,76.9006484 64.5813427,76.2705361 Z" id="形状结合" fill="#A1A7B3" opacity="0.800000012"></path>
            <path d="M64.5806432,31.0921014 L64.5812899,44.0267217 C62.7988015,43.3966214 60.8806158,43.0537621 58.8823511,43.0537621 C57.8006632,43.0537621 56.74244,43.1542269 55.7165036,43.3463345 L55.7166333,31.0921014 L64.5806432,31.0921014 Z" id="形状结合" fill="#A1A7B3" opacity="0.800000012"></path>
            <path d="M15.0969565,2.63706582e-14 L15.2247227,0.006 L15.2255105,2.63706582e-14 L17.1145073,2.63706582e-14 L17.1145073,2.63706582e-14 C17.6241703,2.63706582e-14 18.0416867,0.422095707 18.3670565,1.26628712 L16.4582227,1.26613858 C16.4605493,1.2987148 16.4617326,1.33160728 16.4617326,1.36477612 L16.4617326,12.6793265 C16.4617326,13.4330715 15.8507015,14.0441026 15.0969565,14.0441026 C14.832723,14.0441026 14.5741712,13.9673982 14.352687,13.8233006 L12.7739971,12.7962052 C12.3214876,12.5018025 11.7379677,12.5018025 11.2854582,12.7962052 L9.7067683,13.8233006 C9.07496882,14.2343493 8.22957337,14.0553954 7.8185247,13.4235959 C7.67442714,13.2021118 7.59772273,12.94356 7.59772273,12.6793265 L7.59772273,1.36477612 C7.59772273,0.611031082 8.20875381,2.69532082e-14 8.96249885,2.63706582e-14 L15.0969565,2.63706582e-14 Z" id="tag" fill="#A1A7B3" opacity="0.600000024"></path>
            <g id="Public/ic_contacts_filled" transform="translate(18.994307, 27.858317)">
                <mask id="mask-2" fill="white">
                    <use xlink:href="#path-1"></use>
                </mask>
                <use id="形状结合" fill="#A1A7B3" opacity="0.400000006" xlink:href="#path-1"></use>
            </g>
            <g id="放大镜" transform="translate(41.787475, 43.053762)" fill="#A1A7B3">
                <path d="M29.6445878,28.7027305 L33.0055347,32.0642017 C33.9230708,31.7377333 34.9871097,31.9417256 35.7215626,32.6761785 L44.0862744,41.0408903 C45.1031662,42.0577821 45.1031662,43.7064895 44.0862744,44.7233813 C43.0693826,45.7402731 41.4206752,45.7402731 40.4037834,44.7233813 L32.0390716,36.3586695 C31.3048981,35.624496 31.1007817,34.5609871 31.4267225,33.6436887 L28.0237213,30.2406006 C28.5969106,29.7635493 29.1384072,29.2497183 29.6445878,28.7027305 Z" id="形状结合" opacity="0.800000012"></path>
                <path d="M17.0948761,0 C26.5361155,0 34.1897523,7.65363675 34.1897523,17.0948761 C34.1897523,26.5361155 26.5361155,34.1897523 17.0948761,34.1897523 C7.65363675,34.1897523 0,26.5361155 0,17.0948761 C0,7.65363675 7.65363675,0 17.0948761,0 Z M17.0948761,3.79886136 C9.75168994,3.79886136 3.79886136,9.75168994 3.79886136,17.0948761 C3.79886136,24.4380623 9.75168994,30.3908909 17.0948761,30.3908909 C24.4380623,30.3908909 30.3908909,24.4380623 30.3908909,17.0948761 C30.3908909,9.75168994 24.4380623,3.79886136 17.0948761,3.79886136 Z" id="形状结合" opacity="0.600000024"></path>
                <circle id="椭圆形" opacity="0.200000003" cx="17.0948761" cy="17.0948761" r="13.2960148"></circle>
            </g>
            <path d="M63.784391,60.2477863 L70.1158267,60.2477863 C70.4655022,60.2477863 70.7489702,60.5312544 70.7489702,60.8809299 C70.7489702,61.2306054 70.4655022,61.5140735 70.1158267,61.5140735 L63.784391,61.5140735 C63.4347155,61.5140735 63.1512475,61.2306054 63.1512475,60.8809299 C63.1512475,60.5312544 63.4347155,60.2477863 63.784391,60.2477863 Z" id="矩形" fill="#A1A7B3" opacity="0.300000012" transform="translate(66.950109, 60.880930) rotate(-255.000000) translate(-66.950109, -60.880930) "></path>
            <path d="M63.784391,55.8157814 L66.3169653,55.8157814 C66.6666408,55.8157814 66.9501088,56.0992494 66.9501088,56.448925 C66.9501088,56.7986005 66.6666408,57.0820685 66.3169653,57.0820685 L63.784391,57.0820685 C63.4347155,57.0820685 63.1512475,56.7986005 63.1512475,56.448925 C63.1512475,56.0992494 63.4347155,55.8157814 63.784391,55.8157814 Z" id="矩形备份" fill="#A1A7B3" opacity="0.300000012" transform="translate(65.050678, 56.448925) rotate(-255.000000) translate(-65.050678, -56.448925) "></path>
        </g>
    </g>
</svg>