<?xml version="1.0" encoding="UTF-8"?>
<svg width="40px" height="40px" viewBox="0 0 40 40" version="1.1" xmlns="http://www.w3.org/2000/svg" xmlns:xlink="http://www.w3.org/1999/xlink">
    <title>井号</title>
    <g id="井号" stroke="none" stroke-width="1" fill="none" fill-rule="evenodd">
        <polygon id="矩形" points="0 -3.55271368e-14 40 -3.55271368e-14 40 40 0 40"></polygon>
        <path d="M17.5,32 L15.5,32 L15.5,26.5 L10,26.5 L10,24.5 L15.5,24.5 L15.5,19.5 L10,19.5 L10,17.5 L15.5,17.5 L15.5,12 L17.5,12 L17.5,17.5 L22.5,17.5 L22.5,12 L24.5,12 L24.5,17.5 L30,17.5 L30,19.5 L24.5,19.5 L24.5,24.5 L30,24.5 L30,26.5 L24.5,26.5 L24.5,32 L22.5,32 L22.5,26.5 L17.5,26.5 L17.5,32 Z M17.5,24.5 L22.5,24.5 L22.5,19.5 L17.5,19.5 L17.5,24.5 Z" id="形状结合" fill="#182431" fill-rule="nonzero"></path>
    </g>
</svg>