<svg id="图层_1" data-name="图层 1" xmlns="http://www.w3.org/2000/svg" viewBox="0 0 24 24"><title>笔记</title><path fill="#182431" d="M16.5,6.25a.75.75,0,0,1,0,1.5h-9a.75.75,0,0,1,0-1.5Zm0,5a.75.75,0,0,1,0,1.5h-9a.75.75,0,0,1,0-1.5Zm-4.5,5a.75.75,0,0,1,0,1.5H7.5a.75.75,0,0,1,0-1.5ZM16.07534,2.50071l-8.0508-.00053-.20148.00148A4.06394,4.06394,0,0,0,5.75371,2.857a2.135,2.135,0,0,0-.89672.89672A4.5924,4.5924,0,0,0,4.5,6.12777l.00017,11.84769.00149.20148A4.06394,4.06394,0,0,0,4.857,20.24629a2.135,2.135,0,0,0,.89672.89672,4.23561,4.23561,0,0,0,2.171.35628L8.12777,21.5h7.74446a4.5924,4.5924,0,0,0,2.37406-.357,2.135,2.135,0,0,0,.89672-.89672,4.23561,4.23561,0,0,0,.35628-2.17095L19.5,17.87223V6.12777a4.5924,4.5924,0,0,0-.357-2.37406,2.135,2.135,0,0,0-.89672-.89672A4.23561,4.23561,0,0,0,16.07534,2.50071ZM15.87223,1a5.88441,5.88441,0,0,1,3.03985.51223l.04161.022a3.63031,3.63031,0,0,1,1.46114,1.41987l.0509.09217A5.79955,5.79955,0,0,1,21,6.12777V17.87223l-.001.22154a5.55551,5.55551,0,0,1-.51122,2.81831l-.022.04161a3.63031,3.63031,0,0,1-1.41987,1.46114l-.09217.0509A5.79955,5.79955,0,0,1,15.87223,23H8.12777l-.22154-.001a5.55537,5.55537,0,0,1-2.81831-.51123l-.04161-.022a3.63037,3.63037,0,0,1-1.46114-1.41987l-.0509-.09217A5.79955,5.79955,0,0,1,3,17.87223V6.12777a5.8843,5.8843,0,0,1,.51223-3.03985l.022-.04161A3.63037,3.63037,0,0,1,4.95414,1.58517l.09217-.0509A5.79955,5.79955,0,0,1,8.12777,1Z"/></svg>