<svg id="图层_1" data-name="图层 1" xmlns="http://www.w3.org/2000/svg" viewBox="0 0 24 24"><title>相机</title><path d="M12,9.5a3.25,3.25,0,1,0,3.25,3.25A3.25,3.25,0,0,0,12,9.5ZM12,8a4.75,4.75,0,1,1-4.75,4.75A4.75,4.75,0,0,1,12,8Zm3.1206-3.25H8.8794a.5.5,0,0,0-.41068.2148L6.88177,7.25H4a1.5,1.5,0,0,0-1.5,1.5v9A1.5,1.5,0,0,0,4,19.25H20a1.5,1.5,0,0,0,1.5-1.5v-9A1.5,1.5,0,0,0,20,7.25H17.11823L15.53128,4.9648A.5.5,0,0,0,15.1206,4.75Zm0-1.5a2,2,0,0,1,1.64274.85921L17.90278,5.75H20a3,3,0,0,1,3,3v9a3,3,0,0,1-3,3H4a3,3,0,0,1-3-3v-9a3,3,0,0,1,3-3H6.09722L7.23666,4.10921A2,2,0,0,1,8.8794,3.25Z"/></svg>