<svg id="图层_1" data-name="图层 1" xmlns="http://www.w3.org/2000/svg" viewBox="0 0 24 24"><defs><style>.cls-1{fill-rule:evenodd;}</style></defs><title>全选</title><path class="cls-1" d="M15.80833,10.255a.75.75,0,0,1,.03026,1.0286l-.03026.03206-5.19975,5.19975a1.75,1.75,0,0,1-2.43161.04182l-.04326-.04182L5.684,14.06569a.75.75,0,0,1,1.0286-1.09092l.03206.03026,2.09619,2.09619a.75.75,0,0,0,1.0286.03026l.03206-.03026,4.8462-4.84619A.75.75,0,0,1,15.80833,10.255ZM15.59029,2c2.22879,0,3.037.23206,3.85182.66783a4.54323,4.54323,0,0,1,1.89006,1.89006C21.76794,5.3727,22,6.18092,22,8.40971v5.96252a5.79955,5.79955,0,0,1-.53427,3.08146,3.63532,3.63532,0,0,1-.97081,1.16035c.0032-.14453.00508-.29743.00508-.45987V8.34583a5.34107,5.34107,0,0,0-.51889-2.7827,3.72583,3.72583,0,0,0-1.54424-1.54424,4.993,4.993,0,0,0-2.51749-.51707L5.84583,3.5c-.16272,0-.31588.00189-.46066.00585a3.63917,3.63917,0,0,1,1.16114-.97158A5.79955,5.79955,0,0,1,9.62777,2ZM6.4868,6a3.86181,3.86181,0,0,0-1.98888.2902,1.68085,1.68085,0,0,0-.70772.70772l-.07856.1619A4.031,4.031,0,0,0,3.501,8.75809L3.5,17.5132a3.86181,3.86181,0,0,0,.2902,1.98888,1.68085,1.68085,0,0,0,.70772.70772l.1619.07856a4.03093,4.03093,0,0,0,1.59826.21061l.22872.001h8.5264l.43743-.00418a3.102,3.102,0,0,0,1.55145-.286,1.68085,1.68085,0,0,0,.70772-.70772l.07856-.1619a4.03074,4.03074,0,0,0,.21061-1.59826L18,17.5132V8.9868l-.00418-.43743a3.102,3.102,0,0,0-.286-1.55145,1.68085,1.68085,0,0,0-.70772-.70772l-.1619-.07856A4.03077,4.03077,0,0,0,15.24191,6.001Zm8.5264-1.5a5.07467,5.07467,0,0,1,2.69628.46748,3.18031,3.18031,0,0,1,1.323,1.323l.1017.20274A5.57961,5.57961,0,0,1,19.5,8.9868v8.5264a5.07467,5.07467,0,0,1-.46748,2.69628,3.18031,3.18031,0,0,1-1.323,1.323l-.20274.1017A5.57961,5.57961,0,0,1,15.0132,22H6.4868a5.07477,5.07477,0,0,1-2.69628-.46748,3.18031,3.18031,0,0,1-1.323-1.323l-.1017-.20274A5.57961,5.57961,0,0,1,2,17.5132V8.9868a5.07477,5.07477,0,0,1,.46748-2.69628,3.18031,3.18031,0,0,1,1.323-1.323l.20274-.1017a5.12058,5.12058,0,0,1,2.22834-.3641Z"/></svg>