<?xml version="1.0" encoding="utf-8"?>
<!-- Generator: Adobe Illustrator 23.0.1, SVG Export Plug-In . SVG Version: 6.00 Build 0)  -->
<svg version="1.1" id="图层_1" xmlns="http://www.w3.org/2000/svg" xmlns:xlink="http://www.w3.org/1999/xlink" x="0px" y="0px"
	 viewBox="0 0 24 24" style="enable-background:new 0 0 24 24;" xml:space="preserve">
<style type="text/css">
	.st0{fill-rule:evenodd;clip-rule:evenodd;fill:#f86d05;}
	.st1{filter:url(#filter-2);}
	.st2{fill-rule:evenodd;clip-rule:evenodd;}
	.st3{fill:none;stroke:#000000;stroke-opacity:5.000000e-02;}
	.st4{fill-rule:evenodd;clip-rule:evenodd;fill:#FFFFFF;}
</style>
<filter  filterUnits="objectBoundingBox" height="153.3%" id="filter-2" width="185.7%" x="-28.6%" y="-17.8%">
	<feMorphology  in="SourceAlpha" operator="dilate" radius="1" result="shadowSpreadOuter1"></feMorphology>
	<feOffset  dx="1" dy="1" in="shadowSpreadOuter1" result="shadowOffsetOuter1"></feOffset>
	<feMorphology  in="SourceAlpha" operator="erode" radius="1" result="shadowInner"></feMorphology>
	<feOffset  dx="1" dy="1" in="shadowInner" result="shadowInner"></feOffset>
	<feComposite  in="shadowOffsetOuter1" in2="shadowInner" operator="out" result="shadowOffsetOuter1"></feComposite>
	<feGaussianBlur  in="shadowOffsetOuter1" result="shadowBlurOuter1" stdDeviation="0.5"></feGaussianBlur>
	<feColorMatrix  in="shadowBlurOuter1" type="matrix" values="0 0 0 0 0   0 0 0 0 0   0 0 0 0 0  0 0 0 0.1 0"></feColorMatrix>
</filter>
<title>选中后</title>
<g id="编组" transform="translate(2.000000, 2.000000)">
	<path id="Rectangle-2375-Copy" class="st0" d="M0,4c0-2.2,1.8-4,4-4h12c2.2,0,4,1.8,4,4v12c0,2.2-1.8,4-4,4H4c-2.2,0-4-1.8-4-4V4z"
		/>
	<g id="Rectangle-62" transform="translate(9.895979, 8.500859) rotate(43.000000) translate(-9.895979, -8.500859) ">
		<g class="st1">
			<path id="path-1_1_" class="st2" d="M7.4,14.1c-0.6,0-1-0.4-1-1c0-0.6,0.4-1,1-1l4,0l0-8.3c0-0.5,0.4-0.9,0.9-1l0.1,0
				c0.6,0,1,0.5,1,1l0,9.2l0,0c0,0.4-0.3,0.8-0.7,0.9l-0.1,0c0,0-0.1,0-0.1,0l-0.1,0L7.4,14.1z"/>
		</g>
		<path class="st3" d="M12.2,2.4c0.5,0,0.9,0.2,1.2,0.4c0.3,0.3,0.5,0.7,0.5,1.1l0,0l0,9.2c0,0.3-0.1,0.6-0.3,0.9
			c-0.2,0.3-0.5,0.5-0.8,0.6l0,0l-5.4,0.1c-0.4,0-0.8-0.2-1.1-0.4c-0.3-0.3-0.4-0.6-0.4-1.1c0-0.4,0.2-0.8,0.4-1.1
			c0.3-0.3,0.6-0.4,1.1-0.4l0,0l3.5,0l0-7.8c0-0.4,0.1-0.7,0.4-1C11.5,2.6,11.8,2.4,12.2,2.4z"/>
	</g>
	<path class="st4" d="M4.2,10.9c-0.4-0.4-0.4-1-0.1-1.4c0.4-0.4,1-0.4,1.4,0l2.9,2.7l5.6-6c0.3-0.4,0.9-0.4,1.3-0.1l0.1,0.1
		c0.4,0.4,0.4,1,0.1,1.4l-6.3,6.8l0,0c-0.3,0.3-0.7,0.4-1.1,0.2l-0.1-0.1c0,0-0.1,0-0.1-0.1l-0.1-0.1L4.2,10.9z"/>
</g>
</svg>
