<?xml version="1.0" encoding="utf-8"?>
<!-- Generator: Adobe Illustrator 23.0.1, SVG Export Plug-In . SVG Version: 6.00 Build 0)  -->
<svg version="1.1" id="图层_1" xmlns="http://www.w3.org/2000/svg" xmlns:xlink="http://www.w3.org/1999/xlink" x="0px" y="0px"
	 viewBox="0 0 24 24" style="enable-background:new 0 0 24 24;" xml:space="preserve">
<style type="text/css">
	.st0{fill:#182431;}
</style>
<title>画板</title>
<path class="st0" d="M12,1c6.1,0,11,4.9,11,11s-4.9,11-11,11S1,18.1,1,12S5.9,1,12,1z M12,2.5c-5.2,0-9.5,4.3-9.5,9.5
	s4.3,9.5,9.5,9.5s9.5-4.3,9.5-9.5S17.2,2.5,12,2.5z M18.2,8.7c0.3,0.3,0.3,0.7,0,1l0,0l-5.9,5.9c-0.7,0.7-1.7,0.7-2.4,0l0,0
	l-3.4-3.4c-0.1-0.1-0.2-0.2-0.2-0.4l0-0.1v-0.1c0-0.2,0.1-0.3,0.2-0.5c0.3-0.3,0.7-0.3,1,0l0,0l3.1,3.1c0.3,0.3,0.7,0.3,1,0l0,0
	l5.6-5.6C17.4,8.4,17.9,8.4,18.2,8.7z"/>
</svg>
