<svg id="图层_1" data-name="图层 1" xmlns="http://www.w3.org/2000/svg" viewBox="0 0 24 24"><title>cycle-细</title><path d="M17,3.95711a.5.5,0,0,1,.35355.14644l2.2929,2.2929a.5.5,0,0,1-.35356.85355H6.86981A4.36217,4.36217,0,0,0,2.5,11.60438,4.318,4.318,0,0,0,3.26982,14.073.75.75,0,0,1,2.0366,14.927,5.85174,5.85174,0,0,1,6.86981,5.75L16.5,5.74911v-1.292A.5.5,0,0,1,17,3.95711ZM17.12985,16.75a4.352,4.352,0,0,0,3.60046-6.82316.75.75,0,0,1,1.23339-.85368A5.852,5.852,0,0,1,17.12985,18.25L7.5,18.24911v1.29378a.5.5,0,0,1-.85355.35356l-2.2929-2.2929A.5.5,0,0,1,4.70711,16.75Z"/></svg>