<svg id="图层_1" data-name="图层 1" xmlns="http://www.w3.org/2000/svg" viewBox="0 0 24 24"><title>删除-实心</title><path d="M12,1.875a3.00027,3.00027,0,0,1,2.98974,2.75013L21.25,4.625a.75.75,0,0,1,.04407,1.49873L21.25,6.125H2.75a.75.75,0,0,1-.04407-1.49873L2.75,4.625l6.26026.00013A3.00027,3.00027,0,0,1,12,1.875Zm2,10a.75.75,0,0,0-.75.75v6a.75.75,0,0,0,1.5,0v-6A.75.75,0,0,0,14,11.875Zm-4,0a.75.75,0,0,0-.75.75v6a.75.75,0,0,0,1.5,0v-6A.75.75,0,0,0,10,11.875Zm9.905-4.75L18.71823,19.19314A3.25,3.25,0,0,1,15.48384,22.125H8.51616a3.25,3.25,0,0,1-3.23439-2.93186L4.094,7.125Z"/></svg>