<?xml version="1.0" encoding="utf-8"?>
<!-- Generator: Adobe Illustrator 23.0.1, SVG Export Plug-In . SVG Version: 6.00 Build 0)  -->
<svg version="1.1" id="图层_1" xmlns="http://www.w3.org/2000/svg" xmlns:xlink="http://www.w3.org/1999/xlink" x="0px" y="0px"
	 viewBox="0 0 120 120" style="enable-background:new 0 0 120 120;" xml:space="preserve">
<style type="text/css">
	.st0{opacity:0.15;fill-rule:evenodd;clip-rule:evenodd;fill:#A1A7B3;enable-background:new    ;}
	.st1{opacity:0.6;fill-rule:evenodd;clip-rule:evenodd;fill:#A1A7B3;enable-background:new    ;}
	.st2{opacity:0.3;fill-rule:evenodd;clip-rule:evenodd;fill:#A1A7B3;enable-background:new    ;}
	.st3{opacity:0.8;fill-rule:evenodd;clip-rule:evenodd;fill:#A1A7B3;enable-background:new    ;}
	.st4{opacity:0.2;fill-rule:evenodd;clip-rule:evenodd;fill:#A1A7B3;enable-background:new    ;}
	.st5{opacity:0.1;fill-rule:evenodd;clip-rule:evenodd;fill:#A1A7B3;enable-background:new    ;}
	.st6{opacity:0.5;fill-rule:evenodd;clip-rule:evenodd;fill:#A1A7B3;enable-background:new    ;}
</style>
<title>笔记空页面</title>
<g id="编组" transform="translate(25.110000, 10.000000)">
	<g id="board" transform="translate(0.699850, 0.000000)">
		<ellipse id="椭圆形" class="st0" cx="33.6" cy="97.8" rx="33.3" ry="2.1"/>
		<path id="形状结合" class="st1" d="M15.7,7.7c-0.8,1.2-1.3,2.6-1.5,4.1l-4.8,0c-0.5,0-0.9,0.4-1,0.9l0,0.1v67.7
			c0,0.5,0.4,0.9,0.9,1l0.1,0H56c0.5,0,0.9-0.4,1-0.9l0-0.1l0-21c1.3-0.8,2.6-1.6,4-2.4c0.9-0.6,1.8-1.1,2.7-1.6l0,33.8
			c0,2.2-1.8,4-4,4H5.4c-2.2,0-4-1.8-4-4V11.7c0-2.2,1.8-4,4-4L15.7,7.7z M49.7,7.7l10,0c2.2,0,4,1.8,4,4l0,30.1
			c-2.2,2.2-4.5,4.9-6.7,7.7l0-36.7c0-0.6-0.4-1-1-1l-4.8,0C51,10.2,50.5,8.8,49.7,7.7z"/>
		<path id="bolder" class="st2" d="M1.4,88c0,2.2,1.8,4,4,4l0,0h54.2c2.2,0,4-1.8,4-4l0,0v1.1c0,2.2-1.8,4-4,4H5.4c-2.2,0-4-1.8-4-4
			V88z"/>
		<path class="st3" d="M57,59.5l0,21c0,0.6-0.4,1-1,1H9.4c-0.5,0-0.9-0.4-1-0.9l0-0.1c0,0.6,0.5,1,1,1c27-0.9,41.6-2.4,43.7-4.5
			c1-1,1.9-6.6,2.5-16.6C56,60,56.5,59.8,57,59.5z M56,11.7c0.6,0,1,0.4,1,1l0,36.7c-0.3,0.4-0.6,0.8-0.9,1.2
			c0.4-9.6,0.7-21.8,0.9-36.6l0-1.2l0,0c0-0.5-0.4-0.9-0.9-1L56,11.7L56,11.7z"/>
		<path class="st4" d="M14.2,11.7l0,0.2l0,0l0,0.2l0,0.2l37,0c0-0.2,0-0.4,0-0.5l4.8,0c0.6,0,1,0.4,1,1l0,0
			c-0.2,15.4-0.5,28-0.9,37.9c-3.6,4.8-6.7,9.5-7.9,11.9l0,0l-14.5,14l-2.4,3c-0.1,0.1-0.1,0.2,0,0.2c0,0.1,0.1,0.1,0.2,0l0,0
			l3.2-2.1L49,63.8c1.4-0.6,3.7-1.9,6.5-3.5c-0.6,10-1.5,15.5-2.5,16.6C51,79,36.4,80.5,9.4,81.4c-0.6,0-1-0.4-1-1l0-67.7
			c0-0.6,0.4-1,1-1L14.2,11.7z M51.2,12.9h-37v0.7c0,0.3,0.2,0.6,0.5,0.6l0.1,0h35.8c0.3,0,0.6-0.2,0.6-0.5l0-0.1V12.9z"/>
		<path class="st5" d="M14.2,11.7l0,0.2l0,0l0,0.2l0,0.2l37,0c0-0.2,0-0.4,0-0.5l4.8,0c0.6,0,1,0.4,1,1l0,0
			c-0.2,15.4-0.5,28-0.9,37.9c-3.6,4.8-6.7,9.5-7.9,11.9l0,0l-14.5,14l-2.4,3c-0.1,0.1-0.1,0.2,0,0.2c0,0.1,0.1,0.1,0.2,0l0,0
			l3.2-2.1L49,63.8c1.4-0.6,3.7-1.9,6.5-3.5c-0.6,10-1.5,15.5-2.5,16.6C51,79,36.4,80.5,9.4,81.4c-0.6,0-1-0.4-1-1l0-67.7
			c0-0.6,0.4-1,1-1L14.2,11.7z M51.2,12.9h-37v0.7c0,0.3,0.2,0.6,0.5,0.6l0.1,0h35.8c0.3,0,0.6-0.2,0.6-0.5l0-0.1V12.9z"/>
		<path class="st1" d="M51.2,12.9v0.7c0,0.3-0.3,0.6-0.6,0.6H14.8c-0.3,0-0.6-0.3-0.6-0.6v-0.7H51.2z M32.7,0.4
			c2.7,0,3.8,1.6,4.9,3.7l0.1,0.2h5.5c4.4,0,8,3.6,8,8l-37,0l0-0.2c0.1-4.3,3.7-7.8,8-7.8h5.5C28.6,2.2,29.9,0.4,32.7,0.4z
			 M32.7,2.8c-1.4,0-2.5,1.1-2.5,2.5s1.1,2.5,2.5,2.5c1.4,0,2.5-1.1,2.5-2.5S34,2.8,32.7,2.8z"/>
	</g>
	<path id="pencil" class="st6" d="M88.3,24.5c2.7,0.8-2.5,12.1-8.3,18.6c-5.8,6.5-11.7,9.8-18.4,13.9c-5.1,3.1-9.7,5.9-11.9,6.8
		L35.3,77.7l-3.2,2.1c-0.1,0-0.2,0-0.2,0c0-0.1,0-0.2,0-0.2l2.4-3l14.5-14c2.1-4.1,9.7-15.4,16.4-21.7c1.4-1.3,2.9-2.7,4.5-4.1
		l0.6-0.5c0.3-0.3,0.6-0.5,1-0.8l0.6-0.5c0.1-0.1,0.2-0.2,0.3-0.3l0.6-0.5C79.6,28.6,86.4,24,88.3,24.5z M71.2,43.4
		c-0.9,0.3-2.6,0.6-2.2,1c0.4,0.4,2.5,0.3,6.6-1.5c3.8-1.7,2.5-1.7,0.8-1.2l-0.2,0.1l0,0l-0.1,0C74.1,42.5,72.2,43.1,71.2,43.4z
		 M73.5,39.6c-0.8,0.2-1.6,0.4-1.3,0.7c0.4,0.4,2.5,0.3,6.6-1.5s2.4-1.7,0.5-1.1c-1.9,0.6-3.9,1.3-4.8,1.6c-0.2,0.1-0.4,0.1-0.6,0.2
		L73.5,39.6z M77.2,35c-0.8,0.2-1.5,0.4-1.2,0.7c0.4,0.4,2.5,0.3,6.6-1.5c3.8-1.7,2.5-1.7,0.8-1.2l-0.2,0.1l0,0l-0.1,0
		c-1.9,0.6-3.9,1.3-4.8,1.6c-0.2,0.1-0.4,0.1-0.6,0.2L77.2,35z"/>
</g>
</svg>
