<svg id="图层_1" data-name="图层 1" xmlns="http://www.w3.org/2000/svg" viewBox="0 0 24 24"><title>收藏-实心</title><path fill="#FFBF00" d="M12.77438,2.24874a1.75,1.75,0,0,1,.7948.7948l2.01864,4.09022a1,1,0,0,0,.75294.547l4.51383.6559a1.75,1.75,0,0,1,.96987,2.985L19.6759,13.41524l-.11921.11695-.655.56353q-1.95786,1.666-3.82958,3.036-2.18369,1.5984-4.52814,2.99752l.00388-.0036L7.49726,21.731a1.75,1.75,0,0,1-2.53917-1.84481l.77106-4.49559a1,1,0,0,0-.2876-.88514L2.17531,11.32166a1.75,1.75,0,0,1,.96988-2.985L7.659,7.6808a1,1,0,0,0,.75293-.547L10.4306,3.04354A1.75,1.75,0,0,1,12.77438,2.24874Zm6.19,11.86043-.40614.39628a1,1,0,0,0-.2876.88514l.771,4.49559A1.75,1.75,0,0,1,16.50252,21.731l-3.13171-1.64644a24.58444,24.58444,0,0,0,4.37908-4.97074C17.89453,14.97283,18.35,14.61526,18.96437,14.10917Z"/></svg>