<svg id="图层_1" data-name="图层 1" xmlns="http://www.w3.org/2000/svg" viewBox="0 0 24 24"><title>文件夹</title><path fill="#4fb4e3" d="M7.37868,4.5H5A2.5,2.5,0,0,0,2.501,6.93L2.5,17a2.5,2.5,0,0,0,2.43,2.499L5,19.5H19a2.5,2.5,0,0,0,2.499-2.43L21.5,17V11a2.5,2.5,0,0,0-2.43-2.499L12.41421,8.5a2.5,2.5,0,0,1-1.7083-.6747l-.05946-.05753Zm0-1.5a1.5,1.5,0,0,1,1.06066.43934l3.26777,3.26777A1,1,0,0,0,12.41421,7H19a4.043,4.043,0,0,1,.44285.02424,2.00019,2.00019,0,0,0-1.88056-1.52329L17.5,5.5l-5.543-.00013-1.50025-1.5L17.5,4A3.5,3.5,0,0,1,21,7.5l.00012.0352A3.9984,3.9984,0,0,1,23,11v6a4,4,0,0,1-4,4H5a4,4,0,0,1-4-4V7A4,4,0,0,1,5,3Z"/></svg>