<svg id="图层_1" data-name="图层 1" xmlns="http://www.w3.org/2000/svg" viewBox="0 0 24 24"><defs><style>.cls-1{fill-rule:evenodd;}</style></defs><title>文本样式</title><path d="M9.35485,10.55043,5.98161,10.543,7.65616,5.69371ZM4.43707,14.56522l.99433-2.75741H9.85873l1.00885,2.75741h1.42981L8.25473,4H7.0354L3,14.56522Z"/><path class="cls-1" d="M11.75,3.75h9.5a.75.75,0,0,1,0,1.5h-9.5a.75.75,0,0,1,0-1.5Z"/><path class="cls-1" d="M13.75,8.25h7.5a.75.75,0,0,1,0,1.5h-7.5a.75.75,0,0,1,0-1.5Z"/><path class="cls-1" d="M15.75,12.75h5.5a.75.75,0,0,1,0,1.5h-5.5a.75.75,0,0,1,0-1.5Z"/><path class="cls-1" d="M2.75,18.75h18.5a.75.75,0,0,1,0,1.5H2.75a.75.75,0,0,1,0-1.5Z"/></svg>