<?xml version="1.0" encoding="utf-8"?>
<!-- Generator: Adobe Illustrator 23.0.1, SVG Export Plug-In . SVG Version: 6.00 Build 0)  -->
<svg version="1.1" id="图层_1" xmlns="http://www.w3.org/2000/svg" xmlns:xlink="http://www.w3.org/1999/xlink" x="0px" y="0px"
	 viewBox="0 0 24 24" style="enable-background:new 0 0 24 24;" xml:space="preserve">
<style type="text/css">
	.st0{fill:#182431;}
</style>
<title>字体大小</title>
<path id="形状结合" class="st0" d="M20.1,12c0.6,0,1.1,0.1,1.6,0.4c0.5,0.3,0.8,0.6,1.1,1.1c0.3,0.5,0.4,1.1,0.4,1.7l0,0V20H22
	l0-0.2c0-0.4,0-0.7,0-0.8c-0.2,0.4-0.6,0.7-1,0.9s-0.9,0.3-1.4,0.3c-0.5,0-1-0.1-1.4-0.3c-0.4-0.2-0.8-0.5-1-0.8s-0.4-0.8-0.4-1.3
	c0-0.8,0.3-1.4,0.9-1.8c0.6-0.4,1.4-0.7,2.4-0.7c0.6,0,1.1,0.1,1.7,0.2c0-1.5-0.6-2.3-1.8-2.3c-0.9,0-1.5,0.4-2,1.2l0,0l-1-0.6
	l0.1-0.2c0.2-0.5,0.6-0.8,1.1-1.1C18.8,12.2,19.4,12,20.1,12z M9.6,3.8l6.7,16.1h-2.2l-1.9-4.8H5.4l-1.8,4.8h-2L8.1,3.8H9.6z
	 M20.1,16.3c-0.6,0-1.2,0.1-1.5,0.4s-0.5,0.6-0.5,1.1c0,0.4,0.2,0.7,0.5,1c0.3,0.2,0.7,0.4,1.2,0.4c0.6,0,1.1-0.2,1.5-0.5
	s0.6-0.8,0.6-1.4l0,0v-0.6l-0.3-0.1C21,16.3,20.6,16.3,20.1,16.3z M8.7,6.5l-2.6,6.9h5.5L8.7,6.5z"/>
</svg>
