<svg id="图层_1" data-name="图层 1" xmlns="http://www.w3.org/2000/svg" viewBox="0 0 24 24"><defs><style>.cls-1{fill-rule:evenodd;}</style></defs><title>符号标注3</title><path class="cls-1" d="M21.25,3.5a.75.75,0,0,1,0,1.5H7.75a.75.75,0,0,1,0-1.5ZM3.5,2.75A1.5,1.5,0,1,1,2,4.25,1.5,1.5,0,0,1,3.5,2.75Zm17.75,8.5a.75.75,0,0,1,0,1.5H7.75a.75.75,0,0,1,0-1.5ZM3.5,10.5A1.5,1.5,0,1,1,2,12,1.5,1.5,0,0,1,3.5,10.5ZM21.25,19a.75.75,0,0,1,0,1.5H7.75a.75.75,0,0,1,0-1.5ZM3.5,18.25A1.5,1.5,0,1,1,2,19.75,1.5,1.5,0,0,1,3.5,18.25Z"/></svg>