<svg id="图层_1" data-name="图层 1" xmlns="http://www.w3.org/2000/svg" viewBox="0 0 24 24"><defs><style>.cls-1{fill-rule:evenodd;}</style></defs><title>英文符号</title><path class="cls-1" d="M7.625,3.493h13.5a.75.75,0,0,1,0,1.5H7.625a.75.75,0,0,1,0-1.5Z"/><path class="cls-1" d="M7.625,11.243h13.5a.75.75,0,0,1,0,1.5H7.625a.75.75,0,0,1,0-1.5Z"/><path class="cls-1" d="M7.625,18.993h13.5a.75.75,0,0,1,0,1.5H7.625a.75.75,0,0,1,0-1.5Z"/><path d="M3.3332,5.32345a.65508.65508,0,0,1-.4205-.12733.4192.4192,0,0,1-.15991-.34647.43639.43639,0,0,1,.19545-.379A.9542.9542,0,0,1,3.499,4.33438a2.61049,2.61049,0,0,1,.62187.08884v.19545a.62915.62915,0,0,1-.231.51822A.85807.85807,0,0,1,3.3332,5.32345Zm-.077.49157a1.217,1.217,0,0,0,.539-.11253.91563.91563,0,0,0,.37312-.33166q.01777.11253.02961.379H4.725V3.93165a1.33643,1.33643,0,0,0-.34351-.97426A1.20817,1.20817,0,0,0,3.47534,2.605a1.42643,1.42643,0,0,0-.74328.19544,1.14883,1.14883,0,0,0-.47676.52711l.45011.26059a.78075.78075,0,0,1,.72847-.456q.67518,0,.687.83508a2.55213,2.55213,0,0,0-.68109-.09476,1.577,1.577,0,0,0-.94465.26651.84446.84446,0,0,0-.37016.72255.85641.85641,0,0,0,.154.51526.979.979,0,0,0,.41161.32574A1.39781,1.39781,0,0,0,3.25621,5.815Z"/><path d="M3.63624,13.36629a.79664.79664,0,0,1-.58754-.24739,1.04088,1.04088,0,0,1-.24458-.759,1.01182,1.01182,0,0,1,.24458-.74779.80586.80586,0,0,1,.58754-.24177.70243.70243,0,0,1,.5735.26145,1.12,1.12,0,0,1,.21365.72811,1.143,1.143,0,0,1-.21646.73935A.69854.69854,0,0,1,3.63624,13.36629Zm.10121.51727A1.19441,1.19441,0,0,0,4.37,13.70364a1.29939,1.29939,0,0,0,.4751-.5257,1.937,1.937,0,0,0,0-1.63052A1.32,1.32,0,0,0,4.37,11.0189a1.19382,1.19382,0,0,0-1.15823-.06184,1.034,1.034,0,0,0-.40763.36827V9.543H2.225v4.27872h.51165q.01123-.26988.03373-.48354a1.01876,1.01876,0,0,0,.41607.41044A1.17421,1.17421,0,0,0,3.73745,13.88356Z"/><path d="M3.649,21.395a1.359,1.359,0,0,0,.681-.168,1.11719,1.11719,0,0,0,.459-.504l-.474-.276a.76793.76793,0,0,1-.672.39.78366.78366,0,0,1-.63-.285,1.38748,1.38748,0,0,1,0-1.56.78366.78366,0,0,1,.63-.285.77027.77027,0,0,1,.672.384l.474-.276a1.11719,1.11719,0,0,0-.459-.504,1.359,1.359,0,0,0-.681-.168,1.52577,1.52577,0,0,0-.768.198,1.435,1.435,0,0,0-.552.567,1.919,1.919,0,0,0,0,1.722,1.435,1.435,0,0,0,.552.567A1.52577,1.52577,0,0,0,3.649,21.395Z"/></svg>