<svg id="图层_1" data-name="图层 1" xmlns="http://www.w3.org/2000/svg" viewBox="0 0 24 24"><defs><style>.cls-1{fill-rule:evenodd;}</style></defs><title>符号标注2</title><path class="cls-1" d="M7.75,3.5h13.5a.75.75,0,0,1,0,1.5H7.75a.75.75,0,0,1,0-1.5Z"/><path class="cls-1" d="M7.75,11.25h13.5a.75.75,0,0,1,0,1.5H7.75a.75.75,0,0,1,0-1.5Z"/><path class="cls-1" d="M7.75,19h13.5a.75.75,0,0,1,0,1.5H7.75a.75.75,0,0,1,0-1.5Z"/><rect x="2" y="2.75" width="3" height="3" rx="0.5" ry="0.5"/><rect x="2" y="10.5" width="3" height="3" rx="0.5" ry="0.5"/><rect x="2" y="18.25" width="3" height="3" rx="0.5" ry="0.5"/></svg>