<svg id="图层_1" data-name="图层 1" xmlns="http://www.w3.org/2000/svg" viewBox="0 0 24 24"><defs><style>.cls-1{fill-rule:evenodd;}</style></defs><title>数字符号</title><path class="cls-1" d="M21.1,3.37562a.75.75,0,1,1,0,1.5H7.6a.75.75,0,1,1,0-1.5Zm0,7.75a.75.75,0,0,1,0,1.5H7.6a.75.75,0,0,1,0-1.5Zm0,7.75a.75.75,0,0,1,0,1.5H7.6a.75.75,0,1,1,0-1.5Z"/><polygon points="3.55 5.786 3.55 2.126 3.135 2.126 2.15 2.696 2.15 3.231 3.01 2.746 3.01 5.786 3.55 5.786"/><path d="M4.55,13.8584v-.476H2.95668l.7666-.85177a4.08243,4.08243,0,0,0,.55866-.7215,1.24419,1.24419,0,0,0,.15783-.61128,1.12763,1.12763,0,0,0-.14029-.57369.93337.93337,0,0,0-.38831-.37077,1.20194,1.20194,0,0,0-.55867-.12777,1.27808,1.27808,0,0,0-.744.23048,1.1231,1.1231,0,0,0-.44844.65136l.4309.24551a.957.957,0,0,1,.27808-.466.65031.65031,0,0,1,.44342-.17036.53785.53785,0,0,1,.40084.15783.61239.61239,0,0,1,.15532.44844.832.832,0,0,1-.12276.43841,4.08354,4.08354,0,0,1-.43841.55365L2.15,13.51268v.34572Z"/><path d="M3.355,21.87438a1.409,1.409,0,0,0,.6-.12645,1.00035,1.00035,0,0,0,.595-.94958.9551.9551,0,0,0-.16116-.56529.93613.93613,0,0,0-.47851-.33719.7945.7945,0,0,0,.3843-.31736.90827.90827,0,0,0,.12644-.481.96022.96022,0,0,0-.13388-.50826.90092.90092,0,0,0-.37686-.34215A1.237,1.237,0,0,0,3.35,18.12562a1.23745,1.23745,0,0,0-.72149.21074,1.11614,1.11614,0,0,0-.42892.61736l.42148.243a.92191.92191,0,0,1,.26529-.43884.6356.6356,0,0,1,.42893-.15124.55311.55311,0,0,1,.38926.13884.48642.48642,0,0,1,.15124.37686.54019.54019,0,0,1-.17852.41653.73719.73719,0,0,1-.5157.16364H2.9781v.46611h.1438q.86281,0,.86281.60992a.58533.58533,0,0,1-.181.45372.64535.64535,0,0,1-.45372.16612.80189.80189,0,0,1-.77355-.57521l-.42645.243a1.047,1.047,0,0,0,.45868.60247A1.39646,1.39646,0,0,0,3.355,21.87438Z"/></svg>