<svg id="图层_1" data-name="图层 1" xmlns="http://www.w3.org/2000/svg" viewBox="0 0 24 24"><title>huaweishare</title><path d="M20.9634,19.015a10.72435,10.72435,0,0,1-1.05273,1.0913l-.16249.1432-.26824.23162a1,1,0,0,1-1.34764-1.47681l.04056-.037.26825-.23162a8.71745,8.71745,0,0,0,.98842-1.00416,8.9542,8.9542,0,0,0-.85234-12.34506l-.10792-.09556-.29966-.261a1,1,0,0,1,1.27123-1.54308l.04234.03492.29966.261A10.95239,10.95239,0,0,1,20.9634,19.015Zm-3.71762-2.48a6.94242,6.94242,0,0,1-.79333.80591,1,1,0,1,1-1.30611-1.51462,4.94205,4.94205,0,0,0,.56476-.57377A5.08714,5.08714,0,0,0,15.23264,8.25l-.08955-.079a1,1,0,0,1,1.27024-1.5439l.04237.03491.01921.01671A7.08582,7.08582,0,0,1,17.24578,16.53493ZM14,12.02581a2,2,0,1,1-2-2A2,2,0,0,1,14,12.02581Zm-5.2224,3.71955a1,1,0,0,1-1.30983,1.5114,6.88841,6.88841,0,0,1-.78514-.80155,7.06622,7.06622,0,0,1,.7629-9.79607l.019-.0166.04228-.035a1,1,0,0,1,1.274,1.54075l-.08842.07846a5.06783,5.06783,0,0,0-.472,6.94972A4.88862,4.88862,0,0,0,8.77761,15.74536Zm-2.95085,3.1571A1,1,0,0,1,4.47549,20.376l-.26513-.23007-.16074-.14236a10.6376,10.6376,0,0,1-1.04137-1.0849,10.92032,10.92032,0,0,1,1.16782-15.136l.29617-.25926.04226-.035a1,1,0,0,1,1.275,1.53994l-.29618.25923-.10659.09486a8.92259,8.92259,0,0,0-.84151,12.25655,8.63046,8.63046,0,0,0,.97591.9964l.26512.23006Z"/></svg>