<svg id="图层_1" data-name="图层 1" xmlns="http://www.w3.org/2000/svg" viewBox="0 0 24 24"><defs><style>.cls-1{fill-rule:evenodd;}</style></defs><title>位置提醒</title><path d="M12.5,2.25a6.94008,6.94008,0,0,1,6.87282,5.97627l.01376.104.31356,2.50425a5.55,5.55,0,0,0-1.59559-.67087l-.205-1.63647-.01226-.09287a5.44009,5.44009,0,0,0-5.296-4.6835L12.51116,3.75l-.09367.00065A5.4401,5.4401,0,0,0,7.11392,8.42555l-.01206.09051L5.94875,17.75l5.80074-.00058a9.4048,9.4048,0,0,0,.80441,1.50083L3.25,19.25a.75.75,0,0,1,0-1.5H4.43725L5.61341,8.33022a6.94009,6.94009,0,0,1,6.78174-6.07944Zm1.79369,19.22042.1379.1524.13288.13874q.09145.09267.20349.19978a2.98473,2.98473,0,0,1-2.19209,1.03772L12.5,23a3.00028,3.00028,0,0,1-2.98974-2.75006l3.75787-.00028Q13.73064,20.84545,14.29369,21.47042Z"/><path class="cls-1" d="M12.25,3.54616c.13807,0,.27632.00849.413.022l.11674.01274.11573.0147.17117.02471.48832.07789.10183.015.09886.01306.09565.01068.0922.0078c.48209.03308.80649-.07708.80649-.66148A2.17143,2.17143,0,0,0,12.5,1a2.17143,2.17143,0,0,0-2.25,2.08322c0,.59445.20217.69821.569.65965l.07305-.00915.07709-.01214.08109-.01457.363-.07139.15157-.02715.10555-.0167.10909-.01492.05585-.00662.11429-.0112C12.04626,3.55094,12.14645,3.54616,12.25,3.54616Z"/><path class="cls-1" d="M14.75,3.25a2.25,2.25,0,0,0-4.5,0"/><path d="M16.85,14.25A1.15,1.15,0,1,1,15.7,15.4,1.15,1.15,0,0,1,16.85,14.25Zm-.07526-1.67933.05425-.00045h.046A3.16888,3.16888,0,0,1,20,15.78111c0,1.29581-.62587,2.44931-1.91307,3.975a10.3467,10.3467,0,0,1-.96979.97255.35144.35144,0,0,1-.46234.00952L16.51,20.60622c-.36266-.33371-.617-.58437-.759-.747l-.09051-.106c-1.2501-1.47535-1.91047-2.70335-1.91047-3.9721A3.13085,3.13085,0,0,1,16.77474,12.57067Zm.10026-1.50045-.13328.00057A4.53356,4.53356,0,0,0,12.25,15.6149c0,1.735.89548,3.32209,2.55947,5.19375l.116.12939.11174.11778c.184.18825.442.42883.777.72519l.28.24515.03555.02963a1.20413,1.20413,0,0,0,1.53373-.02442,13.2405,13.2405,0,0,0,1.276-1.22164C20.64853,18.879,21.5,17.38332,21.5,15.6149A4.58534,4.58534,0,0,0,16.875,11.07022Z"/></svg>