<svg id="图层_1" data-name="图层 1" xmlns="http://www.w3.org/2000/svg" viewBox="0 0 24 24"><defs><style>.cls-1{fill-rule:evenodd;}</style></defs><title>复制图片</title><path class="cls-1" d="M7.46875,9.09375A1.53125,1.53125,0,1,1,5.9375,10.625,1.53124,1.53124,0,0,1,7.46875,9.09375ZM15.59029,2c2.22879,0,3.037.23206,3.85182.66783a4.54323,4.54323,0,0,1,1.89006,1.89006C21.76794,5.3727,22,6.18092,22,8.40971v5.96252a5.79955,5.79955,0,0,1-.53427,3.08146,3.63532,3.63532,0,0,1-.97081,1.16035c.0032-.14453.00508-.29743.00508-.45987V8.34583a5.34107,5.34107,0,0,0-.51889-2.7827,3.72583,3.72583,0,0,0-1.54424-1.54424,4.993,4.993,0,0,0-2.51749-.51707L5.84583,3.5c-.16272,0-.31588.00189-.46066.00585a3.63917,3.63917,0,0,1,1.16114-.97158A5.79955,5.79955,0,0,1,9.62777,2ZM14.8929,13.94839a1.71431,1.71431,0,0,0-.72238.50328l-.12251.12073-2.41,2.40988a1.97,1.97,0,0,1-2.65884.115l-.12529-.1149-.09665-.09663a2.328,2.328,0,0,0-.67615-.53112l-.06184-.02332-.05435-.01741a.93412.93412,0,0,0-.55482,0,1.71424,1.71424,0,0,0-.72236.50327l-.12251.12073L3.73313,19.77013a1.862,1.862,0,0,0,.67636.605,3.70619,3.70619,0,0,0,1.89959.31174l.17772.00062h8.5264a4.01851,4.01851,0,0,0,2.07731-.31236,1.9973,1.9973,0,0,0,.21169-.13047l.09724-.07359L17.453,20.125l-.02948.0281q.068-.05725.1302-.12042t.11859-.13235l-.01276.01322a1.94927,1.94927,0,0,0,.21559-.323,3.70619,3.70619,0,0,0,.31174-1.89959l.00062-.17772-.00022-1.04583-1.94723-1.94713a2.458,2.458,0,0,0-.647-.5172l-.0627-.02647-.05467-.01937-.028-.00881A.93409.93409,0,0,0,14.8929,13.94839ZM15.0132,4.5a5.14876,5.14876,0,0,1,2.65987.44821l.03641.01927A3.17646,3.17646,0,0,1,18.988,6.20988l.04455.08064A5.07467,5.07467,0,0,1,19.5,8.9868V14.687l-1.313-1.314.0005-4.3862a4.01851,4.01851,0,0,0-.31236-2.07731,1.86821,1.86821,0,0,0-.78463-.78463,3.70619,3.70619,0,0,0-1.89959-.31174l-.08739-.00047H6.39647l-.17629.0013a3.556,3.556,0,0,0-1.81069.31091,1.86821,1.86821,0,0,0-.78463.78463A4.01851,4.01851,0,0,0,3.3125,8.9868l.00015,8.61673.0013.17629c.00234.20241.00758.38.01613.53779l2.3722-2.37243a3.062,3.062,0,0,1,1.3271-.88736,2.2423,2.2423,0,0,1,1.13525-.04651l.19.04933.07322.02344a2.87858,2.87858,0,0,1,1.09056.7129l.16326.1571.0998.09975a.65749.65749,0,0,0,.84732.06926l.08136-.06913,2.47488-2.47428a3.06207,3.06207,0,0,1,1.3271-.88736,2.24626,2.24626,0,0,1,1.31624,0,2.81432,2.81432,0,0,1,1.17956.74545l.15665.15092L19.5,15.92383v1.7744a4.7949,4.7949,0,0,1-.45739,2.50021,3.24009,3.24009,0,0,1-1.34417,1.34417,4.19763,4.19763,0,0,1-2.04312.45121l-.24817.005L15.19823,22H6.30177a4.7949,4.7949,0,0,1-2.50021-.45739,3.24015,3.24015,0,0,1-1.34417-1.34417l-.07272-.14224-.06424-.13988-.1718-.3978.02911-.03013A7.7993,7.7993,0,0,1,2,17.5132V8.9868a5.14876,5.14876,0,0,1,.44821-2.65987l.01927-.03641A3.17646,3.17646,0,0,1,3.70988,5.012l.08064-.04455A5.07467,5.07467,0,0,1,6.4868,4.5Z"/></svg>