<svg id="图层_1" data-name="图层 1" xmlns="http://www.w3.org/2000/svg" viewBox="0 0 24 24"><title>图片</title><path d="M8.25,7.25A1.75,1.75,0,1,1,6.5,9,1.75,1.75,0,0,1,8.25,7.25Zm9.11882,5.54816a1.06768,1.06768,0,0,0-.63408,0,2.29637,2.29637,0,0,0-.96559.71316l-2.75426,2.75414a2.25128,2.25128,0,0,1-3.18187.0001l-.11045-.11043a2.3173,2.3173,0,0,0-.84342-.63365L8.817,15.50159a1.06752,1.06752,0,0,0-.63408,0,2.29623,2.29623,0,0,0-.96557.71315L3.981,19.45191q.0346.05109.07168.09966l.00012.00339c.03269.0396.067.08112.10266.12117a.47644.47644,0,0,0,.03359.03877l-.03359-.03877q.0595.06672.12441.128L4.189,19.7149q.05584.05947.116.11459l-.02523-.02534a2.18793,2.18793,0,0,0,.47389.33886,4.23561,4.23561,0,0,0,2.171.35628L7.12777,20.5h9.74446a4.5924,4.5924,0,0,0,2.37406-.357,2.135,2.135,0,0,0,.89672-.89672,4.23561,4.23561,0,0,0,.35628-2.17095L20.5,16.87223V16.384l-.00025-.707-2.22541-2.2253a2.45615,2.45615,0,0,0-.81106-.62134l-.06248-.02213ZM6.91631,22a5.47979,5.47979,0,0,1-2.85738-.52273,3.703,3.703,0,0,1-1.5362-1.5362c-.05914-.11058-.11032-.21543-.15653-.32242L2.16986,19.164l.03321-.03465A8.915,8.915,0,0,1,2,16.87223V7.12777a5.8843,5.8843,0,0,1,.51223-3.03985l.022-.04161A3.63037,3.63037,0,0,1,3.95414,2.58517l.09217-.0509A5.79955,5.79955,0,0,1,7.12777,2h9.74446a5.88441,5.88441,0,0,1,3.03985.51223l.04161.022a3.63031,3.63031,0,0,1,1.46114,1.41987l.0509.09217A5.79955,5.79955,0,0,1,22,7.12777V13.642l-1.5-1.501V7.12777a4.5924,4.5924,0,0,0-.357-2.37406,2.135,2.135,0,0,0-.89672-.89672,4.23561,4.23561,0,0,0-2.17095-.35628L7.02454,3.50018l-.20148.00148A4.06394,4.06394,0,0,0,4.75371,3.857a2.135,2.135,0,0,0-.89672.89672A4.5924,4.5924,0,0,0,3.5,7.12777l.00017,9.84769.00149.20148c.00267.23112.00865.434.01841.61416l2.71111-2.71089a3.49937,3.49937,0,0,1,1.51668-1.01413,2.57567,2.57567,0,0,1,1.51463.00322l.08368.02679a3.64246,3.64246,0,0,1,1.43294.99429l.11406.114a.75112.75112,0,0,0,1.06134.00014L14.783,12.37678a3.49944,3.49944,0,0,1,1.51669-1.01413,2.56723,2.56723,0,0,1,1.50427,0,3.52054,3.52054,0,0,1,1.5271,1.02443L22,15.05581v2.02788a5.47979,5.47979,0,0,1-.52273,2.85738,3.703,3.703,0,0,1-1.5362,1.5362,5.15367,5.15367,0,0,1-2.61861.52139L17.08369,22Z"/></svg>