<svg id="图层_1" data-name="图层 1" xmlns="http://www.w3.org/2000/svg" viewBox="0 0 24 24"><title>图片-实心</title><path d="M8.25,7.25A1.75,1.75,0,1,0,10,9,1.75,1.75,0,0,0,8.25,7.25Zm9.15616,4.36472a2.71987,2.71987,0,0,0-2.22281,1.66871l-1.17982,2.04681a1,1,0,0,1-1.57408.20712l-.5896-.5906a2.8524,2.8524,0,0,0-3.91086-.1205Q6.59569,16.00686,5.3397,17.265q-.84243.84386-1.64045,1.71472A2.50089,2.50089,0,0,0,5.93,20.499L6,20.5H18l.16161-.00514A2.50019,2.50019,0,0,0,20.499,18.07L20.5,18v-.90239C20.5,14.0695,19.11484,11.61472,17.40616,11.61472ZM18,2a4,4,0,0,1,4,4V18a4,4,0,0,1-4,4H6a4,4,0,0,1-4-4V6A4,4,0,0,1,6,2Z"/></svg>