<?xml version="1.0" encoding="utf-8"?>
<!-- Generator: Adobe Illustrator 23.0.1, SVG Export Plug-In . SVG Version: 6.00 Build 0)  -->
<svg version="1.1" id="图层_1" xmlns="http://www.w3.org/2000/svg" xmlns:xlink="http://www.w3.org/1999/xlink" x="0px" y="0px"
	 viewBox="0 0 24 24" style="enable-background:new 0 0 24 24;" xml:space="preserve">
<style type="text/css">
	.st0{fill:#182431;}
</style>
<title>恢复</title>
<path class="st0" d="M1.7,15.8L1.7,15.8C1.2,14.6,1,13.3,1,12h2.9c0.3,0,0.5,0.2,0.5,0.5c0,0.1,0,0.2-0.1,0.3l-1.9,3.1
	C2.3,16,2,16.1,1.8,16C1.7,15.9,1.7,15.8,1.7,15.8z M1.2,14C1.1,13.3,1,12.7,1,12C1,5.9,5.9,1,12,1c0.8,0,1.6,0.1,2.3,0.2
	C19.3,2.3,23,6.8,23,12c0,6.1-4.9,11-11,11c-1.1,0-2.2-0.2-3.2-0.5c-1.5-0.5-2.9-1.2-4.1-2.3c-0.3-0.3-0.3-0.7-0.1-1.1
	c0.3-0.3,0.7-0.3,1.1-0.1c1,0.9,2.2,1.6,3.5,2c0.9,0.3,1.8,0.4,2.8,0.4c5.2,0,9.5-4.3,9.5-9.5c0-4.5-3.2-8.4-7.5-9.3
	c-0.7-0.1-1.3-0.2-2-0.2c-5.2,0-9.5,4.3-9.5,9.5c0,0.6,0.1,1.1,0.2,1.7c0.1,0.4-0.2,0.8-0.6,0.9C1.6,14.6,1.3,14.4,1.2,14z"/>
</svg>
