<?xml version="1.0" encoding="utf-8"?>
<!-- Generator: Adobe Illustrator 23.0.1, SVG Export Plug-In . SVG Version: 6.00 Build 0)  -->
<svg version="1.1" id="图层_1" xmlns="http://www.w3.org/2000/svg" xmlns:xlink="http://www.w3.org/1999/xlink" x="0px" y="0px"
	 viewBox="0 0 18 18" style="enable-background:new 0 0 18 18;" xml:space="preserve">
<style type="text/css">
	.st0{fill:#F86D05;}
</style>
<title>搜索</title>
<path class="st0" d="M13.2,12.2l2.4,2.4c0.3,0.3,0.3,0.8,0,1.1s-0.8,0.3-1.1,0l-2.4-2.4C12.5,13,12.9,12.6,13.2,12.2z M7.8,1.5
	c3.5,0,6.3,2.8,6.3,6.3c0,1.4-0.5,2.8-1.3,3.8l-0.2,0.2c-0.1,0.1-0.2,0.2-0.2,0.3l-0.1,0.1l0,0l-0.1,0.1l0,0L12,12.4l0,0l-0.3,0.2
	l0,0l-0.1,0.1l0,0c-1.1,0.8-2.4,1.3-3.8,1.3c-3.5,0-6.3-2.8-6.3-6.3S4.3,1.5,7.8,1.5z M7.8,3C5.1,3,3,5.1,3,7.8s2.1,4.8,4.8,4.8
	s4.8-2.1,4.8-4.8S10.4,3,7.8,3z"/>
</svg>
