<svg id="图层_1" data-name="图层 1" xmlns="http://www.w3.org/2000/svg" viewBox="0 0 24 24"><defs><style>.cls-1{fill:#1a1a1a;}</style></defs><title>置顶</title><path class="cls-1" d="M18.22466,2.75a.75.75,0,0,1,0,1.5h-12.5a.75.75,0,0,1,0-1.5Zm-5.5376,3.96184.1083.08292a1.25047,1.25047,0,0,1,.13349.13275l6.23394,7.21182a.25.25,0,0,1-.18838.41349l-3.25219.0091a.75.75,0,0,0-.7479.75006l.00034,4.18808a.25.25,0,0,1-.25.24994h-5.5a.25.25,0,0,1-.25-.25l-.00034-4.16514a.75.75,0,0,0-.75236-.74994l-3.195.01a.25.25,0,0,1-.1907-.41243L11.033,6.93278A1.25018,1.25018,0,0,1,12.68706,6.71184ZM9.89275,5.95817l-6.1967,7.24974a1.75,1.75,0,0,0-.41973,1.14233l.00624.14351a1.75017,1.75017,0,0,0,1.749,1.6012l2.44205-.009.001,3.41406a1.75,1.75,0,0,0,1.75,1.74994h5.5l.14353-.0058A1.75016,1.75016,0,0,0,16.47466,19.5l-.001-3.441,2.50512-.00619a1.75,1.75,0,0,0,1.31881-2.89441L14.06365,5.94658a2.75,2.75,0,0,0-4.1709.01159Z"/></svg>