<svg id="图层_1" data-name="图层 1" xmlns="http://www.w3.org/2000/svg" viewBox="0 0 24 24"><defs><style>.cls-1{fill-rule:evenodd;}</style></defs><title>缩进</title><path class="cls-1" d="M21.25,3.5a.75.75,0,0,1,0,1.5H2.75a.75.75,0,0,1,0-1.5Zm0,5.25a.75.75,0,0,1,0,1.5h-10a.75.75,0,0,1,0-1.5Zm0,5a.75.75,0,0,1,0,1.5h-10a.75.75,0,0,1,0-1.5ZM2.28855,8.08183a.56447.56447,0,0,1,.57925-.00375l4.17075,3.4065a.61195.61195,0,0,1-.001,1.04725L2.8668,15.92257a.56409.56409,0,0,1-.57875-.00475.60522.60522,0,0,1-.288-.51925V8.60133A.60523.60523,0,0,1,2.28855,8.08183ZM21.25,19a.75.75,0,0,1,0,1.5H2.75a.75.75,0,0,1,0-1.5Z"/></svg>