<svg id="图层_1" data-name="图层 1" xmlns="http://www.w3.org/2000/svg" viewBox="0 0 24 24"><defs><style>.cls-1{fill-rule:evenodd;}</style></defs><title>缩进2</title><path class="cls-1" d="M21.25,3.5a.75.75,0,0,1,0,1.5H2.75a.75.75,0,0,1,0-1.5Zm0,5.25a.75.75,0,0,1,0,1.5h-10a.75.75,0,0,1,0-1.5Zm0,5a.75.75,0,0,1,0,1.5h-10a.75.75,0,0,1,0-1.5ZM7.21145,8.08183a.60523.60523,0,0,1,.2885.5195v6.79724a.60522.60522,0,0,1-.288.51925.56409.56409,0,0,1-.57875.00475L2.46245,12.53183a.60559.60559,0,0,1-.29575-.5235v-.0005a.60519.60519,0,0,1,.29475-.52325L6.6322,8.07808A.56447.56447,0,0,1,7.21145,8.08183ZM21.25,19a.75.75,0,0,1,0,1.5H2.75a.75.75,0,0,1,0-1.5Z"/></svg>