<svg id="图层_1"
     data-name="图层 1"
     xmlns="http://www.w3.org/2000/svg"
     viewBox="0 0 24 24">
    <defs>
        <style>.cls-1{fill:#A3A7AD;fill-rule:evenodd;}</style>
    </defs>
    <title>置顶-实心</title>
    <path
        class="cls-1"
        d="M18,2.84625a1,1,0,0,1,0,2H6a1,1,0,1,1,0-2ZM13.25406,6.07536a1.9993,1.9993,0,0,1,.21349.21236l6.664,7.71105a.99993.99993,0,0,1-.75541,1.65428L16.25,15.65225v4.5015a1,1,0,0,1-1,1H8.75a1,1,0,0,1-1-1v-4.5015l-3.12611.0008a1.00023,1.00023,0,0,1-.75962-1.64938L10.4375,6.29752A1.99626,1.99626,0,0,1,13.25406,6.07536Z"/>
</svg>