<?xml version="1.0" encoding="utf-8"?>
<!-- Generator: Adobe Illustrator 23.0.1, SVG Export Plug-In . SVG Version: 6.00 Build 0)  -->
<svg version="1.1" id="图层_1" xmlns="http://www.w3.org/2000/svg" xmlns:xlink="http://www.w3.org/1999/xlink" x="0px" y="0px"
	 viewBox="0 0 24 24" style="enable-background:new 0 0 24 24;" xml:space="preserve">
<style type="text/css">
	.st0{fill-rule:evenodd;clip-rule:evenodd;fill:#FFFFFF;fill-opacity:0.4;}
	.st1{fill-rule:evenodd;clip-rule:evenodd;fill:#182431;fill-opacity:0.4;}
</style>
<title>选中前</title>
<g id="编组" transform="translate(2.000000, 2.000000)">
	<path id="Rectangle-2375-Copy" class="st0" d="M0,4c0-2.2,1.8-4,4-4h12c2.2,0,4,1.8,4,4v12c0,2.2-1.8,4-4,4H4c-2.2,0-4-1.8-4-4V4z"
		/>
	<path id="Rectangle-2375-Copy-2" class="st1" d="M16,0c2.2,0,4,1.8,4,4v12c0,2.2-1.8,4-4,4H4c-2.2,0-4-1.8-4-4V4c0-2.2,1.8-4,4-4
		H16z M15.7,1H4.3C2.5,1,1,2.5,1,4.3l0,0v11.5C1,17.5,2.5,19,4.3,19l0,0h11.5c1.8,0,3.3-1.5,3.3-3.3l0,0V4.3C19,2.5,17.5,1,15.7,1
		L15.7,1z"/>
</g>
</svg>
