<?xml version="1.0" encoding="UTF-8"?>
<svg width="24px" height="24px" viewBox="0 0 24 24" version="1.1" xmlns="http://www.w3.org/2000/svg" xmlns:xlink="http://www.w3.org/1999/xlink">
    <title>未分类图标</title>
    <g id="未分类图标" stroke="none" stroke-width="1" fill="none" fill-rule="evenodd">
        <path d="M6,23 C4.34314575,23 3,21.6568542 3,20 L3,4 C3,2.34314575 4.34314575,1 6,1 L18,1 C19.6568542,1 21,2.34314575 21,4 L21,20 C21,21.6568542 19.6568542,23 18,23 L6,23 Z M7.25,2.5 L6,2.5 C5.22030388,2.5 4.57955132,3.09488808 4.50686658,3.85553999 L4.5,4 L4.5,20 C4.5,20.7796961 5.09488808,21.4204487 5.85553999,21.4931334 L6,21.5 L7.25,21.5 L7.25,2.5 Z M13,2.5 L8.75,2.5 L8.75,21.5 L18,21.5 C18.7796961,21.5 19.4204487,20.9051119 19.4931334,20.14446 L19.5,20 L19.5,4 C19.5,3.17157288 18.8284271,2.5 18,2.5 L17.75,2.5 L17.75,8.60696035 C17.75,8.80959843 17.6241436,8.95854085 17.4747134,8.99261024 L17.4095268,9 C17.3655893,9 17.3208978,8.98992961 17.2778651,8.96839378 L15.6217319,7.91271676 C15.4841217,7.82507842 15.314438,7.81108657 15.1666498,7.87051518 L15.081036,7.914981 L13.5378527,8.91603645 C13.4760179,8.96763087 13.4074821,8.99087779 13.340558,8.99087779 C13.1865541,8.99087779 13.0413173,8.86749043 13.0074144,8.68130167 L13,8.59783814 L13,2.5 Z M16.5,2.5 L14.25,2.5 L14.25,6.95222182 L15.358483,6.18509007 L16.5,6.95898847 L16.5,2.5 Z" id="形状" fill="#182431"></path>
    </g>
</svg>