<svg id="图层_1" data-name="图层 1" xmlns="http://www.w3.org/2000/svg" viewBox="0 0 24 24"><title>下划线</title><rect x="4" y="19.7398" width="16" height="1.5102" rx="0.75" ry="0.75"/><path d="M17,2.75a.75.75,0,0,1,.74873.70593L17.75,3.5V13.51666C17.75,16.36948,15.15492,18.25,12,18.25c-3.12337,0-5.698-1.83536-5.74922-4.64793L6.25,13.51666V3.5a.75.75,0,0,1,1.49873-.04407L7.75,3.5V13.51666C7.75,15.49293,9.63207,16.75,12,16.75c2.3394,0,4.20458-1.21766,4.24918-3.16205l.00082-.07129V3.5A.75.75,0,0,1,17,2.75Z"/></svg>