<svg id="图层_1" data-name="图层 1" xmlns="http://www.w3.org/2000/svg" viewBox="0 0 24 24"><title>解锁</title><path d="M13.5,13.875a2,2,0,1,1-2,2A2,2,0,0,1,13.5,13.875Zm4.5-2.75H9a1.5,1.5,0,0,0-1.499,1.44377L7.5,12.625v6.5a1.5,1.5,0,0,0,1.44377,1.499L9,20.625h9a1.5,1.5,0,0,0,1.499-1.44377L19.5,19.125v-6.5a1.5,1.5,0,0,0-1.44377-1.499ZM7.25,1.875a4.25,4.25,0,0,1,4.24925,4.16924L11.5,6.125v3.5H18a3,3,0,0,1,3,3v6.5a3,3,0,0,1-3,3H9a3,3,0,0,1-3-3v-6.5a3,3,0,0,1,3-3h1v-3.5a2.75,2.75,0,0,0-5.49907-.0721L4.5,8.389a.75.75,0,0,1-1.49873.04407L3,8.389V6.125A4.25,4.25,0,0,1,7.25,1.875Z"/></svg>