<?xml version="1.0" encoding="utf-8"?>
<!-- Generator: Adobe Illustrator 23.0.1, SVG Export Plug-In . SVG Version: 6.00 Build 0)  -->
<svg version="1.1" id="图层_1" xmlns="http://www.w3.org/2000/svg" xmlns:xlink="http://www.w3.org/1999/xlink" x="0px" y="0px"
	 viewBox="0 0 24 24" style="enable-background:new 0 0 24 24;" xml:space="preserve">
<title>样式</title>
<path id="形状结合" d="M21.2,19.5c0.4,0,0.8,0.3,0.8,0.8S21.7,21,21.2,21H2.8C2.3,21,2,20.7,2,20.2s0.3-0.8,0.8-0.8H21.2z
	 M8.3,4.7l4,10.6h-1.4l-1-2.8H5.4l-1,2.8H3L7,4.7H8.3z M21.2,13.5c0.4,0,0.8,0.3,0.8,0.8S21.7,15,21.2,15h-5.5
	c-0.4,0-0.8-0.3-0.8-0.8s0.3-0.8,0.8-0.8H21.2z M7.7,6.4L6,11.3l3.4,0L7.7,6.4z M21.2,9C21.7,9,22,9.3,22,9.7s-0.3,0.8-0.8,0.8h-7.5
	c-0.4,0-0.8-0.3-0.8-0.8S13.3,9,13.8,9H21.2z M21.2,4.5c0.4,0,0.8,0.3,0.8,0.8S21.7,6,21.2,6h-9.5C11.3,6,11,5.7,11,5.2
	s0.3-0.8,0.8-0.8H21.2z"/>
</svg>
