<svg id="图层_1" data-name="图层 1" xmlns="http://www.w3.org/2000/svg" viewBox="0 0 24 24"><title>todo</title><path d="M18.18718,8.71967a.75.75,0,0,1,.03026,1.0286l-.03026.03206-5.94974,5.94975a1.75,1.75,0,0,1-2.43162.04182l-.04326-.04182L6.31282,12.28033a.74644.74644,0,0,1-.20333-.37421L6.095,11.80231v-.10462a.75.75,0,0,1,1.24645-.50828l.03207.03026,3.09619,3.09619a.75.75,0,0,0,1.0286.03026l.03206-.03026,5.59619-5.59619A.75.75,0,0,1,18.18718,8.71967ZM12,2.5A9.5,9.5,0,1,0,21.5,12,9.5,9.5,0,0,0,12,2.5ZM12,1A11,11,0,1,1,1,12,11,11,0,0,1,12,1Z"/></svg>